<?xml version="1.0" standalone="no"?>
<!DOCTYPE svg PUBLIC "-//W3C//DTD SVG 1.1//EN" "http://www.w3.org/Graphics/SVG/1.1/DTD/svg11.dtd" >
<svg xmlns="http://www.w3.org/2000/svg" xmlns:xlink="http://www.w3.org/1999/xlink" version="1.1">
<metadata>
Created by FontForge 20161013 at Thu Jan 28 16:32:48 2016
 By ,,,
Copyright (c) 2016 by AIA Group Limited. All rights reserved.
</metadata>
<defs>
<font id="AIAEverest-Medium" horiz-adv-x="0" >
  <font-face 
    font-family="AIA Everest Medium"
    font-weight="500"
    font-stretch="normal"
    units-per-em="1000"
    panose-1="0 0 6 0 0 0 0 0 0 0"
    ascent="750"
    descent="-250"
    x-height="490"
    cap-height="680"
    bbox="-489 -200 1168 918"
    underline-thickness="82"
    underline-position="-294"
    unicode-range="U+0020-2265"
  />
<missing-glyph horiz-adv-x="579" 
d="M100 -100v880h379v-880h-379z" />
    <glyph glyph-name=".notdef" horiz-adv-x="579" 
d="M100 -100v880h379v-880h-379z" />
    <glyph glyph-name=".null" 
 />
    <glyph glyph-name="nonmarkingreturn" horiz-adv-x="333" 
 />
    <glyph glyph-name="space" unicode=" " horiz-adv-x="230" 
 />
    <glyph glyph-name="exclam" unicode="!" horiz-adv-x="305" 
d="M220 680q-5 -277 -26 -471h-83q-21 215 -26 471h135zM153 -8q-30 0 -51.5 21t-21.5 52q0 30 21.5 50.5t51.5 20.5t51 -20.5t21 -50.5q0 -31 -21.5 -52t-50.5 -21z" />
    <glyph glyph-name="quotedbl" unicode="&#x22;" horiz-adv-x="334" 
d="M34 680h98q0 -140 -18 -232h-61q-19 97 -19 232zM201 680h99q0 -140 -18 -232h-62q-19 97 -19 232z" />
    <glyph glyph-name="numbersign" unicode="#" horiz-adv-x="560" 
d="M528 413h-91l-20 -144h78v-78h-89l-27 -191h-83l27 191h-126l-27 -191h-84l27 191h-80v78h91l20 144h-79v79h90l27 188h83l-26 -188h126l27 188h83l-27 -188h80v-79zM334 269l20 144h-126l-20 -144h126z" />
    <glyph glyph-name="dollar" unicode="$" horiz-adv-x="560" 
d="M510 193q0 -81 -51 -136t-140 -65v-72h-83v73q-92 11 -142 64t-53 126l-1 21h113q4 -54 38.5 -85.5t94.5 -31.5q54 0 83.5 26t29.5 74q0 42 -25 63t-80 40l-55 19q-96 33 -139.5 75.5t-43.5 114.5q0 73 48 126.5t132 62.5v78h83v-80q80 -12 125 -58.5t50 -105.5l1 -17
h-113q-7 39 -36.5 63t-79.5 24q-47 0 -73 -25t-26 -62t28 -58t90 -42l56 -20q81 -28 125 -72t44 -120z" />
    <glyph glyph-name="percent" unicode="%" horiz-adv-x="830" 
d="M196 344q-68 0 -115.5 44.5t-47.5 127.5q0 84 47.5 128.5t115.5 44.5q67 0 115.5 -44.5t48.5 -128.5q0 -83 -48.5 -127.5t-115.5 -44.5zM657 680l-395 -680h-89l394 680h90zM196 419q35 0 56.5 25.5t21.5 71.5t-21.5 72t-56.5 26t-56.5 -26t-21.5 -72t21.5 -71.5
t56.5 -25.5zM634 -8q-68 0 -115.5 44.5t-47.5 128.5q0 83 47.5 128t115.5 45q67 0 115.5 -45t48.5 -128q0 -84 -48.5 -128.5t-115.5 -44.5zM634 67q35 0 56.5 26t21.5 72t-21.5 72t-56.5 26t-56.5 -26t-21.5 -72t21.5 -72t56.5 -26z" />
    <glyph glyph-name="ampersand" unicode="&#x26;" horiz-adv-x="593" 
d="M505 101q68 -74 99 -101h-136q-8 4 -33 30q-61 -39 -144 -39q-123 0 -186.5 61t-63.5 153q0 127 108 202q-31 67 -31 112q0 78 44 125t123 47q82 0 123.5 -46t45.5 -110l1 -15h-104q-6 74 -65 74q-58 0 -58 -71q0 -96 203 -338q19 45 19 111v15h103v-20q0 -113 -48 -190z
M289 86q44 0 77 18q-109 122 -171 221q-43 -45 -43 -111q0 -57 37 -92.5t100 -35.5z" />
    <glyph glyph-name="quotesingle" unicode="'" horiz-adv-x="166" 
d="M34 680h98q0 -140 -18 -232h-61q-19 97 -19 232z" />
    <glyph glyph-name="parenleft" unicode="(" horiz-adv-x="368" 
d="M61 267q0 99 31.5 187.5t67.5 137t79 88.5h109q-80 -87 -127 -184.5t-47 -228.5t47 -228.5t127 -184.5h-109q-43 40 -79 88.5t-67.5 137t-31.5 187.5z" />
    <glyph glyph-name="parenright" unicode=")" horiz-adv-x="368" 
d="M308 267q0 -99 -31.5 -187.5t-67.5 -137t-79 -88.5h-109q51 56 85.5 108t61.5 133.5t27 171.5t-27 171.5t-61.5 133.5t-85.5 108h109q43 -40 79 -88.5t67.5 -137t31.5 -187.5z" />
    <glyph glyph-name="asterisk" unicode="*" horiz-adv-x="361" 
d="M327 594q-47 -16 -104 -41q71 -32 104 -41q-12 -39 -38 -65q-55 45 -88 69q6 -63 17 -110q-38 -10 -75 0q11 57 16 110q-56 -41 -88 -69q-28 30 -37 65q39 11 104 41q-64 28 -104 41q12 38 37 65q39 -34 88 -70q-6 57 -16 111q38 10 75 0q-8 -35 -16 -110q46 33 87 69
q26 -26 38 -65z" />
    <glyph glyph-name="plus" unicode="+" horiz-adv-x="570" 
d="M501 370v-92h-169v-170h-94v170h-169v92h169v170h94v-170h169z" />
    <glyph glyph-name="comma" unicode="," horiz-adv-x="213" 
d="M169 118v-37q0 -94 -76 -195h-65q21 92 21 188v44h120z" />
    <glyph glyph-name="hyphen" unicode="-" horiz-adv-x="362" 
d="M41 344h280v-100h-280v100z" />
    <glyph glyph-name="period" unicode="." horiz-adv-x="213" 
d="M106 -8q-30 0 -51 21t-21 52q0 30 21 50.5t51 20.5t51.5 -20.5t21.5 -50.5q0 -31 -21.5 -52t-51.5 -21z" />
    <glyph glyph-name="slash" unicode="/" horiz-adv-x="429" 
d="M414 700l-285 -720h-114l284 720h115z" />
    <glyph glyph-name="zero" unicode="0" horiz-adv-x="560" 
d="M280 -10q-104 0 -168 78t-64 247v50q0 169 64 247t168 78t168 -78t64 -247v-50q0 -169 -64 -247t-168 -78zM280 90q118 0 118 229v42q0 229 -118 229t-118 -229v-42q0 -229 118 -229z" />
    <glyph glyph-name="one" unicode="1" horiz-adv-x="560" 
d="M283 680h92v-680h-113v526q-63 -53 -154 -86v106q46 23 96.5 61t78.5 73z" />
    <glyph glyph-name="two" unicode="2" horiz-adv-x="560" 
d="M224 100h281v-100h-439v90q42 31 74 56.5t80 70.5t79.5 84.5t55 89t23.5 93.5q0 50 -25.5 78t-75.5 28q-97 0 -109 -124h-111q1 100 59 162t162 62t159 -56t55 -148q0 -190 -268 -386z" />
    <glyph glyph-name="three" unicode="3" horiz-adv-x="560" 
d="M399 359q47 -18 75.5 -59.5t28.5 -102.5q0 -94 -59.5 -150.5t-162.5 -56.5q-102 0 -161.5 54.5t-64.5 139.5l-1 18h112q2 -52 33.5 -82t81.5 -30q49 0 79 28.5t30 80.5q0 110 -139 110v91q123 0 123 102q0 41 -25 64.5t-69 23.5q-91 0 -103 -99h-112q4 96 63 147.5
t153 51.5q93 0 150 -50t57 -131q0 -106 -89 -150z" />
    <glyph glyph-name="four" unicode="4" horiz-adv-x="560" 
d="M536 240v-96h-74v-144h-113v144h-309v58q0 40 10 63q35 83 114 213t137 202h133q-70 -88 -151.5 -217t-123.5 -223h190v166h113v-166h74z" />
    <glyph glyph-name="five" unicode="5" horiz-adv-x="560" 
d="M306 454q93 0 150.5 -60t57.5 -165q0 -109 -62.5 -173.5t-167.5 -64.5q-99 0 -158 50t-66 127l-2 22h110q3 -49 33 -76.5t84 -27.5t85 37t31 105q0 63 -30 97t-86 34q-37 0 -65 -16t-41 -40l-104 9q2 54 15 174t26 194h357v-100h-266q-10 -53 -20 -167q41 41 119 41z" />
    <glyph glyph-name="six" unicode="6" horiz-adv-x="560" 
d="M300 454q98 0 155.5 -61t57.5 -164q0 -108 -63 -173.5t-169 -65.5q-104 0 -166 62.5t-62 171.5v30q0 109 67 229t155 197h146q-138 -120 -201 -241q35 15 80 15zM282 85q55 0 86 38t31 103q0 133 -116 133q-117 0 -117 -137q0 -66 30 -101.5t86 -35.5z" />
    <glyph glyph-name="seven" unicode="7" horiz-adv-x="560" 
d="M52 680h440v-93q-32 -117 -111.5 -302t-131.5 -285h-126q167 322 251 580h-322v100z" />
    <glyph glyph-name="eight" unicode="8" horiz-adv-x="560" 
d="M389 362q124 -68 124 -180q0 -88 -65 -140.5t-167 -52.5q-105 0 -170 51.5t-65 137.5q0 120 125 182q-97 62 -97 156q0 78 58 127t152 49q96 0 154 -48t58 -127q0 -99 -107 -155zM284 600q-45 0 -71 -23.5t-26 -58.5q0 -32 23 -58t85 -54q89 36 89 108q0 37 -26 61.5
t-74 24.5zM279 82q54 0 87 28t33 71q0 44 -33.5 73t-109.5 62q-45 -19 -71.5 -53t-26.5 -77q0 -44 33.5 -74t87.5 -30z" />
    <glyph glyph-name="nine" unicode="9" horiz-adv-x="560" 
d="M277 690q103 0 165 -60.5t62 -167.5v-25q0 -109 -67 -233.5t-154 -203.5h-140q135 121 202 255q-36 -19 -86 -19q-96 0 -153.5 61t-57.5 162q0 106 63 168.5t166 62.5zM161 461q0 -61 30 -95.5t85 -34.5q115 0 115 133q0 60 -31 95.5t-83 35.5q-54 0 -85 -36.5t-31 -97.5
z" />
    <glyph glyph-name="colon" unicode=":" horiz-adv-x="243" 
d="M121 353q-29 0 -50.5 21t-21.5 51q0 31 21 51.5t51 20.5t51.5 -20.5t21.5 -51.5q0 -30 -21.5 -51t-51.5 -21zM121 -8q-29 0 -50.5 21t-21.5 52q0 30 21 50.5t51 20.5t51.5 -20.5t21.5 -50.5q0 -31 -21.5 -52t-51.5 -21z" />
    <glyph glyph-name="semicolon" unicode=";" horiz-adv-x="244" 
d="M122 353q-30 0 -51 21t-21 51q0 31 21 51.5t51 20.5t51.5 -20.5t21.5 -51.5q0 -30 -21.5 -51t-51.5 -21zM184 118v-37q0 -94 -76 -195h-65q21 92 21 188v44h120z" />
    <glyph glyph-name="less" unicode="&#x3c;" horiz-adv-x="570" 
d="M501 525v-99l-310 -89l310 -89v-99l-432 141v98z" />
    <glyph glyph-name="equal" unicode="=" horiz-adv-x="570" 
d="M69 458h432v-93h-432v93zM69 283h432v-93h-432v93z" />
    <glyph glyph-name="greater" unicode="&#x3e;" horiz-adv-x="570" 
d="M69 525l432 -137v-98l-432 -141v99l310 89l-310 89v99z" />
    <glyph glyph-name="question" unicode="?" horiz-adv-x="416" 
d="M161 206q122 200 122 293q0 43 -19.5 66t-55.5 23q-74 0 -81 -95h-104v13q0 78 49.5 131.5t137.5 53.5q89 0 138 -50.5t49 -126.5q0 -125 -129 -308h-107zM211 -8q-30 0 -51.5 21t-21.5 52q0 30 21.5 50.5t51.5 20.5t51 -20.5t21 -50.5q0 -31 -21.5 -52t-50.5 -21z" />
    <glyph glyph-name="at" unicode="@" horiz-adv-x="863" 
d="M514 445h86v-252q0 -79 53 -79q75 0 75 169q0 129 -82.5 207.5t-212.5 78.5q-132 0 -214 -86t-82 -232q0 -145 86 -229.5t216 -84.5q104 0 177 47l44 -64q-50 -35 -101.5 -48t-121.5 -13q-167 0 -277.5 109.5t-110.5 282.5q0 177 108.5 286.5t276.5 109.5
q167 0 273.5 -102.5t106.5 -261.5q0 -115 -43 -177t-121 -62q-42 0 -74 19t-44 55q-13 -35 -46 -54.5t-73 -19.5q-74 0 -123 54.5t-49 150.5q0 94 47 149.5t114 55.5q84 0 112 -60v51zM422 122q42 0 64.5 33.5t22.5 93.5q0 62 -22.5 94.5t-63.5 32.5t-65 -33t-24 -94
q0 -62 24 -94.5t64 -32.5z" />
    <glyph glyph-name="A" unicode="A" horiz-adv-x="635" 
d="M497 0q-15 61 -43 161h-274q-26 -86 -44 -161h-115q44 161 106 352t111 307q5 12 12 16.5t24 4.5h88q27 0 37 -21q91 -205 215 -659h-117zM210 263h214q-57 192 -106 321q-50 -134 -108 -321z" />
    <glyph glyph-name="B" unicode="B" horiz-adv-x="631" 
d="M473 359q52 -18 84.5 -60.5t32.5 -104.5q0 -93 -62.5 -143.5t-169.5 -50.5h-278v680h280q93 0 148 -47.5t55 -128.5q0 -54 -25.5 -91.5t-64.5 -53.5zM197 587v-190h138q55 0 84.5 26t29.5 72q0 92 -114 92h-138zM337 93q70 0 103.5 25.5t33.5 80.5q0 52 -35.5 79
t-101.5 27h-140v-212h140z" />
    <glyph glyph-name="C" unicode="C" horiz-adv-x="601" 
d="M316 -12q-118 0 -192.5 80t-74.5 253v38q0 173 74.5 253t192.5 80q104 0 168.5 -53.5t75.5 -134.5l2 -16h-119q-32 100 -128 100q-148 0 -148 -232v-32q0 -232 148 -232q103 0 129 111h120l-2 -16q-12 -89 -76.5 -144t-169.5 -55z" />
    <glyph glyph-name="D" unicode="D" horiz-adv-x="634" 
d="M80 0v680h202q61 0 113 -16.5t96 -52.5t69 -101.5t25 -154.5v-30q0 -89 -25 -154t-69 -101t-96 -53t-113 -17h-202zM197 103h86q88 0 136 56t48 169v24q0 113 -48 169t-136 56h-86v-474z" />
    <glyph glyph-name="E" unicode="E" horiz-adv-x="575" 
d="M197 103h329v-103h-446v680h437v-103h-320v-180h297v-102h-297v-192z" />
    <glyph glyph-name="F" unicode="F" horiz-adv-x="565" 
d="M517 577h-320v-180h297v-102h-297v-295h-117v680h437v-103z" />
    <glyph glyph-name="G" unicode="G" horiz-adv-x="631" 
d="M323 -12q-120 0 -197 80.5t-77 252.5v38q0 172 77 252.5t197 80.5q107 0 172 -53.5t77 -128.5l2 -14h-121q-29 91 -129 91q-157 0 -157 -231v-32q0 -231 157 -231q140 0 140 157v21h-141v102h258v-104q0 -146 -71 -213.5t-187 -67.5z" />
    <glyph glyph-name="H" unicode="H" horiz-adv-x="685" 
d="M488 680h117v-680h-117v295h-291v-295h-117v680h117v-283h291v283z" />
    <glyph glyph-name="I" unicode="I" horiz-adv-x="285" 
d="M201 680v-680h-117v680h117z" />
    <glyph glyph-name="J" unicode="J" horiz-adv-x="417" 
d="M21 110q43 -14 91 -14q55 0 82 28t27 92v464h118v-478q0 -211 -203 -211q-69 0 -115 18v101z" />
    <glyph glyph-name="K" unicode="K" horiz-adv-x="630" 
d="M613 0h-125q-75 164 -180 315q-54 -54 -111 -106v-209h-117v680h117v-337q178 186 273 337h126q-73 -133 -208 -280q64 -94 131.5 -214.5t93.5 -185.5z" />
    <glyph glyph-name="L" unicode="L" horiz-adv-x="531" 
d="M197 103h305v-103h-422v680h117v-577z" />
    <glyph glyph-name="M" unicode="M" horiz-adv-x="789" 
d="M569 680h140v-680h-112v503q-86 -199 -162 -334q-11 -19 -30 -19h-21q-17 0 -28 19q-88 161 -164 335v-504h-112v680h139q86 -200 178 -381q100 198 172 381z" />
    <glyph glyph-name="N" unicode="N" horiz-adv-x="687" 
d="M495 680h112v-680h-104l-311 501v-501h-112v680h119l296 -476v476z" />
    <glyph glyph-name="O" unicode="O" horiz-adv-x="647" 
d="M324 -12q-122 0 -198.5 80.5t-76.5 252.5v38q0 172 76.5 252.5t198.5 80.5q121 0 197.5 -80.5t76.5 -252.5v-38q0 -172 -76.5 -252.5t-197.5 -80.5zM324 92q59 0 95.5 35t49 84t12.5 113v32q0 64 -12.5 113t-49 84t-95.5 35q-157 0 -157 -232v-32q0 -232 157 -232z" />
    <glyph glyph-name="P" unicode="P" horiz-adv-x="604" 
d="M342 680q99 0 163.5 -56.5t64.5 -158.5t-64.5 -158t-163.5 -56h-145v-251h-117v680h262zM325 351q60 0 94.5 29t34.5 85q0 57 -34.5 86t-94.5 29h-128v-229h128z" />
    <glyph glyph-name="Q" unicode="Q" horiz-adv-x="647" 
d="M598 321q0 -234 -146 -305q36 -22 98 -22q22 0 40 2v-86q-22 -6 -56 -6q-135 0 -190 84h-20q-122 0 -198.5 80.5t-76.5 252.5v38q0 172 76.5 252.5t198.5 80.5q121 0 197.5 -80.5t76.5 -252.5v-38zM481 324v32q0 64 -12.5 113t-49 84t-95.5 35q-157 0 -157 -232v-32
q0 -232 157 -232q59 0 95.5 35t49 84t12.5 113z" />
    <glyph glyph-name="R" unicode="R" horiz-adv-x="626" 
d="M597 0h-127q-77 153 -161 269h-112v-269h-117v680h269q99 0 159.5 -55t60.5 -149q0 -72 -38.5 -122.5t-101.5 -69.5q45 -62 95 -148t73 -136zM197 580v-210h138q57 0 87.5 28t30.5 78q0 49 -30.5 76.5t-87.5 27.5h-138z" />
    <glyph glyph-name="S" unicode="S" horiz-adv-x="575" 
d="M517 504h-120q-6 38 -37 62t-83 24q-51 0 -79.5 -24.5t-28.5 -61.5q0 -38 28.5 -58t93.5 -40l62 -18q88 -27 134 -70.5t46 -124.5q0 -93 -63.5 -148t-176.5 -55q-120 0 -186 55t-70 138l-1 21h119q5 -53 41.5 -84t98.5 -31q57 0 89 26t32 72q0 41 -26.5 62t-82.5 38
l-60 18q-104 32 -149 73.5t-45 119.5q0 83 61 137.5t167 54.5q109 0 169 -49.5t65 -119.5z" />
    <glyph glyph-name="T" unicode="T" horiz-adv-x="548" 
d="M522 680v-103h-189v-577h-118v577h-189v103h496z" />
    <glyph glyph-name="U" unicode="U" horiz-adv-x="661" 
d="M465 680h118v-458q0 -117 -68 -174t-185 -57t-184.5 57t-67.5 174v458h117v-446q0 -141 135 -141t135 141v446z" />
    <glyph glyph-name="V" unicode="V" horiz-adv-x="622" 
d="M481 680h120q-124 -450 -214 -659q-6 -12 -13 -16.5t-24 -4.5h-77q-29 0 -37 21q-48 114 -109 303.5t-106 355.5h123q81 -311 169 -555q89 250 168 555z" />
    <glyph glyph-name="W" unicode="W" horiz-adv-x="948" 
d="M800 680h119q-97 -445 -171 -659q-7 -21 -36 -21h-73q-17 0 -24.5 4.5t-10.5 16.5l-130 475l-128 -475q-7 -21 -36 -21h-73q-17 0 -24 4.5t-11 16.5q-40 121 -89.5 311.5t-82.5 347.5h122q49 -251 127 -526l140 526h114l143 -525q76 272 124 525z" />
    <glyph glyph-name="X" unicode="X" horiz-adv-x="602" 
d="M576 0h-125q-82 164 -152 274q-65 -106 -151 -274h-123q85 172 201 357q-102 152 -191 323h125q67 -130 141 -240q74 110 141 240h122q-83 -162 -190 -322q108 -167 202 -358z" />
    <glyph glyph-name="Y" unicode="Y" horiz-adv-x="588" 
d="M570 680q-79 -193 -217 -424v-256h-117v256q-140 234 -218 424h121q65 -155 157 -314q89 156 155 314h119z" />
    <glyph glyph-name="Z" unicode="Z" horiz-adv-x="576" 
d="M183 103h356v-103h-498v90l351 487h-337v103h481v-89z" />
    <glyph glyph-name="bracketleft" unicode="[" horiz-adv-x="333" 
d="M297 680v-71h-117v-689h117v-71h-218v831h218z" />
    <glyph glyph-name="backslash" unicode="\" horiz-adv-x="429" 
d="M15 700h115l284 -720h-114z" />
    <glyph glyph-name="bracketright" unicode="]" horiz-adv-x="333" 
d="M36 680h218v-831h-218v71h117v689h-117v71z" />
    <glyph glyph-name="asciicircum" unicode="^" horiz-adv-x="570" 
d="M528 264h-109l-134 295l-136 -295h-106l191 416h102z" />
    <glyph glyph-name="underscore" unicode="_" horiz-adv-x="502" 
d="M-5 -89h512v-82h-512v82z" />
    <glyph glyph-name="grave" unicode="`" horiz-adv-x="254" 
d="M34 682h119q39 -53 67 -122h-92q-52 75 -94 122z" />
    <glyph glyph-name="a" unicode="a" horiz-adv-x="511" 
d="M439 138q0 -32 9 -43t32 -11v-83q-16 -6 -40 -6q-76 0 -94 63q-41 -67 -141 -67q-77 0 -120.5 37.5t-43.5 102.5q0 80 69 125t220 61v10q0 82 -82 82q-74 0 -87 -65h-105q4 69 55.5 112.5t136.5 43.5q89 0 140 -43t51 -128v-191zM229 77q45 0 73 23.5t28 64.5v76
q-90 -13 -135.5 -37t-45.5 -66q0 -29 21 -45t59 -16z" />
    <glyph glyph-name="b" unicode="b" horiz-adv-x="551" 
d="M319 499q87 0 139.5 -63t52.5 -180v-22q0 -117 -52.5 -180t-139.5 -63q-98 0 -144 75v-66h-104v700h110v-268q46 67 138 67zM401 234v22q0 64 -25.5 105.5t-84.5 41.5q-57 0 -83.5 -40.5t-26.5 -100.5v-34q0 -59 26.5 -100t83.5 -41q59 0 84.5 42t25.5 105z" />
    <glyph glyph-name="c" unicode="c" horiz-adv-x="496" 
d="M463 176l-1 -13q-7 -79 -63.5 -125.5t-139.5 -46.5q-101 0 -160 62.5t-59 179.5v24q0 117 59 179.5t160 62.5q85 0 140 -44.5t61 -115.5l1 -12h-110q-18 76 -94 76q-57 0 -82 -41.5t-25 -104.5v-24q0 -63 24.5 -104.5t81.5 -41.5q84 0 99 89h108z" />
    <glyph glyph-name="d" unicode="d" horiz-adv-x="551" 
d="M371 700h110v-700h-105v66q-46 -75 -144 -75q-87 0 -139.5 63t-52.5 180v22q0 117 52.5 180t139.5 63q93 0 139 -67v268zM260 87q57 0 84 41t27 100v34q0 60 -27 100.5t-84 40.5q-59 0 -84.5 -41.5t-25.5 -105.5v-22q0 -63 25.5 -105t84.5 -42z" />
    <glyph glyph-name="e" unicode="e" horiz-adv-x="514" 
d="M475 221h-327q3 -60 29.5 -98t82.5 -38q78 0 99 65h111q-36 -159 -211 -159q-98 0 -158.5 63t-60.5 180v22q0 116 61.5 179.5t159.5 63.5t156 -60.5t58 -164.5v-53zM259 406q-93 0 -109 -108h219q-11 108 -110 108z" />
    <glyph glyph-name="f" unicode="f" horiz-adv-x="335" 
d="M309 605q-58 7 -79.5 -10.5t-21.5 -66.5v-38h96v-89h-96v-401h-110v401h-73v89h73v63q0 152 162 152q29 0 49 -5v-95z" />
    <glyph glyph-name="g" unicode="g" horiz-adv-x="539" 
d="M366 490h105v-478q0 -94 -57.5 -137.5t-150.5 -43.5q-95 0 -147 36t-59 99l-1 9h115q14 -60 93 -60q97 0 97 98v65q-42 -57 -127 -57q-86 0 -139 59.5t-53 170.5v18q0 111 53 170.5t139 59.5q89 0 132 -64v55zM258 117q55 0 79 38t24 95v20q0 58 -24 95.5t-79 37.5
q-57 0 -81.5 -38.5t-24.5 -96.5v-16q0 -58 24.5 -96.5t81.5 -38.5z" />
    <glyph glyph-name="h" unicode="h" horiz-adv-x="552" 
d="M317 499q76 0 122 -46.5t46 -126.5v-326h-110v301q0 47 -23 74.5t-70 27.5q-46 0 -73.5 -28.5t-27.5 -74.5v-300h-110v700h110v-270q43 69 136 69z" />
    <glyph glyph-name="i" unicode="i" horiz-adv-x="251" 
d="M126 564q-28 0 -47 18t-19 45q0 28 19 46t47 18t47 -18t19 -46q0 -27 -19.5 -45t-46.5 -18zM181 490v-490h-110v490h110z" />
    <glyph glyph-name="j" unicode="j" horiz-adv-x="251" 
d="M126 564q-28 0 -47 18t-19 45q0 28 19 46t47 18t47 -18t19 -46q0 -27 -19.5 -45t-46.5 -18zM5 -163v95q66 5 66 92v466h110v-470q0 -100 -44.5 -141.5t-131.5 -41.5z" />
    <glyph glyph-name="k" unicode="k" horiz-adv-x="505" 
d="M377 0q-50 109 -120 214q-28 -28 -80 -74v-140h-106v700h106v-442q113 117 181 232h115q-55 -100 -143 -200q105 -154 163 -290h-116z" />
    <glyph glyph-name="l" unicode="l" horiz-adv-x="266" 
d="M176 700v-547q0 -41 13.5 -55t48.5 -12v-85q-18 -8 -49 -8q-65 0 -94 31.5t-29 97.5v578h110z" />
    <glyph glyph-name="m" unicode="m" horiz-adv-x="824" 
d="M591 499q76 0 120.5 -47t44.5 -126v-326h-110v301q0 102 -84 102q-43 0 -68.5 -29t-25.5 -74v-300h-110v301q0 46 -20.5 74t-63.5 28t-68 -29t-25 -74v-300h-110v490h104v-68q39 77 134 77q97 0 138 -78q51 78 144 78z" />
    <glyph glyph-name="n" unicode="n" horiz-adv-x="552" 
d="M317 499q76 0 122 -46.5t46 -126.5v-326h-110v301q0 47 -23 74.5t-70 27.5q-46 0 -73.5 -28.5t-27.5 -74.5v-300h-110v490h104v-69q17 32 52.5 55t89.5 23z" />
    <glyph glyph-name="o" unicode="o" horiz-adv-x="521" 
d="M260 -9q-99 0 -159.5 63t-60.5 180v22q0 117 60.5 180t159.5 63t160 -63t61 -180v-22q0 -117 -61 -180t-160 -63zM260 87q59 0 85 42t26 105v22q0 63 -26 105t-85 42t-84.5 -41.5t-25.5 -105.5v-22q0 -63 25.5 -105t84.5 -42z" />
    <glyph glyph-name="p" unicode="p" horiz-adv-x="551" 
d="M319 499q87 0 139.5 -63t52.5 -180v-22q0 -117 -52.5 -180t-139.5 -63q-92 0 -138 67v-218h-110v650h104v-66q46 75 144 75zM401 234v22q0 63 -25.5 105t-84.5 42q-57 0 -83.5 -41t-26.5 -100v-34q0 -59 26.5 -100t83.5 -41q59 0 84.5 42t25.5 105z" />
    <glyph glyph-name="q" unicode="q" horiz-adv-x="551" 
d="M376 490h105v-650h-110v218q-46 -67 -139 -67q-87 0 -139.5 63t-52.5 180v22q0 117 52.5 180t139.5 63q98 0 144 -75v66zM260 87q57 0 84 41t27 100v34q0 59 -27 100t-84 41q-59 0 -84.5 -42t-25.5 -105v-22q0 -63 25.5 -105t84.5 -42z" />
    <glyph glyph-name="r" unicode="r" horiz-adv-x="372" 
d="M316 494q21 0 41 -4v-112q-20 3 -42 3q-64 0 -99 -40t-35 -119v-222h-110v490h104v-111q11 46 45.5 80.5t95.5 34.5z" />
    <glyph glyph-name="s" unicode="s" horiz-adv-x="466" 
d="M230 499q87 0 135.5 -35.5t53.5 -95.5l1 -11h-110q-4 25 -26.5 41.5t-57.5 16.5q-32 0 -50.5 -14t-18.5 -38t18.5 -37t61.5 -24l46 -13q79 -21 114 -55t35 -94q0 -68 -50.5 -108.5t-140.5 -40.5q-92 0 -145.5 40t-58.5 109l-1 14h110q2 -36 28 -57.5t68 -21.5q82 0 82 59
q0 27 -16.5 40t-59.5 26l-50 14q-74 21 -112.5 50t-38.5 90q0 62 47 103.5t136 41.5z" />
    <glyph glyph-name="t" unicode="t" horiz-adv-x="336" 
d="M241 -5q-77 0 -110.5 36.5t-33.5 110.5v259h-72v89h73v127h110v-127h96v-89h-96v-242q0 -36 14.5 -52.5t50.5 -16.5q7 0 31 2v-89q-27 -8 -63 -8z" />
    <glyph glyph-name="u" unicode="u" horiz-adv-x="543" 
d="M363 490h110v-490h-105v57q-42 -66 -133 -66q-76 0 -122 46.5t-46 125.5v327h110v-302q0 -46 22 -73.5t67 -27.5q44 0 70.5 28t26.5 73v302z" />
    <glyph glyph-name="v" unicode="v" horiz-adv-x="494" 
d="M362 490h110q-71 -271 -156 -471q-7 -19 -26 -19h-86q-12 0 -16.5 4t-9.5 15q-89 214 -155 471h114q41 -169 112 -370q71 201 113 370z" />
    <glyph glyph-name="w" unicode="w" horiz-adv-x="752" 
d="M616 490h109q-56 -257 -136 -471q-7 -19 -26 -19h-77q-20 0 -26 19l-83 303l-83 -303q-6 -19 -26 -19h-79q-19 0 -26 19q-80 214 -136 471h113q35 -170 92 -358l95 358h102l95 -357q57 191 92 357z" />
    <glyph glyph-name="x" unicode="x" horiz-adv-x="482" 
d="M463 0h-118q-47 95 -105 187q-58 -92 -105 -187h-116q61 121 146 253q-87 128 -141 237h119q55 -107 98 -172q43 67 97 172h117q-52 -106 -141 -234q86 -129 149 -256z" />
    <glyph glyph-name="y" unicode="y" horiz-adv-x="494" 
d="M363 490h108q-31 -146 -112 -352.5t-133 -297.5h-113q35 61 79 163q-51 107 -97.5 242.5t-71.5 244.5h113q35 -160 112 -359q71 184 115 359z" />
    <glyph glyph-name="z" unicode="z" horiz-adv-x="456" 
d="M169 94h255v-94h-391v82l251 314h-240v94h376v-83z" />
    <glyph glyph-name="braceleft" unicode="{" horiz-adv-x="365" 
d="M329 680v-71h-35q-34 0 -51 -11t-17 -42v-171q0 -99 -94 -119v-2q94 -19 94 -119v-175q0 -31 16.5 -40.5t51.5 -9.5h35v-71h-58q-75 0 -111 28.5t-36 110.5v140q0 50 -20 71t-61 21v90q41 0 61 21.5t20 72.5v137q0 83 35.5 111t111.5 28h58z" />
    <glyph glyph-name="bar" unicode="|" horiz-adv-x="336" 
d="M217 736v-815h-98v815h98z" />
    <glyph glyph-name="braceright" unicode="}" horiz-adv-x="359" 
d="M36 680h59q75 0 110.5 -28t35.5 -111v-137q0 -51 20.5 -72.5t61.5 -21.5v-90q-42 0 -62 -20.5t-20 -71.5v-140q0 -82 -35.5 -110.5t-110.5 -28.5h-59v71h36q35 0 51.5 9.5t16.5 40.5v175q0 101 94 119v2q-94 20 -94 119v171q0 31 -17 42t-51 11h-36v71z" />
    <glyph glyph-name="asciitilde" unicode="~" horiz-adv-x="570" 
d="M199 414q41 0 97 -32t77 -32q51 0 51 63h77q0 -65 -30 -108.5t-93 -43.5q-37 0 -91.5 32t-86.5 32q-26 0 -40 -18t-14 -45h-77q0 59 32 105.5t98 46.5z" />
    <glyph glyph-name="uni00A0" unicode="&#xa0;" horiz-adv-x="600" 
 />
    <glyph glyph-name="exclamdown" unicode="&#xa1;" horiz-adv-x="305" 
d="M153 497q29 0 50.5 -21t21.5 -51t-21 -51t-51 -21t-51.5 21t-21.5 51t21.5 51t51.5 21zM85 -191q5 256 26 471h83q21 -194 26 -471h-135z" />
    <glyph glyph-name="cent" unicode="&#xa2;" horiz-adv-x="560" 
d="M384 176h109l-1 -13q-6 -69 -50.5 -113.5t-113.5 -55.5v-74h-82v74q-82 13 -129 74t-47 165v24q0 103 47 164.5t129 74.5v74h82v-74q70 -10 113.5 -52.5t48.5 -104.5l1 -12h-110q-18 76 -94 76q-57 0 -82 -41.5t-25 -104.5v-24q0 -63 24.5 -104.5t81.5 -41.5q83 0 98 89z
" />
    <glyph glyph-name="sterling" unicode="&#xa3;" horiz-adv-x="560" 
d="M247 242q0 -82 -66 -142h325v-100h-455v84q47 37 67 75t20 90q0 17 -3 34h-69v84h51q-24 82 -24 124q0 85 56.5 142t154.5 57q93 0 148.5 -51.5t60.5 -129.5l1 -16h-114q-3 44 -28.5 70.5t-68.5 26.5t-69.5 -29t-26.5 -80q0 -36 20 -114h176v-84h-159q3 -19 3 -41z" />
    <glyph glyph-name="currency" unicode="&#xa4;" horiz-adv-x="560" 
d="M423 519l44 -44l-45 -44q30 -41 30 -99t-30 -99l45 -45l-44 -43l-45 46q-41 -25 -96 -25q-56 0 -100 27l-46 -48l-43 44l46 45q-28 40 -28 98t29 98l-48 46l44 43l46 -47q47 26 100 26q55 0 96 -25zM282 430q-42 0 -68 -26t-26 -72t26 -72t68 -26t67 26t25 72t-25 72
t-67 26z" />
    <glyph glyph-name="yen" unicode="&#xa5;" horiz-adv-x="560" 
d="M541 680q-50 -122 -133 -275h93v-67h-131q-4 -8 -32 -56v-10h163v-67h-163v-205h-114v205h-163v67h163v10l-32 56h-131v67h93q-77 139 -134 275h120q55 -133 143 -287q85 156 140 287h118z" />
    <glyph glyph-name="brokenbar" unicode="&#xa6;" horiz-adv-x="336" 
d="M119 402v334h98v-334h-98zM217 255v-334h-98v334h98z" />
    <glyph glyph-name="section" unicode="&#xa7;" horiz-adv-x="526" 
d="M485 258q0 -95 -91 -142q42 -39 42 -102t-46 -106t-124 -43q-86 0 -133 40t-50 98l-1 18h98q2 -35 23.5 -56t62.5 -21q35 0 56 18t21 46q0 17 -6 30t-21.5 24t-26 17t-37 17.5t-36.5 16.5q-94 45 -119 65q-61 46 -61 120q0 96 91 141q-43 41 -43 103q0 63 46 106t125 43
q85 0 132.5 -40.5t50.5 -98.5l1 -18h-99q-2 35 -23.5 56t-62.5 21q-35 0 -55.5 -18t-20.5 -46q0 -16 6 -29t21.5 -24t25.5 -17t36.5 -17.5t36.5 -16.5q94 -46 121 -66q60 -46 60 -119zM286 180q14 -7 40 -19q27 12 44.5 35t17.5 51q0 18 -7.5 34t-17 26.5t-28.5 21.5
t-31 16.5t-36.5 16t-33.5 14.5q-23 10 -40 19q-61 -29 -61 -86q0 -18 7.5 -34t16.5 -26.5t28.5 -22t30.5 -16.5t36.5 -16t33.5 -14z" />
    <glyph glyph-name="dieresis" unicode="&#xa8;" horiz-adv-x="382" 
d="M98 564q-27 0 -45.5 18t-18.5 45t18.5 44.5t45.5 17.5t45.5 -17.5t18.5 -44.5t-18.5 -45t-45.5 -18zM283 564q-27 0 -45.5 18t-18.5 45t18.5 44.5t45.5 17.5q28 0 46.5 -17.5t18.5 -44.5t-18.5 -45t-46.5 -18z" />
    <glyph glyph-name="copyright" unicode="&#xa9;" horiz-adv-x="805" 
d="M403 -11q-157 0 -255.5 98.5t-98.5 252.5t98.5 252.5t255.5 98.5q156 0 254.5 -98.5t98.5 -252.5t-98.5 -252.5t-254.5 -98.5zM403 50q125 0 203.5 80.5t78.5 209.5t-78.5 209.5t-203.5 80.5q-126 0 -204.5 -80.5t-78.5 -209.5t78.5 -209.5t204.5 -80.5zM402 139
q-73 0 -124 50.5t-51 134.5v32q0 87 51 136.5t125 49.5q68 0 114.5 -37t50.5 -88l1 -13h-79q-5 32 -27.5 51t-57.5 19q-48 0 -73.5 -34t-25.5 -89v-21q0 -56 25 -89.5t74 -33.5q75 0 85 75h79l-1 -13q-4 -54 -48.5 -92t-117.5 -38z" />
    <glyph glyph-name="guillemotleft" unicode="&#xab;" horiz-adv-x="618" 
d="M340 435l-174 -193l174 -194h-115l-172 194l172 193h115zM565 435l-174 -193l174 -194h-115l-172 194l172 193h115z" />
    <glyph glyph-name="logicalnot" unicode="&#xac;" horiz-adv-x="570" 
d="M501 370v-243h-96v151h-336v92h432z" />
    <glyph glyph-name="registered" unicode="&#xae;" horiz-adv-x="470" 
d="M235 759q88 0 144.5 -57t56.5 -144t-56.5 -144t-144.5 -57t-144 57t-56 144t56 144t144 57zM235 396q71 0 114 46t43 116t-43 116t-114 46t-113.5 -46t-42.5 -116t42.5 -116t113.5 -46zM320 604q0 -44 -45 -61q33 -49 50 -89h-46q-17 39 -46 85h-28v-85h-42v217h83
q31 0 52.5 -17t21.5 -50zM206 636v-63h33q39 0 39 31q0 32 -39 32h-33z" />
    <glyph glyph-name="macron" unicode="&#xaf;" horiz-adv-x="320" 
d="M34 656h252v-81h-252v81z" />
    <glyph glyph-name="degree" unicode="&#xb0;" horiz-adv-x="336" 
d="M168 428q-57 0 -95.5 37.5t-38.5 94.5t38.5 94.5t95.5 37.5t95.5 -37.5t38.5 -94.5t-38.5 -94.5t-95.5 -37.5zM168 491q30 0 49.5 19t19.5 50t-19.5 50t-49.5 19t-49.5 -19t-19.5 -50t19.5 -50t49.5 -19z" />
    <glyph glyph-name="plusminus" unicode="&#xb1;" horiz-adv-x="570" 
d="M332 439h169v-93h-169v-170h-94v170h-169v93h169v170h94v-170zM69 18v92h432v-92h-432z" />
    <glyph glyph-name="uni00B2" unicode="&#xb2;" horiz-adv-x="412" 
d="M187 380h170v-72h-297v61q14 10 47 33t48.5 35t40 33.5t36.5 38.5t21.5 40t9.5 47q0 27 -16 44.5t-43 17.5q-28 0 -45.5 -21t-19.5 -55h-85q2 68 42 107.5t108 39.5q67 0 106 -36.5t39 -96.5q0 -119 -162 -216z" />
    <glyph glyph-name="uni00B3" unicode="&#xb3;" horiz-adv-x="382" 
d="M276 523q29 -10 48 -35t19 -60q0 -58 -40 -93.5t-111 -35.5q-68 0 -108.5 33t-40.5 92h84q3 -24 19.5 -40t45.5 -16q30 0 47 16.5t17 45.5q0 58 -86 58v63q82 0 82 59q0 25 -15.5 39.5t-43.5 14.5q-27 0 -44 -17.5t-20 -40.5h-80q0 56 39.5 89.5t103.5 33.5
q68 0 105.5 -32t37.5 -83q0 -69 -59 -91z" />
    <glyph glyph-name="acute" unicode="&#xb4;" horiz-adv-x="254" 
d="M220 682q-36 -44 -91 -122h-95q28 69 67 122h119z" />
    <glyph glyph-name="paragraph" unicode="&#xb6;" horiz-adv-x="606" 
d="M526 680v-850h-67v784h-102v-784h-66v444h-42q-85 0 -142.5 53.5t-57.5 137.5v25q0 84 57.5 137t142.5 53h277z" />
    <glyph glyph-name="periodcentered" unicode="&#xb7;" horiz-adv-x="280" 
d="M140 262q-30 0 -51 21t-21 52q0 30 21 50.5t51 20.5t51.5 -20.5t21.5 -50.5q0 -31 -21.5 -52t-51.5 -21z" />
    <glyph glyph-name="cedilla" unicode="&#xb8;" horiz-adv-x="268" 
d="M147 -38q40 -2 64 -22t24 -56q0 -40 -28 -62t-75 -22q-61 0 -98 32l29 47q30 -22 66 -22q40 0 40 29q0 27 -45 27q-16 0 -33 -5l-18 23l37 78h60z" />
    <glyph glyph-name="uni00B9" unicode="&#xb9;" horiz-adv-x="330" 
d="M158 720h68v-414h-86v292q-46 -38 -98 -51v74q71 41 116 99z" />
    <glyph glyph-name="guillemotright" unicode="&#xbb;" horiz-adv-x="618" 
d="M53 435h115l172 -193l-172 -194h-115l174 194zM278 435h115l172 -193l-172 -194h-115l174 194z" />
    <glyph glyph-name="onequarter" unicode="&#xbc;" horiz-adv-x="909" 
d="M226 266h-86v292q-42 -35 -98 -51v74q71 41 116 99h68v-414zM591 680h90l-395 -680h-89zM875 157v-73h-47v-84h-85v84h-210v34q0 30 9 53q22 54 65.5 122t85.5 121h97q-112 -142 -164 -257h117v100h85v-100h47z" />
    <glyph glyph-name="onehalf" unicode="&#xbd;" horiz-adv-x="960" 
d="M226 266h-86v292q-42 -35 -98 -51v74q71 41 116 99h68v-414zM591 680h90l-395 -680h-89zM735 72h170v-72h-297v61q14 10 47 33t48.5 35t40 33.5t36.5 38.5t21.5 40t9.5 47q0 27 -16 44.5t-43 17.5q-28 0 -45.5 -21t-19.5 -55h-85q2 68 42 107.5t108 39.5q67 0 106 -36.5
t39 -96.5q0 -119 -162 -216z" />
    <glyph glyph-name="threequarters" unicode="&#xbe;" horiz-adv-x="964" 
d="M343 388q0 -58 -40 -93.5t-111 -35.5q-68 0 -108.5 33t-40.5 92h84q3 -24 19.5 -40t45.5 -16q30 0 47 16.5t17 45.5q0 58 -86 58v63q82 0 82 59q0 25 -15.5 39.5t-43.5 14.5q-27 0 -44 -17.5t-20 -40.5h-80q0 56 39.5 89.5t103.5 33.5q68 0 105.5 -32t37.5 -83
q0 -68 -59 -91q29 -10 48 -35t19 -60zM646 680h90l-395 -680h-89zM930 157v-73h-47v-84h-85v84h-210v34q0 30 9 53q22 54 65.5 122t85.5 121h97q-112 -142 -164 -257h117v100h85v-100h47z" />
    <glyph glyph-name="questiondown" unicode="&#xbf;" horiz-adv-x="386" 
d="M203 499q30 0 51.5 -21t21.5 -52q0 -30 -21.5 -50.5t-51.5 -20.5t-51.5 20.5t-21.5 50.5q0 31 21.5 52t51.5 21zM254 285q-122 -200 -122 -293q0 -43 19.5 -66t55.5 -23q74 0 82 95h104v-13q0 -78 -49.5 -131.5t-137.5 -53.5q-89 0 -138 50.5t-49 126.5q0 36 12 78.5
t23 70.5t36 70t30.5 50.5t26.5 38.5h107z" />
    <glyph glyph-name="Agrave" unicode="&#xc0;" horiz-adv-x="635" 
d="M368 740h-92q-52 75 -94 122h119q39 -53 67 -122zM497 0q-15 61 -43 161h-274q-26 -86 -44 -161h-115q44 161 106 352t111 307q5 12 12 16.5t24 4.5h88q27 0 37 -21q91 -205 215 -659h-117zM210 263h214q-57 192 -106 321q-50 -134 -108 -321z" />
    <glyph glyph-name="Aacute" unicode="&#xc1;" horiz-adv-x="635" 
d="M453 862q-36 -44 -91 -122h-95q28 69 67 122h119zM497 0q-15 61 -43 161h-274q-26 -86 -44 -161h-115q44 161 106 352t111 307q5 12 12 16.5t24 4.5h88q27 0 37 -21q91 -205 215 -659h-117zM210 263h214q-57 192 -106 321q-50 -134 -108 -321z" />
    <glyph glyph-name="Acircumflex" unicode="&#xc2;" horiz-adv-x="635" 
d="M319 817q-35 -40 -58 -77h-86q27 63 72 120h145q42 -52 72 -120h-87q-26 43 -58 77zM497 0q-15 61 -43 161h-274q-26 -86 -44 -161h-115q44 161 106 352t111 307q5 12 12 16.5t24 4.5h88q27 0 37 -21q91 -205 215 -659h-117zM210 263h214q-57 192 -106 321
q-50 -134 -108 -321z" />
    <glyph glyph-name="Atilde" unicode="&#xc3;" horiz-adv-x="635" 
d="M259 784q-33 0 -36 -44h-57q1 56 25 86t66 30q29 0 68 -22.5t55 -22.5q33 0 35 45h58q-3 -116 -87 -116q-32 0 -72 22t-55 22zM497 0q-15 61 -43 161h-274q-26 -86 -44 -161h-115q44 161 106 352t111 307q5 12 12 16.5t24 4.5h88q27 0 37 -21q91 -205 215 -659h-117z
M210 263h214q-57 192 -106 321q-50 -134 -108 -321z" />
    <glyph glyph-name="Adieresis" unicode="&#xc4;" horiz-adv-x="635" 
d="M227 744q-27 0 -45.5 18t-18.5 45t18.5 44.5t45.5 17.5t45.5 -17.5t18.5 -44.5t-18.5 -45t-45.5 -18zM412 744q-27 0 -45.5 18t-18.5 45t18.5 44.5t45.5 17.5q28 0 46.5 -17.5t18.5 -44.5t-18.5 -45t-46.5 -18zM497 0q-15 61 -43 161h-274q-26 -86 -44 -161h-115
q44 161 106 352t111 307q5 12 12 16.5t24 4.5h88q27 0 37 -21q91 -205 215 -659h-117zM210 263h214q-57 192 -106 321q-50 -134 -108 -321z" />
    <glyph glyph-name="Aring" unicode="&#xc5;" horiz-adv-x="635" 
d="M320 720q-48 0 -77.5 28t-29.5 71q0 44 29.5 71.5t77.5 27.5t77.5 -27.5t29.5 -71.5q0 -43 -30 -71t-77 -28zM320 870q-24 0 -37.5 -14.5t-13.5 -36.5t13.5 -36.5t37.5 -14.5t37.5 14.5t13.5 36.5t-13.5 36.5t-37.5 14.5zM497 0q-15 61 -43 161h-274q-26 -86 -44 -161
h-115q44 161 106 352t111 307q5 12 12 16.5t24 4.5h88q27 0 37 -21q91 -205 215 -659h-117zM210 263h214q-57 192 -106 321q-50 -134 -108 -321z" />
    <glyph glyph-name="AE" unicode="&#xc6;" horiz-adv-x="874" 
d="M496 103h328v-103h-445v161h-185q-32 -86 -58 -161h-115q41 128 129.5 338t148.5 320q5 9 8 12.5t10.5 6.5t18.5 3h479v-103h-319v-180h296v-102h-296v-192zM234 263h145v333q-67 -136 -145 -333z" />
    <glyph glyph-name="Ccedilla" unicode="&#xc7;" horiz-adv-x="601" 
d="M444 203h120l-2 -16q-12 -84 -70 -138t-152 -61l-13 -26q40 -2 63.5 -22t23.5 -56q0 -40 -28 -62t-74 -22q-61 0 -99 32l30 47q30 -22 66 -22q40 0 40 29q0 27 -46 27q-15 0 -33 -5l-18 23l28 59q-104 11 -167.5 91.5t-63.5 239.5v38q0 173 74.5 253t192.5 80
q103 0 168 -54t76 -134l2 -16h-119q-32 100 -128 100q-148 0 -148 -232v-32q0 -232 148 -232q101 0 129 111z" />
    <glyph glyph-name="Egrave" unicode="&#xc8;" horiz-adv-x="575" 
d="M352 740h-92q-52 75 -94 122h119q39 -53 67 -122zM197 103h329v-103h-446v680h437v-103h-320v-180h297v-102h-297v-192z" />
    <glyph glyph-name="Eacute" unicode="&#xc9;" horiz-adv-x="575" 
d="M436 862q-36 -44 -91 -122h-95q28 69 67 122h119zM197 103h329v-103h-446v680h437v-103h-320v-180h297v-102h-297v-192z" />
    <glyph glyph-name="Ecircumflex" unicode="&#xca;" horiz-adv-x="575" 
d="M303 817q-35 -40 -58 -77h-86q27 63 72 120h145q42 -52 72 -120h-87q-26 43 -58 77zM197 103h329v-103h-446v680h437v-103h-320v-180h297v-102h-297v-192z" />
    <glyph glyph-name="Edieresis" unicode="&#xcb;" horiz-adv-x="575" 
d="M211 744q-27 0 -45.5 18t-18.5 45t18.5 44.5t45.5 17.5t45.5 -17.5t18.5 -44.5t-18.5 -45t-45.5 -18zM396 744q-27 0 -45.5 18t-18.5 45t18.5 44.5t45.5 17.5q28 0 46.5 -17.5t18.5 -44.5t-18.5 -45t-46.5 -18zM197 103h329v-103h-446v680h437v-103h-320v-180h297v-102
h-297v-192z" />
    <glyph glyph-name="Igrave" unicode="&#xcc;" horiz-adv-x="285" 
d="M5 862h119q39 -53 67 -122h-92q-52 75 -94 122zM201 680v-680h-117v680h117z" />
    <glyph glyph-name="Iacute" unicode="&#xcd;" horiz-adv-x="285" 
d="M276 862q-36 -44 -91 -122h-95q28 69 67 122h119zM201 680v-680h-117v680h117z" />
    <glyph glyph-name="Icircumflex" unicode="&#xce;" horiz-adv-x="285" 
d="M142 817q-35 -40 -58 -77h-86q27 63 72 120h145q42 -52 72 -120h-87q-26 43 -58 77zM84 0v680h117v-680h-117z" />
    <glyph glyph-name="Idieresis" unicode="&#xcf;" horiz-adv-x="285" 
d="M50 744q-27 0 -45.5 18t-18.5 45t18.5 44.5t45.5 17.5t45.5 -17.5t18.5 -44.5t-18.5 -45t-45.5 -18zM235 744q-27 0 -45.5 18t-18.5 45t18.5 44.5t45.5 17.5q28 0 46.5 -17.5t18.5 -44.5t-18.5 -45t-46.5 -18zM201 680v-680h-117v680h117z" />
    <glyph glyph-name="Eth" unicode="&#xd0;" horiz-adv-x="646" 
d="M296 680q61 0 112.5 -16.5t95 -52.5t68.5 -101.5t25 -154.5v-30q0 -89 -25 -154t-68.5 -101t-95 -53t-112.5 -17h-204v304h-64v77h64v299h204zM479 328v24q0 113 -49 169t-138 56h-83v-196h119v-77h-119v-201h83q89 0 138 56t49 169z" />
    <glyph glyph-name="Ntilde" unicode="&#xd1;" horiz-adv-x="687" 
d="M290 784q-33 0 -36 -44h-57q1 56 25 86t66 30q28 0 67 -22.5t56 -22.5q33 0 35 45h58q-3 -116 -87 -116q-32 0 -72 22t-55 22zM495 680h112v-680h-104l-311 501v-501h-112v680h119l296 -476v476z" />
    <glyph glyph-name="Ograve" unicode="&#xd2;" horiz-adv-x="647" 
d="M186 862h119q39 -53 67 -122h-92q-52 75 -94 122zM324 -12q-122 0 -198.5 80.5t-76.5 252.5v38q0 172 76.5 252.5t198.5 80.5q121 0 197.5 -80.5t76.5 -252.5v-38q0 -172 -76.5 -252.5t-197.5 -80.5zM324 92q59 0 95.5 35t49 84t12.5 113v32q0 64 -12.5 113t-49 84
t-95.5 35q-157 0 -157 -232v-32q0 -232 157 -232z" />
    <glyph glyph-name="Oacute" unicode="&#xd3;" horiz-adv-x="647" 
d="M457 862q-36 -44 -91 -122h-95q28 69 67 122h119zM324 -12q-122 0 -198.5 80.5t-76.5 252.5v38q0 172 76.5 252.5t198.5 80.5q121 0 197.5 -80.5t76.5 -252.5v-38q0 -172 -76.5 -252.5t-197.5 -80.5zM324 92q59 0 95.5 35t49 84t12.5 113v32q0 64 -12.5 113t-49 84
t-95.5 35q-157 0 -157 -232v-32q0 -232 157 -232z" />
    <glyph glyph-name="Ocircumflex" unicode="&#xd4;" horiz-adv-x="647" 
d="M323 817q-35 -40 -58 -77h-86q27 63 72 120h145q42 -52 72 -120h-87q-26 43 -58 77zM324 692q121 0 197.5 -80.5t76.5 -252.5v-38q0 -172 -76.5 -252.5t-197.5 -80.5q-122 0 -198.5 80.5t-76.5 252.5v38q0 172 76.5 252.5t198.5 80.5zM481 324v32q0 64 -12.5 113t-49 84
t-95.5 35q-157 0 -157 -232v-32q0 -232 157 -232q59 0 95.5 35t49 84t12.5 113z" />
    <glyph glyph-name="Otilde" unicode="&#xd5;" horiz-adv-x="647" 
d="M477 856q-3 -116 -87 -116q-32 0 -72 22t-55 22q-33 0 -36 -44h-57q1 56 25 86t66 30q29 0 68 -22.5t55 -22.5q33 0 35 45h58zM324 -12q-122 0 -198.5 80.5t-76.5 252.5v38q0 172 76.5 252.5t198.5 80.5q121 0 197.5 -80.5t76.5 -252.5v-38q0 -172 -76.5 -252.5
t-197.5 -80.5zM324 92q59 0 95.5 35t49 84t12.5 113v32q0 64 -12.5 113t-49 84t-95.5 35q-157 0 -157 -232v-32q0 -232 157 -232z" />
    <glyph glyph-name="Odieresis" unicode="&#xd6;" horiz-adv-x="647" 
d="M231 744q-27 0 -45.5 18t-18.5 45t18.5 44.5t45.5 17.5t45.5 -17.5t18.5 -44.5t-18.5 -45t-45.5 -18zM416 744q-27 0 -45.5 18t-18.5 45t18.5 44.5t45.5 17.5q28 0 46.5 -17.5t18.5 -44.5t-18.5 -45t-46.5 -18zM324 -12q-122 0 -198.5 80.5t-76.5 252.5v38
q0 172 76.5 252.5t198.5 80.5q121 0 197.5 -80.5t76.5 -252.5v-38q0 -172 -76.5 -252.5t-197.5 -80.5zM324 92q59 0 95.5 35t49 84t12.5 113v32q0 64 -12.5 113t-49 84t-95.5 35q-157 0 -157 -232v-32q0 -232 157 -232z" />
    <glyph glyph-name="multiply" unicode="&#xd7;" horiz-adv-x="570" 
d="M501 475l-150 -151l150 -150l-65 -66l-151 150l-150 -150l-66 66l150 150l-150 151l66 65l150 -150l151 150z" />
    <glyph glyph-name="Oslash" unicode="&#xd8;" horiz-adv-x="645" 
d="M509 623q87 -87 87 -264v-38q0 -172 -76.5 -252.5t-197.5 -80.5q-72 0 -126 27l-24 -47l-66 32l29 58q-86 86 -86 263v38q0 172 76.5 252.5t196.5 80.5q72 0 125 -26l24 46l67 -32zM167 324q0 -94 27 -152l204 397q-33 19 -76 19q-155 0 -155 -232v-32zM478 324v32
q0 96 -28 152l-204 -396q31 -20 76 -20q44 0 76 19t48.5 53.5t24 73.5t7.5 86z" />
    <glyph glyph-name="Ugrave" unicode="&#xd9;" horiz-adv-x="661" 
d="M193 862h119q39 -53 67 -122h-92q-52 75 -94 122zM465 680h118v-458q0 -117 -68 -174t-185 -57t-184.5 57t-67.5 174v458h117v-446q0 -141 135 -141t135 141v446z" />
    <glyph glyph-name="Uacute" unicode="&#xda;" horiz-adv-x="661" 
d="M463 862q-36 -44 -91 -122h-95q28 69 67 122h119zM465 680h118v-458q0 -117 -68 -174t-185 -57t-184.5 57t-67.5 174v458h117v-446q0 -141 135 -141t135 141v446z" />
    <glyph glyph-name="Ucircumflex" unicode="&#xdb;" horiz-adv-x="661" 
d="M330 817q-35 -40 -58 -77h-86q27 63 72 120h145q42 -52 72 -120h-87q-26 43 -58 77zM465 680h118v-458q0 -117 -68 -174t-185 -57t-184.5 57t-67.5 174v458h117v-446q0 -141 135 -141t135 141v446z" />
    <glyph glyph-name="Udieresis" unicode="&#xdc;" horiz-adv-x="661" 
d="M238 744q-27 0 -45.5 18t-18.5 45t18.5 44.5t45.5 17.5t45.5 -17.5t18.5 -44.5t-18.5 -45t-45.5 -18zM423 744q-27 0 -45.5 18t-18.5 45t18.5 44.5t45.5 17.5q28 0 46.5 -17.5t18.5 -44.5t-18.5 -45t-46.5 -18zM465 680h118v-458q0 -117 -68 -174t-185 -57t-184.5 57
t-67.5 174v458h117v-446q0 -141 135 -141t135 141v446z" />
    <glyph glyph-name="Yacute" unicode="&#xdd;" horiz-adv-x="588" 
d="M426 862q-36 -44 -91 -122h-95q28 69 67 122h119zM570 680q-79 -193 -217 -424v-256h-117v256q-140 234 -218 424h121q65 -155 157 -314q89 156 155 314h119z" />
    <glyph glyph-name="Thorn" unicode="&#xde;" horiz-adv-x="589" 
d="M329 567q99 0 162.5 -55.5t63.5 -157.5t-63.5 -158t-162.5 -56h-132v-140h-117v680h117v-113h132zM313 241q60 0 93 28.5t33 84.5t-33 84t-93 28h-116v-225h116z" />
    <glyph glyph-name="germandbls" unicode="&#xdf;" horiz-adv-x="550" 
d="M394 377q54 -17 86 -61t32 -112q0 -99 -59 -154t-156 -55q-34 0 -67 5v98q24 -7 57 -7q51 0 83 29.5t32 85.5q0 116 -150 116v92q120 0 120 104q0 42 -26 67t-71 25q-47 0 -70.5 -28.5t-23.5 -76.5v-505h-110v505q0 91 55 146t149 55t150.5 -49.5t56.5 -132.5
q0 -55 -25 -93t-63 -54z" />
    <glyph glyph-name="agrave" unicode="&#xe0;" horiz-adv-x="511" 
d="M301 560h-92q-52 75 -94 122h119q39 -53 67 -122zM439 138q0 -32 9 -43t32 -11v-83q-16 -6 -40 -6q-76 0 -94 63q-41 -67 -141 -67q-77 0 -120.5 37.5t-43.5 102.5q0 80 69 125t220 61v10q0 82 -82 82q-74 0 -87 -65h-105q4 69 55.5 112.5t136.5 43.5q89 0 140 -43
t51 -128v-191zM229 77q45 0 73 23.5t28 64.5v76q-90 -13 -135.5 -37t-45.5 -66q0 -29 21 -45t59 -16z" />
    <glyph glyph-name="aacute" unicode="&#xe1;" horiz-adv-x="511" 
d="M386 682q-36 -44 -91 -122h-95q28 69 67 122h119zM439 138q0 -32 9 -43t32 -11v-83q-16 -6 -40 -6q-76 0 -94 63q-41 -67 -141 -67q-77 0 -120.5 37.5t-43.5 102.5q0 80 69 125t220 61v10q0 82 -82 82q-74 0 -87 -65h-105q4 69 55.5 112.5t136.5 43.5q89 0 140 -43
t51 -128v-191zM229 77q45 0 73 23.5t28 64.5v76q-90 -13 -135.5 -37t-45.5 -66q0 -29 21 -45t59 -16z" />
    <glyph glyph-name="acircumflex" unicode="&#xe2;" horiz-adv-x="511" 
d="M252 637q-35 -40 -58 -77h-86q27 63 72 120h145q42 -52 72 -120h-87q-26 43 -58 77zM439 138q0 -32 9 -43t32 -11v-83q-16 -6 -40 -6q-76 0 -94 63q-41 -67 -141 -67q-77 0 -120.5 37.5t-43.5 102.5q0 80 69 125t220 61v10q0 82 -82 82q-74 0 -87 -65h-105
q4 69 55.5 112.5t136.5 43.5q89 0 140 -43t51 -128v-191zM229 77q45 0 73 23.5t28 64.5v76q-90 -13 -135.5 -37t-45.5 -66q0 -29 21 -45t59 -16z" />
    <glyph glyph-name="atilde" unicode="&#xe3;" horiz-adv-x="511" 
d="M192 604q-33 0 -36 -44h-57q1 56 25 86t66 30q28 0 67 -22.5t56 -22.5q33 0 35 45h58q-3 -116 -87 -116q-32 0 -72 22t-55 22zM439 138q0 -32 9 -43t32 -11v-83q-16 -6 -40 -6q-76 0 -94 63q-41 -67 -141 -67q-77 0 -120.5 37.5t-43.5 102.5q0 80 69 125t220 61v10
q0 82 -82 82q-74 0 -87 -65h-105q4 69 55.5 112.5t136.5 43.5q89 0 140 -43t51 -128v-191zM229 77q45 0 73 23.5t28 64.5v76q-90 -13 -135.5 -37t-45.5 -66q0 -29 21 -45t59 -16z" />
    <glyph glyph-name="adieresis" unicode="&#xe4;" horiz-adv-x="511" 
d="M160 564q-27 0 -45.5 18t-18.5 45t18.5 44.5t45.5 17.5t45.5 -17.5t18.5 -44.5t-18.5 -45t-45.5 -18zM345 564q-27 0 -45.5 18t-18.5 45t18.5 44.5t45.5 17.5q28 0 46.5 -17.5t18.5 -44.5t-18.5 -45t-46.5 -18zM439 138q0 -32 9 -43t32 -11v-83q-16 -6 -40 -6
q-76 0 -94 63q-41 -67 -141 -67q-77 0 -120.5 37.5t-43.5 102.5q0 80 69 125t220 61v10q0 82 -82 82q-74 0 -87 -65h-105q4 69 55.5 112.5t136.5 43.5q89 0 140 -43t51 -128v-191zM229 77q45 0 73 23.5t28 64.5v76q-90 -13 -135.5 -37t-45.5 -66q0 -29 21 -45t59 -16z" />
    <glyph glyph-name="aring" unicode="&#xe5;" horiz-adv-x="511" 
d="M253 540q-48 0 -77.5 28t-29.5 71q0 44 29.5 71.5t77.5 27.5t77.5 -27.5t29.5 -71.5q0 -43 -30 -71t-77 -28zM253 690q-24 0 -37.5 -14.5t-13.5 -36.5t13.5 -36.5t37.5 -14.5t37.5 14.5t13.5 36.5t-13.5 36.5t-37.5 14.5zM439 138q0 -32 9 -43t32 -11v-83q-16 -6 -40 -6
q-76 0 -94 63q-41 -67 -141 -67q-77 0 -120.5 37.5t-43.5 102.5q0 80 69 125t220 61v10q0 82 -82 82q-74 0 -87 -65h-105q4 69 55.5 112.5t136.5 43.5q89 0 140 -43t51 -128v-191zM229 77q45 0 73 23.5t28 64.5v76q-90 -13 -135.5 -37t-45.5 -66q0 -29 21 -45t59 -16z" />
    <glyph glyph-name="ae" unicode="&#xe6;" horiz-adv-x="805" 
d="M766 221h-329q2 -59 28.5 -97.5t83.5 -38.5q78 0 101 65h111q-35 -159 -212 -159q-115 0 -173 84q-44 -84 -162 -84q-82 0 -127.5 37t-45.5 102q0 79 65.5 120.5t221.5 50.5v27q0 81 -83 81q-76 0 -85 -65h-104q3 71 52.5 113.5t135.5 42.5q106 0 153 -60q57 59 153 59
q99 0 157.5 -60.5t58.5 -164.5v-53zM549 406q-95 0 -110 -108h221q-11 108 -111 108zM228 77q44 0 72 23t28 65v63q-179 -13 -179 -90q0 -29 20.5 -45t58.5 -16z" />
    <glyph glyph-name="ccedilla" unicode="&#xe7;" horiz-adv-x="496" 
d="M355 176h108l-1 -13q-6 -74 -55.5 -119.5t-125.5 -51.5l-15 -30q40 -2 63.5 -22t23.5 -56q0 -40 -28 -62t-74 -22q-61 0 -98 32l29 47q30 -22 66 -22q40 0 40 29q0 27 -45 27q-18 0 -33 -5l-19 23l30 62q-85 12 -133 73t-48 167v24q0 117 59 179.5t160 62.5
q85 0 140 -44.5t61 -115.5l1 -12h-110q-18 76 -94 76q-57 0 -82 -41.5t-25 -104.5v-24q0 -63 24.5 -104.5t81.5 -41.5q84 0 99 89z" />
    <glyph glyph-name="egrave" unicode="&#xe8;" horiz-adv-x="514" 
d="M311 560h-92q-52 75 -94 122h119q39 -53 67 -122zM475 221h-327q3 -60 29.5 -98t82.5 -38q78 0 99 65h111q-36 -159 -211 -159q-98 0 -158.5 63t-60.5 180v22q0 116 61.5 179.5t159.5 63.5t156 -60.5t58 -164.5v-53zM259 406q-93 0 -109 -108h219q-11 108 -110 108z" />
    <glyph glyph-name="eacute" unicode="&#xe9;" horiz-adv-x="514" 
d="M396 682q-36 -44 -91 -122h-95q28 69 67 122h119zM475 221h-327q3 -60 29.5 -98t82.5 -38q78 0 99 65h111q-36 -159 -211 -159q-98 0 -158.5 63t-60.5 180v22q0 116 61.5 179.5t159.5 63.5t156 -60.5t58 -164.5v-53zM259 406q-93 0 -109 -108h219q-11 108 -110 108z" />
    <glyph glyph-name="ecircumflex" unicode="&#xea;" horiz-adv-x="514" 
d="M262 637q-35 -40 -58 -77h-86q27 63 72 120h145q42 -52 72 -120h-87q-26 43 -58 77zM475 221h-327q3 -60 29.5 -98t82.5 -38q78 0 99 65h111q-36 -159 -211 -159q-98 0 -158.5 63t-60.5 180v22q0 116 61.5 179.5t159.5 63.5t156 -60.5t58 -164.5v-53zM259 406
q-93 0 -109 -108h219q-11 108 -110 108z" />
    <glyph glyph-name="edieresis" unicode="&#xeb;" horiz-adv-x="514" 
d="M170 564q-27 0 -45.5 18t-18.5 45t18.5 44.5t45.5 17.5t45.5 -17.5t18.5 -44.5t-18.5 -45t-45.5 -18zM355 564q-27 0 -45.5 18t-18.5 45t18.5 44.5t45.5 17.5q28 0 46.5 -17.5t18.5 -44.5t-18.5 -45t-46.5 -18zM475 221h-327q3 -60 29.5 -98t82.5 -38q78 0 99 65h111
q-36 -159 -211 -159q-98 0 -158.5 63t-60.5 180v22q0 116 61.5 179.5t159.5 63.5t156 -60.5t58 -164.5v-53zM259 406q-93 0 -109 -108h219q-11 108 -110 108z" />
    <glyph glyph-name="igrave" unicode="&#xec;" horiz-adv-x="251" 
d="M-12 682h119q39 -53 67 -122h-92q-52 75 -94 122zM181 490v-490h-110v490h110z" />
    <glyph glyph-name="iacute" unicode="&#xed;" horiz-adv-x="251" 
d="M259 682q-36 -44 -91 -122h-95q28 69 67 122h119zM181 490v-490h-110v490h110z" />
    <glyph glyph-name="icircumflex" unicode="&#xee;" horiz-adv-x="251" 
d="M198 680q42 -52 72 -120h-87q-26 43 -58 77q-35 -40 -58 -77h-86q27 63 72 120h145zM71 0v490h110v-490h-110z" />
    <glyph glyph-name="idieresis" unicode="&#xef;" horiz-adv-x="251" 
d="M33 564q-27 0 -45.5 18t-18.5 45t18.5 44.5t45.5 17.5t45.5 -17.5t18.5 -44.5t-18.5 -45t-45.5 -18zM218 564q-27 0 -45.5 18t-18.5 45t18.5 44.5t45.5 17.5q28 0 46.5 -17.5t18.5 -44.5t-18.5 -45t-46.5 -18zM181 490v-490h-110v490h110z" />
    <glyph glyph-name="eth" unicode="&#xf0;" horiz-adv-x="521" 
d="M386 585q95 -138 95 -307v-41q0 -118 -61 -182t-160 -64t-159.5 63t-60.5 180v18q0 115 57.5 179t144.5 64q61 0 96 -33q-17 42 -53 96l-114 -31l-17 62l86 23q-47 53 -98 88h134q34 -23 68 -60l92 25l17 -62zM371 234v18q0 63 -26 105t-85 42q-58 0 -84 -42t-26 -105
v-18q0 -63 26 -105t84 -42q59 0 85 42t26 105z" />
    <glyph glyph-name="ntilde" unicode="&#xf1;" horiz-adv-x="552" 
d="M225 604q-33 0 -36 -44h-57q1 56 25 86t66 30q29 0 68 -22.5t55 -22.5q33 0 35 45h58q-3 -116 -87 -116q-32 0 -72 22t-55 22zM317 499q76 0 122 -46.5t46 -126.5v-326h-110v301q0 47 -23 74.5t-70 27.5q-46 0 -73.5 -28.5t-27.5 -74.5v-300h-110v490h104v-69
q17 32 52.5 55t89.5 23z" />
    <glyph glyph-name="ograve" unicode="&#xf2;" horiz-adv-x="521" 
d="M123 682h119q39 -53 67 -122h-92q-52 75 -94 122zM260 -9q-99 0 -159.5 63t-60.5 180v22q0 117 60.5 180t159.5 63t160 -63t61 -180v-22q0 -117 -61 -180t-160 -63zM260 87q59 0 85 42t26 105v22q0 63 -26 105t-85 42t-84.5 -41.5t-25.5 -105.5v-22q0 -63 25.5 -105
t84.5 -42z" />
    <glyph glyph-name="oacute" unicode="&#xf3;" horiz-adv-x="521" 
d="M393 682q-36 -44 -91 -122h-95q28 69 67 122h119zM260 -9q-99 0 -159.5 63t-60.5 180v22q0 117 60.5 180t159.5 63t160 -63t61 -180v-22q0 -117 -61 -180t-160 -63zM260 87q59 0 85 42t26 105v22q0 63 -26 105t-85 42t-84.5 -41.5t-25.5 -105.5v-22q0 -63 25.5 -105
t84.5 -42z" />
    <glyph glyph-name="ocircumflex" unicode="&#xf4;" horiz-adv-x="521" 
d="M260 637q-35 -40 -58 -77h-86q27 63 72 120h145q42 -52 72 -120h-87q-26 43 -58 77zM260 499q99 0 160 -63t61 -180v-22q0 -117 -61 -180t-160 -63t-159.5 63t-60.5 180v22q0 117 60.5 180t159.5 63zM371 234v22q0 63 -26 105t-85 42t-84.5 -41.5t-25.5 -105.5v-22
q0 -63 25.5 -105t84.5 -42t85 42t26 105z" />
    <glyph glyph-name="otilde" unicode="&#xf5;" horiz-adv-x="521" 
d="M414 676q-3 -116 -87 -116q-32 0 -72 22t-55 22q-33 0 -36 -44h-57q1 56 25 86t66 30q28 0 67 -22.5t56 -22.5q33 0 35 45h58zM260 -9q-99 0 -159.5 63t-60.5 180v22q0 117 60.5 180t159.5 63t160 -63t61 -180v-22q0 -117 -61 -180t-160 -63zM260 87q59 0 85 42t26 105
v22q0 63 -26 105t-85 42t-84.5 -41.5t-25.5 -105.5v-22q0 -63 25.5 -105t84.5 -42z" />
    <glyph glyph-name="odieresis" unicode="&#xf6;" horiz-adv-x="521" 
d="M168 564q-27 0 -45.5 18t-18.5 45t18.5 44.5t45.5 17.5t45.5 -17.5t18.5 -44.5t-18.5 -45t-45.5 -18zM353 564q-27 0 -45.5 18t-18.5 45t18.5 44.5t45.5 17.5q28 0 46.5 -17.5t18.5 -44.5t-18.5 -45t-46.5 -18zM260 -9q-99 0 -159.5 63t-60.5 180v22q0 117 60.5 180
t159.5 63t160 -63t61 -180v-22q0 -117 -61 -180t-160 -63zM260 87q59 0 85 42t26 105v22q0 63 -26 105t-85 42t-84.5 -41.5t-25.5 -105.5v-22q0 -63 25.5 -105t84.5 -42z" />
    <glyph glyph-name="divide" unicode="&#xf7;" horiz-adv-x="570" 
d="M285 430q-30 0 -51.5 21t-21.5 52q0 30 21.5 50.5t51.5 20.5t51.5 -20.5t21.5 -50.5q0 -31 -21.5 -52t-51.5 -21zM69 370h432v-92h-432v92zM285 68q-30 0 -51.5 21t-21.5 52q0 30 21.5 50.5t51.5 20.5t51.5 -20.5t21.5 -50.5q0 -31 -21.5 -52t-51.5 -21z" />
    <glyph glyph-name="oslash" unicode="&#xf8;" horiz-adv-x="524" 
d="M403 454q81 -64 81 -198v-22q0 -117 -61 -180t-161 -63q-50 0 -90 15l-21 -41l-59 26l24 48q-76 66 -76 195v22q0 117 61 180t161 63q49 0 85 -14l19 37l59 -26zM149 233q0 -57 19 -94l134 261q-16 6 -40 6q-60 0 -86.5 -42.5t-26.5 -106.5v-24zM375 233v24q0 61 -22 100
l-136 -265q21 -8 45 -8q61 0 87 42.5t26 106.5z" />
    <glyph glyph-name="ugrave" unicode="&#xf9;" horiz-adv-x="543" 
d="M319 560h-92q-52 75 -94 122h119q39 -53 67 -122zM363 490h110v-490h-105v57q-42 -66 -133 -66q-76 0 -122 46.5t-46 125.5v327h110v-302q0 -46 22 -73.5t67 -27.5q44 0 70.5 28t26.5 73v302z" />
    <glyph glyph-name="uacute" unicode="&#xfa;" horiz-adv-x="543" 
d="M403 682q-36 -44 -91 -122h-95q28 69 67 122h119zM363 490h110v-490h-105v57q-42 -66 -133 -66q-76 0 -122 46.5t-46 125.5v327h110v-302q0 -46 22 -73.5t67 -27.5q44 0 70.5 28t26.5 73v302z" />
    <glyph glyph-name="ucircumflex" unicode="&#xfb;" horiz-adv-x="543" 
d="M269 637q-35 -40 -58 -77h-86q27 63 72 120h145q42 -52 72 -120h-87q-26 43 -58 77zM363 490h110v-490h-105v57q-42 -66 -133 -66q-76 0 -122 46.5t-46 125.5v327h110v-302q0 -46 22 -73.5t67 -27.5q44 0 70.5 28t26.5 73v302z" />
    <glyph glyph-name="udieresis" unicode="&#xfc;" horiz-adv-x="543" 
d="M177 564q-27 0 -45.5 18t-18.5 45t18.5 44.5t45.5 17.5t45.5 -17.5t18.5 -44.5t-18.5 -45t-45.5 -18zM362 564q-27 0 -45.5 18t-18.5 45t18.5 44.5t45.5 17.5q28 0 46.5 -17.5t18.5 -44.5t-18.5 -45t-46.5 -18zM363 490h110v-490h-105v57q-42 -66 -133 -66
q-76 0 -122 46.5t-46 125.5v327h110v-302q0 -46 22 -73.5t67 -27.5q44 0 70.5 28t26.5 73v302z" />
    <glyph glyph-name="yacute" unicode="&#xfd;" horiz-adv-x="494" 
d="M380 682q-36 -44 -91 -122h-95q28 69 67 122h119zM363 490h108q-31 -146 -112 -352.5t-133 -297.5h-113q35 61 79 163q-51 107 -97.5 242.5t-71.5 244.5h113q35 -160 112 -359q71 184 115 359z" />
    <glyph glyph-name="thorn" unicode="&#xfe;" horiz-adv-x="551" 
d="M319 499q87 0 139.5 -63t52.5 -180v-22q0 -117 -52.5 -180t-139.5 -63q-92 0 -138 67v-218h-110v864h110v-272q46 67 138 67zM401 234v22q0 63 -25.5 105t-84.5 42q-57 0 -83.5 -41t-26.5 -100v-34q0 -59 26.5 -100t83.5 -41q59 0 84.5 42t25.5 105z" />
    <glyph glyph-name="ydieresis" unicode="&#xff;" horiz-adv-x="494" 
d="M155 564q-27 0 -45.5 18t-18.5 45t18.5 44.5t45.5 17.5t45.5 -17.5t18.5 -44.5t-18.5 -45t-45.5 -18zM340 564q-27 0 -45.5 18t-18.5 45t18.5 44.5t45.5 17.5q28 0 46.5 -17.5t18.5 -44.5t-18.5 -45t-46.5 -18zM363 490h108q-31 -146 -112 -352.5t-133 -297.5h-113
q35 61 79 163q-51 107 -97.5 242.5t-71.5 244.5h113q35 -160 112 -359q71 184 115 359z" />
    <glyph glyph-name="Amacron" unicode="&#x100;" horiz-adv-x="635" 
d="M446 836v-81h-252v81h252zM497 0q-15 61 -43 161h-274q-26 -86 -44 -161h-115q44 161 106 352t111 307q5 12 12 16.5t24 4.5h88q27 0 37 -21q91 -205 215 -659h-117zM210 263h214q-57 192 -106 321q-50 -134 -108 -321z" />
    <glyph glyph-name="amacron" unicode="&#x101;" horiz-adv-x="511" 
d="M379 656v-81h-252v81h252zM439 138q0 -32 9 -43t32 -11v-83q-16 -6 -40 -6q-76 0 -94 63q-41 -67 -141 -67q-77 0 -120.5 37.5t-43.5 102.5q0 80 69 125t220 61v10q0 82 -82 82q-74 0 -87 -65h-105q4 69 55.5 112.5t136.5 43.5q89 0 140 -43t51 -128v-191zM229 77
q45 0 73 23.5t28 64.5v76q-90 -13 -135.5 -37t-45.5 -66q0 -29 21 -45t59 -16z" />
    <glyph glyph-name="Abreve" unicode="&#x102;" horiz-adv-x="635" 
d="M321 737q-62 0 -99 32.5t-37 90.5h78q0 -24 13.5 -42.5t44.5 -18.5t44.5 18.5t13.5 42.5h78q0 -57 -37.5 -90t-98.5 -33zM497 0q-15 61 -43 161h-274q-26 -86 -44 -161h-115q44 161 106 352t111 307q5 12 12 16.5t24 4.5h88q27 0 37 -21q91 -205 215 -659h-117zM210 263
h214q-57 192 -106 321q-50 -134 -108 -321z" />
    <glyph glyph-name="abreve" unicode="&#x103;" horiz-adv-x="511" 
d="M253 557q-62 0 -99 32.5t-37 90.5h78q0 -24 13.5 -42.5t44.5 -18.5t44.5 18.5t13.5 42.5h78q0 -57 -37.5 -90t-98.5 -33zM439 138q0 -32 9 -43t32 -11v-83q-16 -6 -40 -6q-76 0 -94 63q-41 -67 -141 -67q-77 0 -120.5 37.5t-43.5 102.5q0 80 69 125t220 61v10
q0 82 -82 82q-74 0 -87 -65h-105q4 69 55.5 112.5t136.5 43.5q89 0 140 -43t51 -128v-191zM229 77q45 0 73 23.5t28 64.5v76q-90 -13 -135.5 -37t-45.5 -66q0 -29 21 -45t59 -16z" />
    <glyph glyph-name="Aogonek" unicode="&#x104;" horiz-adv-x="635" 
d="M557 -72q0 -33 46 -33h8v-69q-13 -3 -34 -3q-48 0 -75 21.5t-27 60.5q0 57 59 95h-37q-15 61 -43 161h-274q-26 -86 -44 -161h-115q44 161 106 352t111 307q5 12 12 16.5t24 4.5h88q27 0 37 -21q91 -205 215 -659q-57 -32 -57 -72zM210 263h214q-57 192 -106 321
q-50 -134 -108 -321z" />
    <glyph glyph-name="aogonek" unicode="&#x105;" horiz-adv-x="510" 
d="M438 -177q-49 0 -76 21.5t-27 60.5q0 58 62 97q-40 13 -51 57q-40 -68 -142 -68q-77 0 -120 37.5t-43 102.5q0 79 68.5 124t220.5 63v9q0 82 -81 82q-74 0 -85 -65h-106q5 71 55 113.5t136 42.5q89 0 139.5 -43t50.5 -128v-187q0 -34 8.5 -46t30.5 -12v-83
q-61 -29 -61 -73q0 -33 46 -33h8v-69q-14 -3 -33 -3zM229 77q45 0 73 23.5t28 64.5v77q-92 -15 -136.5 -38.5t-44.5 -65.5q0 -29 21 -45t59 -16z" />
    <glyph glyph-name="Cacute" unicode="&#x106;" horiz-adv-x="601" 
d="M454 862q-36 -44 -91 -122h-95q28 69 67 122h119zM316 -12q-118 0 -192.5 80t-74.5 253v38q0 173 74.5 253t192.5 80q104 0 168.5 -53.5t75.5 -134.5l2 -16h-119q-32 100 -128 100q-148 0 -148 -232v-32q0 -232 148 -232q103 0 129 111h120l-2 -16q-12 -89 -76.5 -144
t-169.5 -55z" />
    <glyph glyph-name="cacute" unicode="&#x107;" horiz-adv-x="496" 
d="M397 682q-36 -44 -91 -122h-95q28 69 67 122h119zM463 176l-1 -13q-7 -79 -63.5 -125.5t-139.5 -46.5q-101 0 -160 62.5t-59 179.5v24q0 117 59 179.5t160 62.5q85 0 140 -44.5t61 -115.5l1 -12h-110q-18 76 -94 76q-57 0 -82 -41.5t-25 -104.5v-24q0 -63 24.5 -104.5
t81.5 -41.5q84 0 99 89h108z" />
    <glyph glyph-name="Cdotaccent" unicode="&#x10a;" horiz-adv-x="601" 
d="M322 744q-28 0 -47 18t-19 45q0 28 19 46t47 18t47 -18t19 -46q0 -27 -19.5 -45t-46.5 -18zM316 -12q-118 0 -192.5 80t-74.5 253v38q0 173 74.5 253t192.5 80q104 0 168.5 -53.5t75.5 -134.5l2 -16h-119q-32 100 -128 100q-148 0 -148 -232v-32q0 -232 148 -232
q103 0 129 111h120l-2 -16q-12 -89 -76.5 -144t-169.5 -55z" />
    <glyph glyph-name="cdotaccent" unicode="&#x10b;" horiz-adv-x="496" 
d="M264 564q-28 0 -47 18t-19 45q0 28 19 46t47 18t47 -18t19 -46q0 -27 -19.5 -45t-46.5 -18zM463 176l-1 -13q-7 -79 -63.5 -125.5t-139.5 -46.5q-101 0 -160 62.5t-59 179.5v24q0 117 59 179.5t160 62.5q85 0 140 -44.5t61 -115.5l1 -12h-110q-18 76 -94 76
q-57 0 -82 -41.5t-25 -104.5v-24q0 -63 24.5 -104.5t81.5 -41.5q84 0 99 89h108z" />
    <glyph glyph-name="Ccaron" unicode="&#x10c;" horiz-adv-x="601" 
d="M394 740h-145q-45 57 -72 120h86q21 -34 58 -76q33 36 58 76h87q-30 -68 -72 -120zM444 203h120l-2 -16q-12 -89 -76.5 -144t-169.5 -55q-118 0 -192.5 80t-74.5 253v38q0 173 74.5 253t192.5 80q104 0 168.5 -53.5t75.5 -134.5l2 -16h-119q-32 100 -128 100
q-148 0 -148 -232v-32q0 -232 148 -232q103 0 129 111z" />
    <glyph glyph-name="ccaron" unicode="&#x10d;" horiz-adv-x="496" 
d="M336 560h-145q-45 57 -72 120h86q21 -34 58 -76q33 36 58 76h87q-30 -68 -72 -120zM355 176h108l-1 -13q-7 -79 -63.5 -125.5t-139.5 -46.5q-101 0 -160 62.5t-59 179.5v24q0 117 59 179.5t160 62.5q85 0 140 -44.5t61 -115.5l1 -12h-110q-18 76 -94 76q-57 0 -82 -41.5
t-25 -104.5v-24q0 -63 24.5 -104.5t81.5 -41.5q84 0 99 89z" />
    <glyph glyph-name="Dcaron" unicode="&#x10e;" horiz-adv-x="634" 
d="M370 740h-145q-45 57 -72 120h86q21 -34 58 -76q33 36 58 76h87q-30 -68 -72 -120zM282 680q61 0 113 -16.5t96 -52.5t69 -101.5t25 -154.5v-30q0 -89 -25 -154t-69 -101t-96 -53t-113 -17h-202v680h202zM467 328v24q0 113 -48 169t-136 56h-86v-474h86q88 0 136 56
t48 169z" />
    <glyph glyph-name="dcaron" unicode="&#x10f;" horiz-adv-x="613" 
d="M371 432v268h110v-700h-105v66q-46 -75 -144 -75q-87 0 -139.5 63t-52.5 180v22q0 117 52.5 180t139.5 63q93 0 139 -67zM545 700h86q-3 -102 -55 -178h-50q19 95 19 178zM260 87q57 0 84 41t27 100v34q0 60 -27 100.5t-84 40.5q-59 0 -84.5 -41.5t-25.5 -105.5v-22
q0 -63 25.5 -105t84.5 -42z" />
    <glyph glyph-name="Dcroat" unicode="&#x110;" horiz-adv-x="646" 
d="M296 680q61 0 112.5 -16.5t95 -52.5t68.5 -101.5t25 -154.5v-30q0 -89 -25 -154t-68.5 -101t-95 -53t-112.5 -17h-204v304h-64v77h64v299h204zM479 328v24q0 113 -49 169t-138 56h-83v-196h119v-77h-119v-201h83q89 0 138 56t49 169z" />
    <glyph glyph-name="dcroat" unicode="&#x111;" horiz-adv-x="551" 
d="M542 623v-77h-61v-546h-105v66q-46 -75 -144 -75q-87 0 -139.5 63t-52.5 180v22q0 117 52.5 180t139.5 63q93 0 139 -67v114h-129v77h129v77h110v-77h61zM260 87q57 0 84 41t27 100v34q0 60 -27 100.5t-84 40.5q-59 0 -84.5 -41.5t-25.5 -105.5v-22q0 -63 25.5 -105
t84.5 -42z" />
    <glyph glyph-name="Emacron" unicode="&#x112;" horiz-adv-x="575" 
d="M429 836v-81h-252v81h252zM197 103h329v-103h-446v680h437v-103h-320v-180h297v-102h-297v-192z" />
    <glyph glyph-name="emacron" unicode="&#x113;" horiz-adv-x="514" 
d="M389 656v-81h-252v81h252zM475 221h-327q3 -60 29.5 -98t82.5 -38q78 0 99 65h111q-36 -159 -211 -159q-98 0 -158.5 63t-60.5 180v22q0 116 61.5 179.5t159.5 63.5t156 -60.5t58 -164.5v-53zM259 406q-93 0 -109 -108h219q-11 108 -110 108z" />
    <glyph glyph-name="Edotaccent" unicode="&#x116;" horiz-adv-x="575" 
d="M304 744q-28 0 -47 18t-19 45q0 28 19 46t47 18t47 -18t19 -46q0 -27 -19.5 -45t-46.5 -18zM197 103h329v-103h-446v680h437v-103h-320v-180h297v-102h-297v-192z" />
    <glyph glyph-name="edotaccent" unicode="&#x117;" horiz-adv-x="514" 
d="M263 564q-28 0 -47 18t-19 45q0 28 19 46t47 18t47 -18t19 -46q0 -27 -19.5 -45t-46.5 -18zM475 221h-327q3 -60 29.5 -98t82.5 -38q78 0 99 65h111q-36 -159 -211 -159q-98 0 -158.5 63t-60.5 180v22q0 116 61.5 179.5t159.5 63.5t156 -60.5t58 -164.5v-53zM259 406
q-93 0 -109 -108h219q-11 108 -110 108z" />
    <glyph glyph-name="Eogonek" unicode="&#x118;" horiz-adv-x="575" 
d="M526 0q-58 -33 -58 -71q0 -34 46 -34h9v-69q-13 -3 -34 -3q-49 0 -76 22t-27 61q0 56 59 94h-365v680h437v-103h-320v-180h297v-102h-297v-192h329v-103z" />
    <glyph glyph-name="eogonek" unicode="&#x119;" horiz-adv-x="514" 
d="M358 -177q-49 0 -76.5 21.5t-27.5 62.5q0 49 40 86q-22 -2 -35 -2q-98 0 -158.5 63t-60.5 180v22q0 116 61.5 179.5t159.5 63.5t156 -60.5t58 -164.5v-53h-326q2 -59 29 -97.5t82 -38.5q78 0 99 65h111q-15 -77 -74 -123q-60 -46 -60 -93q0 -39 45 -39h9v-69
q-14 -3 -32 -3zM150 298h219q-11 108 -110 108q-93 0 -109 -108z" />
    <glyph glyph-name="Ecaron" unicode="&#x11a;" horiz-adv-x="575" 
d="M376 740h-145q-45 57 -72 120h86q21 -34 58 -76q33 36 58 76h87q-30 -68 -72 -120zM197 103h329v-103h-446v680h437v-103h-320v-180h297v-102h-297v-192z" />
    <glyph glyph-name="ecaron" unicode="&#x11b;" horiz-adv-x="514" 
d="M335 560h-145q-45 57 -72 120h86q21 -34 58 -76q33 36 58 76h87q-30 -68 -72 -120zM475 221h-327q3 -60 29.5 -98t82.5 -38q78 0 99 65h111q-36 -159 -211 -159q-98 0 -158.5 63t-60.5 180v22q0 116 61.5 179.5t159.5 63.5t156 -60.5t58 -164.5v-53zM259 406
q-93 0 -109 -108h219q-11 108 -110 108z" />
    <glyph glyph-name="Gbreve" unicode="&#x11e;" horiz-adv-x="631" 
d="M328 737q61 0 98.5 33t37.5 90h-78q0 -24 -13.5 -42.5t-44.5 -18.5t-44.5 18.5t-13.5 42.5h-78q0 -58 37 -90.5t99 -32.5zM323 -12q-120 0 -197 80.5t-77 252.5v38q0 172 77 252.5t197 80.5q107 0 172 -53.5t77 -128.5l2 -14h-121q-29 91 -129 91q-157 0 -157 -231v-32
q0 -231 157 -231q140 0 140 157v21h-141v102h258v-104q0 -146 -71 -213.5t-187 -67.5z" />
    <glyph glyph-name="gbreve" unicode="&#x11f;" horiz-adv-x="539" 
d="M271 557q-62 0 -99 32.5t-37 90.5h78q0 -24 13.5 -42.5t44.5 -18.5t44.5 18.5t13.5 42.5h78q0 -57 -37.5 -90t-98.5 -33zM366 490h105v-478q0 -94 -57.5 -137.5t-150.5 -43.5q-95 0 -147 36t-59 99l-1 9h115q14 -60 93 -60q97 0 97 98v65q-42 -57 -127 -57
q-86 0 -139 59.5t-53 170.5v18q0 111 53 170.5t139 59.5q89 0 132 -64v55zM258 117q55 0 79 38t24 95v20q0 58 -24 95.5t-79 37.5q-57 0 -81.5 -38.5t-24.5 -96.5v-16q0 -58 24.5 -96.5t81.5 -38.5z" />
    <glyph glyph-name="Gdotaccent" unicode="&#x120;" horiz-adv-x="631" 
d="M327 744q-28 0 -47 18t-19 45q0 28 19 46t47 18t47 -18t19 -46q0 -27 -19.5 -45t-46.5 -18zM323 -12q-120 0 -197 80.5t-77 252.5v38q0 172 77 252.5t197 80.5q107 0 172 -53.5t77 -128.5l2 -14h-121q-29 91 -129 91q-157 0 -157 -231v-32q0 -231 157 -231q140 0 140 157
v21h-141v102h258v-104q0 -146 -71 -213.5t-187 -67.5z" />
    <glyph glyph-name="gdotaccent" unicode="&#x121;" horiz-adv-x="539" 
d="M270 564q-28 0 -47 18t-19 45q0 28 19 46t47 18t47 -18t19 -46q0 -27 -19.5 -45t-46.5 -18zM366 490h105v-478q0 -94 -57.5 -137.5t-150.5 -43.5q-95 0 -147 36t-59 99l-1 9h115q14 -60 93 -60q97 0 97 98v65q-42 -57 -127 -57q-86 0 -139 59.5t-53 170.5v18
q0 111 53 170.5t139 59.5q89 0 132 -64v55zM258 117q55 0 79 38t24 95v20q0 58 -24 95.5t-79 37.5q-57 0 -81.5 -38.5t-24.5 -96.5v-16q0 -58 24.5 -96.5t81.5 -38.5z" />
    <glyph glyph-name="Gcommaaccent" unicode="&#x122;" horiz-adv-x="631" 
d="M323 -12q-120 0 -197 80.5t-77 252.5v38q0 172 77 252.5t197 80.5q107 0 172 -53.5t77 -128.5l2 -14h-121q-29 91 -129 91q-157 0 -157 -231v-32q0 -231 157 -231q140 0 140 157v21h-141v102h258v-104q0 -146 -71 -213.5t-187 -67.5zM259 -200q15 81 15 148h98
q-1 -77 -48 -148h-65z" />
    <glyph glyph-name="gcommaaccent" unicode="&#x123;" horiz-adv-x="539" 
d="M325 715q-15 -81 -15 -148h-98q1 77 48 148h65zM366 490h105v-478q0 -94 -57.5 -137.5t-150.5 -43.5q-95 0 -147 36t-59 99l-1 9h115q14 -60 93 -60q97 0 97 98v65q-42 -57 -127 -57q-86 0 -139 59.5t-53 170.5v18q0 111 53 170.5t139 59.5q89 0 132 -64v55zM258 117
q55 0 79 38t24 95v20q0 58 -24 95.5t-79 37.5q-57 0 -81.5 -38.5t-24.5 -96.5v-16q0 -58 24.5 -96.5t81.5 -38.5z" />
    <glyph glyph-name="Hbar" unicode="&#x126;" horiz-adv-x="685" 
d="M651 578v-78h-46v-500h-117v295h-291v-295h-117v500h-46v78h46v102h117v-102h291v102h117v-102h46zM488 397v103h-291v-103h291z" />
    <glyph glyph-name="hbar" unicode="&#x127;" horiz-adv-x="551" 
d="M317 499q75 0 121 -47t46 -126v-326h-110v301q0 47 -23 74.5t-69 27.5t-74 -29t-28 -74v-300h-110v546h-66v77h66v77h110v-77h124v-77h-124v-116q43 69 137 69z" />
    <glyph glyph-name="Imacron" unicode="&#x12a;" horiz-adv-x="285" 
d="M17 836h252v-81h-252v81zM201 680v-680h-117v680h117z" />
    <glyph glyph-name="imacron" unicode="&#x12b;" horiz-adv-x="251" 
d="M0 656h252v-81h-252v81zM181 490v-490h-110v490h110z" />
    <glyph glyph-name="Iogonek" unicode="&#x12e;" horiz-adv-x="285" 
d="M201 0q-57 -32 -57 -72q0 -33 46 -33h8v-69q-14 -3 -33 -3q-49 0 -76 21.5t-27 60.5q0 58 60 95h-38v680h117v-680z" />
    <glyph glyph-name="iogonek" unicode="&#x12f;" horiz-adv-x="250" 
d="M125 564q-27 0 -46.5 18t-19.5 45q0 28 19 46t47 18t47 -18t19 -46q0 -27 -19.5 -45t-46.5 -18zM70 0v490h110v-490q-57 -32 -57 -72q0 -33 46 -33h8v-69q-14 -3 -34 -3q-48 0 -75 21.5t-27 60.5q0 57 59 95h-30z" />
    <glyph glyph-name="Idotaccent" unicode="&#x130;" horiz-adv-x="285" 
d="M143 744q-28 0 -47 18t-19 45q0 28 19 46t47 18t47 -18t19 -46q0 -27 -19.5 -45t-46.5 -18zM201 680v-680h-117v680h117z" />
    <glyph glyph-name="dotlessi" unicode="&#x131;" horiz-adv-x="251" 
d="M181 490v-490h-110v490h110z" />
    <glyph glyph-name="Kcommaaccent" unicode="&#x136;" horiz-adv-x="630" 
d="M388 400q64 -94 131.5 -214.5t93.5 -185.5h-125q-75 164 -180 315q-54 -54 -111 -106v-209h-117v680h117v-337q178 186 273 337h126q-73 -133 -208 -280zM248 -200q15 81 15 148h98q-1 -77 -48 -148h-65z" />
    <glyph glyph-name="kcommaaccent" unicode="&#x137;" horiz-adv-x="505" 
d="M330 290q105 -154 163 -290h-116q-50 109 -120 214q-28 -28 -80 -74v-140h-106v700h106v-442q113 117 181 232h115q-55 -100 -143 -200zM207 -200q15 81 15 148h98q-1 -77 -48 -148h-65z" />
    <glyph glyph-name="Lacute" unicode="&#x139;" horiz-adv-x="531" 
d="M277 862q-36 -44 -91 -122h-95q28 69 67 122h119zM197 103h305v-103h-422v680h117v-577z" />
    <glyph glyph-name="lacute" unicode="&#x13a;" horiz-adv-x="266" 
d="M262 883q-36 -44 -91 -122h-95q28 69 67 122h119zM176 700v-547q0 -41 13.5 -55t48.5 -12v-85q-18 -8 -49 -8q-65 0 -94 31.5t-29 97.5v578h110z" />
    <glyph glyph-name="Lcommaaccent" unicode="&#x13b;" horiz-adv-x="531" 
d="M197 103h305v-103h-422v680h117v-577zM231 -200q15 81 15 148h98q-1 -77 -48 -148h-65z" />
    <glyph glyph-name="lcommaaccent" unicode="&#x13c;" horiz-adv-x="266" 
d="M176 700v-547q0 -41 13.5 -55t48.5 -12v-85q-18 -8 -49 -8q-65 0 -94 31.5t-29 97.5v578h110zM93 -200q15 81 15 148h98q-1 -77 -48 -148h-65z" />
    <glyph glyph-name="Lcaron" unicode="&#x13d;" horiz-adv-x="531" 
d="M362 681q-3 -102 -55 -178h-50q19 95 19 178h86zM197 103h305v-103h-422v680h117v-577z" />
    <glyph glyph-name="lcaron" unicode="&#x13e;" horiz-adv-x="315" 
d="M176 700v-547q0 -41 13.5 -55t48.5 -12v-85q-18 -8 -49 -8q-65 0 -94 31.5t-29 97.5v578h110zM333 700q-3 -102 -55 -178h-50q19 95 19 178h86z" />
    <glyph glyph-name="Lslash" unicode="&#x141;" horiz-adv-x="551" 
d="M217 103h305v-103h-422v226l-71 -42v92l71 43v361h117v-289l137 83v-93l-137 -83v-195z" />
    <glyph glyph-name="lslash" unicode="&#x142;" horiz-adv-x="304" 
d="M269 400l-74 -43v-198q0 -41 13.5 -56t48.5 -13v-86q-21 -7 -47 -7q-65 0 -95 32t-30 98v166l-63 -36v89l63 36v318h110v-254l74 44v-90z" />
    <glyph glyph-name="Nacute" unicode="&#x143;" horiz-adv-x="687" 
d="M483 862q-36 -44 -91 -122h-95q28 69 67 122h119zM495 680h112v-680h-104l-311 501v-501h-112v680h119l296 -476v476z" />
    <glyph glyph-name="nacute" unicode="&#x144;" horiz-adv-x="552" 
d="M418 682q-36 -44 -91 -122h-95q28 69 67 122h119zM317 499q76 0 122 -46.5t46 -126.5v-326h-110v301q0 47 -23 74.5t-70 27.5q-46 0 -73.5 -28.5t-27.5 -74.5v-300h-110v490h104v-69q17 32 52.5 55t89.5 23z" />
    <glyph glyph-name="Ncommaaccent" unicode="&#x145;" horiz-adv-x="687" 
d="M495 680h112v-680h-104l-311 501v-501h-112v680h119l296 -476v476zM279 -200q15 81 15 148h98q-1 -77 -48 -148h-65z" />
    <glyph glyph-name="ncommaaccent" unicode="&#x146;" horiz-adv-x="552" 
d="M317 499q76 0 122 -46.5t46 -126.5v-326h-110v301q0 47 -23 74.5t-70 27.5q-46 0 -73.5 -28.5t-27.5 -74.5v-300h-110v490h104v-69q17 32 52.5 55t89.5 23zM210 -200q15 81 15 148h98q-1 -77 -48 -148h-65z" />
    <glyph glyph-name="Ncaron" unicode="&#x147;" horiz-adv-x="687" 
d="M422 740h-145q-45 57 -72 120h86q21 -34 58 -76q33 36 58 76h87q-30 -68 -72 -120zM495 680h112v-680h-104l-311 501v-501h-112v680h119l296 -476v476z" />
    <glyph glyph-name="ncaron" unicode="&#x148;" horiz-adv-x="552" 
d="M358 560h-145q-45 57 -72 120h86q21 -34 58 -76q33 36 58 76h87q-30 -68 -72 -120zM317 499q76 0 122 -46.5t46 -126.5v-326h-110v301q0 47 -23 74.5t-70 27.5q-46 0 -73.5 -28.5t-27.5 -74.5v-300h-110v490h104v-69q17 32 52.5 55t89.5 23z" />
    <glyph glyph-name="Eng" unicode="&#x14a;" horiz-adv-x="687" 
d="M495 680h112v-683q0 -166 -179 -166q-59 0 -90 14v91q33 -12 77 -12q84 0 84 73v10l-307 492v-499h-112v680h119l296 -474v474z" />
    <glyph glyph-name="eng" unicode="&#x14b;" horiz-adv-x="552" 
d="M317 499q76 0 122 -46.5t46 -126.5v-326h-110v301q0 47 -23 74.5t-70 27.5q-46 0 -73.5 -28.5t-27.5 -74.5v-300h-110v490h104v-69q17 32 52.5 55t89.5 23z" />
    <glyph glyph-name="Omacron" unicode="&#x14c;" horiz-adv-x="647" 
d="M198 836h252v-81h-252v81zM324 -12q-122 0 -198.5 80.5t-76.5 252.5v38q0 172 76.5 252.5t198.5 80.5q121 0 197.5 -80.5t76.5 -252.5v-38q0 -172 -76.5 -252.5t-197.5 -80.5zM324 92q59 0 95.5 35t49 84t12.5 113v32q0 64 -12.5 113t-49 84t-95.5 35q-157 0 -157 -232
v-32q0 -232 157 -232z" />
    <glyph glyph-name="omacron" unicode="&#x14d;" horiz-adv-x="521" 
d="M134 656h252v-81h-252v81zM260 -9q-99 0 -159.5 63t-60.5 180v22q0 117 60.5 180t159.5 63t160 -63t61 -180v-22q0 -117 -61 -180t-160 -63zM260 87q59 0 85 42t26 105v22q0 63 -26 105t-85 42t-84.5 -41.5t-25.5 -105.5v-22q0 -63 25.5 -105t84.5 -42z" />
    <glyph glyph-name="Ohungarumlaut" unicode="&#x150;" horiz-adv-x="647" 
d="M369 860q-37 -44 -78 -120h-83q18 48 56 120h105zM529 860q-24 -30 -89 -120h-83q32 68 67 120h105zM324 -12q-122 0 -198.5 80.5t-76.5 252.5v38q0 172 76.5 252.5t198.5 80.5q121 0 197.5 -80.5t76.5 -252.5v-38q0 -172 -76.5 -252.5t-197.5 -80.5zM324 92
q59 0 95.5 35t49 84t12.5 113v32q0 64 -12.5 113t-49 84t-95.5 35q-157 0 -157 -232v-32q0 -232 157 -232z" />
    <glyph glyph-name="ohungarumlaut" unicode="&#x151;" horiz-adv-x="521" 
d="M306 680q-37 -44 -78 -120h-83q18 48 56 120h105zM466 680q-24 -30 -89 -120h-83q32 68 67 120h105zM260 -9q-99 0 -159.5 63t-60.5 180v22q0 117 60.5 180t159.5 63t160 -63t61 -180v-22q0 -117 -61 -180t-160 -63zM260 87q59 0 85 42t26 105v22q0 63 -26 105t-85 42
t-84.5 -41.5t-25.5 -105.5v-22q0 -63 25.5 -105t84.5 -42z" />
    <glyph glyph-name="OE" unicode="&#x152;" horiz-adv-x="958" 
d="M581 103h328v-103h-446v52q-57 -64 -159 -64q-112 0 -183.5 81t-71.5 253v36q0 172 71.5 253t183.5 81q104 0 159 -65v53h437v-103h-319v-180h296v-102h-296v-192zM326 92q100 0 137 97v302q-35 97 -137 97q-45 0 -77 -19.5t-49.5 -53.5t-25 -73.5t-7.5 -86.5v-30
q0 -47 7.5 -86.5t25 -73.5t49.5 -53.5t77 -19.5z" />
    <glyph glyph-name="oe" unicode="&#x153;" horiz-adv-x="846" 
d="M807 221h-327q3 -59 30 -97.5t83 -38.5q77 0 98 65h112q-36 -159 -211 -159q-110 0 -167 77q-57 -77 -165 -77q-99 0 -159.5 63t-60.5 180v22q0 117 60.5 180t159.5 63q110 0 165 -78q60 78 168 78q98 0 156 -60.5t58 -164.5v-53zM592 406q-94 0 -109 -108h219
q-11 108 -110 108zM371 234v22q0 63 -26 105t-85 42t-84.5 -41.5t-25.5 -105.5v-22q0 -63 25.5 -105t84.5 -42t85 42t26 105z" />
    <glyph glyph-name="Racute" unicode="&#x154;" horiz-adv-x="626" 
d="M435 862q-36 -44 -91 -122h-95q28 69 67 122h119zM597 0h-127q-77 153 -161 269h-112v-269h-117v680h269q99 0 159.5 -55t60.5 -149q0 -72 -38.5 -122.5t-101.5 -69.5q45 -62 95 -148t73 -136zM197 580v-210h138q57 0 87.5 28t30.5 78q0 49 -30.5 76.5t-87.5 27.5h-138z
" />
    <glyph glyph-name="racute" unicode="&#x155;" horiz-adv-x="372" 
d="M353 682q-36 -44 -91 -122h-95q28 69 67 122h119zM316 494q21 0 41 -4v-112q-20 3 -42 3q-64 0 -99 -40t-35 -119v-222h-110v490h104v-111q11 46 45.5 80.5t95.5 34.5z" />
    <glyph glyph-name="Rcommaaccent" unicode="&#x156;" horiz-adv-x="626" 
d="M429 284q45 -62 95 -148t73 -136h-127q-77 153 -161 269h-112v-269h-117v680h269q99 0 159.5 -55t60.5 -149q0 -72 -38.5 -122.5t-101.5 -69.5zM197 580v-210h138q57 0 87.5 28t30.5 78q0 49 -30.5 76.5t-87.5 27.5h-138zM267 -200q15 81 15 148h98q-1 -77 -48 -148h-65z
" />
    <glyph glyph-name="rcommaaccent" unicode="&#x157;" horiz-adv-x="372" 
d="M316 494q21 0 41 -4v-112q-20 3 -42 3q-64 0 -99 -40t-35 -119v-222h-110v490h104v-111q11 46 45.5 80.5t95.5 34.5zM63 -200q15 81 15 148h98q-1 -77 -48 -148h-65z" />
    <glyph glyph-name="Rcaron" unicode="&#x158;" horiz-adv-x="626" 
d="M375 740h-145q-45 57 -72 120h86q21 -34 58 -76q33 36 58 76h87q-30 -68 -72 -120zM597 0h-127q-77 153 -161 269h-112v-269h-117v680h269q99 0 159.5 -55t60.5 -149q0 -72 -38.5 -122.5t-101.5 -69.5q45 -62 95 -148t73 -136zM197 580v-210h138q57 0 87.5 28t30.5 78
q0 49 -30.5 76.5t-87.5 27.5h-138z" />
    <glyph glyph-name="rcaron" unicode="&#x159;" horiz-adv-x="372" 
d="M292 560h-145q-45 57 -72 120h86q21 -34 58 -76q33 36 58 76h87q-30 -68 -72 -120zM175 379q11 46 45.5 80.5t95.5 34.5q21 0 41 -4v-112q-20 3 -42 3q-64 0 -99 -40t-35 -119v-222h-110v490h104v-111z" />
    <glyph glyph-name="Sacute" unicode="&#x15a;" horiz-adv-x="575" 
d="M421 862q-36 -44 -91 -122h-95q28 69 67 122h119zM517 504h-120q-6 38 -37 62t-83 24q-51 0 -79.5 -24.5t-28.5 -61.5q0 -38 28.5 -58t93.5 -40l62 -18q88 -27 134 -70.5t46 -124.5q0 -93 -63.5 -148t-176.5 -55q-120 0 -186 55t-70 138l-1 21h119q5 -53 41.5 -84
t98.5 -31q57 0 89 26t32 72q0 41 -26.5 62t-82.5 38l-60 18q-104 32 -149 73.5t-45 119.5q0 83 61 137.5t167 54.5q109 0 169 -49.5t65 -119.5z" />
    <glyph glyph-name="sacute" unicode="&#x15b;" horiz-adv-x="466" 
d="M373 682q-36 -44 -91 -122h-95q28 69 67 122h119zM230 499q87 0 135.5 -35.5t53.5 -95.5l1 -11h-110q-4 25 -26.5 41.5t-57.5 16.5q-32 0 -50.5 -14t-18.5 -38t18.5 -37t61.5 -24l46 -13q79 -21 114 -55t35 -94q0 -68 -50.5 -108.5t-140.5 -40.5q-92 0 -145.5 40
t-58.5 109l-1 14h110q2 -36 28 -57.5t68 -21.5q82 0 82 59q0 27 -16.5 40t-59.5 26l-50 14q-74 21 -112.5 50t-38.5 90q0 62 47 103.5t136 41.5z" />
    <glyph glyph-name="Scedilla" unicode="&#x15e;" horiz-adv-x="575" 
d="M533 193q0 -89 -58.5 -143.5t-162.5 -58.5l-14 -29q40 -2 63.5 -22t23.5 -56q0 -40 -28 -62t-74 -22q-61 0 -99 32l30 47q30 -22 66 -22q40 0 40 29q0 27 -45 27q-17 0 -34 -5l-18 23l29 61q-101 9 -156.5 62.5t-58.5 128.5l-1 21h119q5 -53 41.5 -84t98.5 -31
q57 0 89 26t32 72q0 41 -26.5 62t-82.5 38l-60 18q-104 32 -149 73.5t-45 119.5q0 83 61 137.5t167 54.5q109 0 169 -49.5t65 -119.5l2 -17h-120q-6 38 -37 62t-83 24q-51 0 -79.5 -24.5t-28.5 -61.5q0 -38 28.5 -58t93.5 -40l62 -18q88 -27 134 -70.5t46 -124.5z" />
    <glyph glyph-name="scedilla" unicode="&#x15f;" horiz-adv-x="466" 
d="M432 140q0 -65 -45.5 -105t-128.5 -44l-14 -29q40 -2 63.5 -22t23.5 -56q0 -40 -28 -62t-74 -22q-61 0 -99 32l30 47q30 -22 66 -22q40 0 40 29q0 27 -46 27q-16 0 -33 -5l-18 23l30 62q-74 9 -115.5 47.5t-46.5 99.5l-1 14h110q2 -36 28 -57.5t68 -21.5q82 0 82 59
q0 27 -16.5 40t-59.5 26l-50 14q-74 21 -112.5 50t-38.5 90q0 62 47 103.5t136 41.5q87 0 135.5 -35.5t53.5 -95.5l1 -11h-110q-4 25 -26.5 41.5t-57.5 16.5q-32 0 -50.5 -14t-18.5 -38t18.5 -37t61.5 -24l46 -13q79 -21 114 -55t35 -94z" />
    <glyph glyph-name="Scaron" unicode="&#x160;" horiz-adv-x="575" 
d="M360 740h-145q-45 57 -72 120h86q21 -34 58 -76q33 36 58 76h87q-30 -68 -72 -120zM353 388q88 -27 134 -70.5t46 -124.5q0 -93 -63.5 -148t-176.5 -55q-120 0 -186 55t-70 138l-1 21h119q5 -53 41.5 -84t98.5 -31q57 0 89 26t32 72q0 41 -26.5 62t-82.5 38l-60 18
q-104 32 -149 73.5t-45 119.5q0 83 61 137.5t167 54.5q109 0 169 -49.5t65 -119.5l2 -17h-120q-6 38 -37 62t-83 24q-51 0 -79.5 -24.5t-28.5 -61.5q0 -38 28.5 -58t93.5 -40z" />
    <glyph glyph-name="scaron" unicode="&#x161;" horiz-adv-x="466" 
d="M312 560h-145q-45 57 -72 120h86q21 -34 58 -76q33 36 58 76h87q-30 -68 -72 -120zM283 289q79 -21 114 -55t35 -94q0 -68 -50.5 -108.5t-140.5 -40.5q-92 0 -145.5 40t-58.5 109l-1 14h110q2 -36 28 -57.5t68 -21.5q82 0 82 59q0 27 -16.5 40t-59.5 26l-50 14
q-74 21 -112.5 50t-38.5 90q0 62 47 103.5t136 41.5q87 0 135.5 -35.5t53.5 -95.5l1 -11h-110q-4 25 -26.5 41.5t-57.5 16.5q-32 0 -50.5 -14t-18.5 -38t18.5 -37t61.5 -24z" />
    <glyph glyph-name="uni0162" unicode="&#x162;" horiz-adv-x="548" 
d="M333 0h-27l-18 -38q40 -2 63.5 -22t23.5 -56q0 -40 -28 -62t-74 -22q-61 0 -99 32l30 47q30 -22 66 -22q40 0 40 29q0 27 -46 27q-16 0 -33 -5l-18 23l33 69h-31v577h-189v103h496v-103h-189v-577z" />
    <glyph glyph-name="uni0163" unicode="&#x163;" horiz-adv-x="336" 
d="M304 401h-96v-241q0 -36 14.5 -52.5t50.5 -16.5q7 0 31 2v-89q-27 -8 -62 -8h-13l-17 -34q40 -2 64 -22t24 -56q0 -40 -28 -62t-75 -22q-61 0 -98 32l29 47q30 -22 66 -22q40 0 40 29q0 27 -45 27q-15 0 -33 -5l-18 23l35 75q-76 27 -76 137v258h-72v89h73v127h110v-127
h96v-89z" />
    <glyph glyph-name="Tcaron" unicode="&#x164;" horiz-adv-x="548" 
d="M346 740h-145q-45 57 -72 120h86q21 -34 58 -76q33 36 58 76h87q-30 -68 -72 -120zM26 680h496v-103h-189v-577h-118v577h-189v103z" />
    <glyph glyph-name="tcaron" unicode="&#x165;" horiz-adv-x="336" 
d="M368 729q-3 -102 -55 -178h-50q19 95 19 178h86zM241 -5q-77 0 -110.5 36.5t-33.5 110.5v259h-72v89h73v127h110v-127h96v-89h-96v-242q0 -36 14.5 -52.5t50.5 -16.5q7 0 31 2v-89q-27 -8 -63 -8z" />
    <glyph glyph-name="Tbar" unicode="&#x166;" horiz-adv-x="548" 
d="M522 577h-189v-198h91v-77h-91v-302h-118v302h-91v77h91v198h-189v103h496v-103z" />
    <glyph glyph-name="tbar" unicode="&#x167;" horiz-adv-x="336" 
d="M304 401h-96v-107h96v-75h-96v-59q0 -36 14.5 -52.5t50.5 -16.5q7 0 31 2v-89q-27 -8 -62 -8q-77 0 -111 36.5t-34 110.5v76h-72v75h72v107h-72v89h73v127h110v-127h96v-89z" />
    <glyph glyph-name="Umacron" unicode="&#x16a;" horiz-adv-x="661" 
d="M204 836h252v-81h-252v81zM465 680h118v-458q0 -117 -68 -174t-185 -57t-184.5 57t-67.5 174v458h117v-446q0 -141 135 -141t135 141v446z" />
    <glyph glyph-name="umacron" unicode="&#x16b;" horiz-adv-x="543" 
d="M396 656v-81h-252v81h252zM363 490h110v-490h-105v57q-42 -66 -133 -66q-76 0 -122 46.5t-46 125.5v327h110v-302q0 -46 22 -73.5t67 -27.5q44 0 70.5 28t26.5 73v302z" />
    <glyph glyph-name="Uring" unicode="&#x16e;" horiz-adv-x="661" 
d="M330 720q-48 0 -77.5 28t-29.5 71q0 44 29.5 71.5t77.5 27.5t77.5 -27.5t29.5 -71.5q0 -43 -30 -71t-77 -28zM330 768q24 0 37.5 14.5t13.5 36.5t-13.5 36.5t-37.5 14.5t-37.5 -14.5t-13.5 -36.5t13.5 -36.5t37.5 -14.5zM465 680h118v-458q0 -117 -68 -174t-185 -57
t-184.5 57t-67.5 174v458h117v-446q0 -141 135 -141t135 141v446z" />
    <glyph glyph-name="uring" unicode="&#x16f;" horiz-adv-x="543" 
d="M270 540q-48 0 -77.5 28t-29.5 71q0 44 29.5 71.5t77.5 27.5t77.5 -27.5t29.5 -71.5q0 -43 -30 -71t-77 -28zM270 690q-24 0 -37.5 -14.5t-13.5 -36.5t13.5 -36.5t37.5 -14.5t37.5 14.5t13.5 36.5t-13.5 36.5t-37.5 14.5zM363 490h110v-490h-105v57q-42 -66 -133 -66
q-76 0 -122 46.5t-46 125.5v327h110v-302q0 -46 22 -73.5t67 -27.5q44 0 70.5 28t26.5 73v302z" />
    <glyph glyph-name="Uhungarumlaut" unicode="&#x170;" horiz-adv-x="661" 
d="M376 860q-37 -44 -78 -120h-83q18 48 56 120h105zM536 860q-24 -30 -89 -120h-83q32 68 67 120h105zM465 680h118v-458q0 -117 -68 -174t-185 -57t-184.5 57t-67.5 174v458h117v-446q0 -141 135 -141t135 141v446z" />
    <glyph glyph-name="uhungarumlaut" unicode="&#x171;" horiz-adv-x="543" 
d="M316 680q-37 -44 -78 -120h-83q18 48 56 120h105zM387 560h-83q32 68 67 120h105q-24 -30 -89 -120zM363 188v302h110v-490h-105v57q-42 -66 -133 -66q-76 0 -122 46.5t-46 125.5v327h110v-302q0 -46 22 -73.5t67 -27.5q44 0 70.5 28t26.5 73z" />
    <glyph glyph-name="Uogonek" unicode="&#x172;" horiz-adv-x="661" 
d="M433 -177q-49 0 -76 22.5t-27 63.5q0 48 38 84q-24 -2 -40 -2q-115 0 -182.5 57t-67.5 174v458h117v-446q0 -141 135 -141t135 141v446h118v-458q0 -45 -8.5 -78.5t-29 -58.5t-31 -34t-38.5 -30q-34 -25 -49 -44t-15 -42q0 -40 46 -40h9v-69q-13 -3 -34 -3z" />
    <glyph glyph-name="uogonek" unicode="&#x173;" horiz-adv-x="543" 
d="M473 0q-58 -32 -58 -72q0 -33 46 -33h9v-69q-13 -3 -34 -3q-48 0 -75.5 21.5t-27.5 60.5q0 58 60 95h-25v57q-42 -66 -133 -66q-76 0 -122 46.5t-46 125.5v327h110v-302q0 -46 22 -73.5t67 -27.5q44 0 70.5 28t26.5 73v302h110v-490z" />
    <glyph glyph-name="Wcircumflex" unicode="&#x174;" horiz-adv-x="948" 
d="M475 817q-35 -40 -58 -77h-86q27 63 72 120h145q42 -52 72 -120h-87q-26 43 -58 77zM800 680h119q-97 -445 -171 -659q-7 -21 -36 -21h-73q-17 0 -24.5 4.5t-10.5 16.5l-130 475l-128 -475q-7 -21 -36 -21h-73q-17 0 -24 4.5t-11 16.5q-40 121 -89.5 311.5t-82.5 347.5
h122q49 -251 127 -526l140 526h114l143 -525q76 272 124 525z" />
    <glyph glyph-name="wcircumflex" unicode="&#x175;" horiz-adv-x="752" 
d="M376 637q-35 -40 -58 -77h-86q27 63 72 120h145q42 -52 72 -120h-87q-26 43 -58 77zM616 490h109q-56 -257 -136 -471q-7 -19 -26 -19h-77q-20 0 -26 19l-83 303l-83 -303q-6 -19 -26 -19h-79q-19 0 -26 19q-80 214 -136 471h113q35 -170 92 -358l95 358h102l95 -357
q57 191 92 357z" />
    <glyph glyph-name="Ycircumflex" unicode="&#x176;" horiz-adv-x="588" 
d="M292 817q-35 -40 -58 -77h-86q27 63 72 120h145q42 -52 72 -120h-87q-26 43 -58 77zM570 680q-79 -193 -217 -424v-256h-117v256q-140 234 -218 424h121q65 -155 157 -314q89 156 155 314h119z" />
    <glyph glyph-name="ycircumflex" unicode="&#x177;" horiz-adv-x="494" 
d="M247 637q-35 -40 -58 -77h-86q27 63 72 120h145q42 -52 72 -120h-87q-26 43 -58 77zM363 490h108q-31 -146 -112 -352.5t-133 -297.5h-113q35 61 79 163q-51 107 -97.5 242.5t-71.5 244.5h113q35 -160 112 -359q71 184 115 359z" />
    <glyph glyph-name="Ydieresis" unicode="&#x178;" horiz-adv-x="588" 
d="M200 744q-27 0 -45.5 18t-18.5 45t18.5 44.5t45.5 17.5t45.5 -17.5t18.5 -44.5t-18.5 -45t-45.5 -18zM385 744q-27 0 -45.5 18t-18.5 45t18.5 44.5t45.5 17.5q28 0 46.5 -17.5t18.5 -44.5t-18.5 -45t-46.5 -18zM570 680q-79 -193 -217 -424v-256h-117v256
q-140 234 -218 424h121q65 -155 157 -314q89 156 155 314h119z" />
    <glyph glyph-name="Zacute" unicode="&#x179;" horiz-adv-x="576" 
d="M429 862q-36 -44 -91 -122h-95q28 69 67 122h119zM183 103h356v-103h-498v90l351 487h-337v103h481v-89z" />
    <glyph glyph-name="zacute" unicode="&#x17a;" horiz-adv-x="456" 
d="M354 682q-36 -44 -91 -122h-95q28 69 67 122h119zM169 94h255v-94h-391v82l251 314h-240v94h376v-83z" />
    <glyph glyph-name="Zdotaccent" unicode="&#x17b;" horiz-adv-x="576" 
d="M296 744q-28 0 -47 18t-19 45q0 28 19 46t47 18t47 -18t19 -46q0 -27 -19.5 -45t-46.5 -18zM183 103h356v-103h-498v90l351 487h-337v103h481v-89z" />
    <glyph glyph-name="zdotaccent" unicode="&#x17c;" horiz-adv-x="456" 
d="M221 564q-28 0 -47 18t-19 45q0 28 19 46t47 18t47 -18t19 -46q0 -27 -19.5 -45t-46.5 -18zM169 94h255v-94h-391v82l251 314h-240v94h376v-83z" />
    <glyph glyph-name="Zcaron" unicode="&#x17d;" horiz-adv-x="576" 
d="M368 740h-145q-45 57 -72 120h86q21 -34 58 -76q33 36 58 76h87q-30 -68 -72 -120zM183 103h356v-103h-498v90l351 487h-337v103h481v-89z" />
    <glyph glyph-name="zcaron" unicode="&#x17e;" horiz-adv-x="456" 
d="M293 560h-145q-45 57 -72 120h86q21 -34 58 -76q33 36 58 76h87q-30 -68 -72 -120zM169 94h255v-94h-391v82l251 314h-240v94h376v-83z" />
    <glyph glyph-name="Scommaaccent" unicode="&#x218;" horiz-adv-x="575" 
d="M517 504h-120q-6 38 -37 62t-83 24q-51 0 -79.5 -24.5t-28.5 -61.5q0 -38 28.5 -58t93.5 -40l62 -18q88 -27 134 -70.5t46 -124.5q0 -93 -63.5 -148t-176.5 -55q-120 0 -186 55t-70 138l-1 21h119q5 -53 41.5 -84t98.5 -31q57 0 89 26t32 72q0 41 -26.5 62t-82.5 38
l-60 18q-104 32 -149 73.5t-45 119.5q0 83 61 137.5t167 54.5q109 0 169 -49.5t65 -119.5zM222 -200q15 81 15 148h98q-1 -77 -48 -148h-65z" />
    <glyph glyph-name="scommaaccent" unicode="&#x219;" horiz-adv-x="466" 
d="M230 499q87 0 135.5 -35.5t53.5 -95.5l1 -11h-110q-4 25 -26.5 41.5t-57.5 16.5q-32 0 -50.5 -14t-18.5 -38t18.5 -37t61.5 -24l46 -13q79 -21 114 -55t35 -94q0 -68 -50.5 -108.5t-140.5 -40.5q-92 0 -145.5 40t-58.5 109l-1 14h110q2 -36 28 -57.5t68 -21.5q82 0 82 59
q0 27 -16.5 40t-59.5 26l-50 14q-74 21 -112.5 50t-38.5 90q0 62 47 103.5t136 41.5zM168 -200q15 81 15 148h98q-1 -77 -48 -148h-65z" />
    <glyph glyph-name="uni021A" unicode="&#x21a;" horiz-adv-x="548" 
d="M522 680v-103h-189v-577h-118v577h-189v103h496zM212 -200q15 81 15 148h98q-1 -77 -48 -148h-65z" />
    <glyph glyph-name="uni021B" unicode="&#x21b;" horiz-adv-x="336" 
d="M241 -5q-77 0 -110.5 36.5t-33.5 110.5v259h-72v89h73v127h110v-127h96v-89h-96v-242q0 -36 14.5 -52.5t50.5 -16.5q7 0 31 2v-89q-27 -8 -63 -8zM136 -200q15 81 15 148h98q-1 -77 -48 -148h-65z" />
    <glyph glyph-name="circumflex" unicode="&#x2c6;" horiz-adv-x="357" 
d="M323 560h-87q-26 43 -58 77q-35 -40 -58 -77h-86q27 63 72 120h145q42 -52 72 -120z" />
    <glyph glyph-name="caron" unicode="&#x2c7;" horiz-adv-x="357" 
d="M236 680h87q-30 -68 -72 -120h-145q-45 57 -72 120h86q23 -37 58 -77q32 34 58 77z" />
    <glyph glyph-name="breve" unicode="&#x2d8;" horiz-adv-x="339" 
d="M170 557q61 0 98.5 33t37.5 90h-78q0 -24 -13.5 -42.5t-44.5 -18.5t-44.5 18.5t-13.5 42.5h-78q0 -58 37 -90.5t99 -32.5z" />
    <glyph glyph-name="dotaccent" unicode="&#x2d9;" horiz-adv-x="200" 
d="M100 564q-28 0 -47 18t-19 45q0 28 19 46t47 18t47 -18t19 -46q0 -27 -19.5 -45t-46.5 -18z" />
    <glyph glyph-name="ring" unicode="&#x2da;" horiz-adv-x="282" 
d="M141 540q-48 0 -77.5 28t-29.5 71q0 44 29.5 71.5t77.5 27.5t77.5 -27.5t29.5 -71.5q0 -43 -30 -71t-77 -28zM141 588q24 0 37.5 14.5t13.5 36.5t-13.5 36.5t-37.5 14.5t-37.5 -14.5t-13.5 -36.5t13.5 -36.5t37.5 -14.5z" />
    <glyph glyph-name="ogonek" unicode="&#x2db;" horiz-adv-x="207" 
d="M135 21l38 -21q-57 -32 -57 -72q0 -33 46 -33h8v-69q-14 -3 -33 -3q-49 0 -76 21.5t-27 60.5q0 76 101 116z" />
    <glyph glyph-name="tilde" unicode="&#x2dc;" horiz-adv-x="374" 
d="M341 676q-3 -116 -87 -116q-32 0 -72 22t-55 22q-33 0 -36 -44h-57q1 56 25 86t66 30q29 0 68 -22.5t55 -22.5q33 0 35 45h58z" />
    <glyph glyph-name="hungarumlaut" unicode="&#x2dd;" horiz-adv-x="389" 
d="M195 680q-37 -44 -78 -120h-83q18 48 56 120h105zM355 680q-24 -30 -89 -120h-83q32 68 67 120h105z" />
    <glyph glyph-name="gravecomb" unicode="&#x300;" 
d="M-220 682h119q39 -53 67 -122h-92q-52 75 -94 122z" />
    <glyph glyph-name="acutecomb" unicode="&#x301;" 
d="M-34 682q-36 -44 -91 -122h-95q28 69 67 122h119z" />
    <glyph glyph-name="uni0302" unicode="&#x302;" 
d="M-34 560h-87q-26 43 -58 77q-35 -40 -58 -77h-86q27 63 72 120h145q42 -52 72 -120z" />
    <glyph glyph-name="tildecomb" unicode="&#x303;" 
d="M-33 676q-3 -116 -87 -116q-32 0 -72 22t-55 22q-33 0 -36 -44h-57q1 56 25 86t66 30q29 0 68 -22.5t55 -22.5q33 0 35 45h58z" />
    <glyph glyph-name="uni0304" unicode="&#x304;" 
d="M-286 656h252v-81h-252v81z" />
    <glyph glyph-name="uni0306" unicode="&#x306;" 
d="M-169 557q61 0 98.5 33t37.5 90h-78q0 -24 -13.5 -42.5t-44.5 -18.5t-44.5 18.5t-13.5 42.5h-78q0 -58 37 -90.5t99 -32.5z" />
    <glyph glyph-name="uni0307" unicode="&#x307;" 
d="M-100 564q-28 0 -47 18t-19 45q0 28 19 46t47 18t47 -18t19 -46q0 -27 -19.5 -45t-46.5 -18z" />
    <glyph glyph-name="uni0308" unicode="&#x308;" 
d="M-284 564q-27 0 -45.5 18t-18.5 45t18.5 44.5t45.5 17.5t45.5 -17.5t18.5 -44.5t-18.5 -45t-45.5 -18zM-99 564q-27 0 -45.5 18t-18.5 45t18.5 44.5t45.5 17.5q28 0 46.5 -17.5t18.5 -44.5t-18.5 -45t-46.5 -18z" />
    <glyph glyph-name="uni030A" unicode="&#x30a;" 
d="M-141 540q-48 0 -77.5 28t-29.5 71q0 44 29.5 71.5t77.5 27.5t77.5 -27.5t29.5 -71.5q0 -43 -30 -71t-77 -28zM-141 588q24 0 37.5 14.5t13.5 36.5t-13.5 36.5t-37.5 14.5t-37.5 -14.5t-13.5 -36.5t13.5 -36.5t37.5 -14.5z" />
    <glyph glyph-name="uni030B" unicode="&#x30b;" 
d="M-194 680q-37 -44 -78 -120h-83q18 48 56 120h105zM-34 680q-24 -30 -89 -120h-83q32 68 67 120h105z" />
    <glyph glyph-name="uni030C" unicode="&#x30c;" 
d="M-121 680h87q-30 -68 -72 -120h-145q-45 57 -72 120h86q23 -37 58 -77q32 34 58 77z" />
    <glyph glyph-name="uni0312" unicode="&#x312;" 
d="M-34 715q-15 -81 -15 -148h-98q1 77 48 148h65z" />
    <glyph glyph-name="uni0326" unicode="&#x326;" 
d="M-147 -200q15 81 15 148h98q-1 -77 -48 -148h-65z" />
    <glyph glyph-name="uni0327" unicode="&#x327;" 
d="M-121 -38q40 -2 64 -22t24 -56q0 -40 -28 -62t-75 -22q-61 0 -98 32l29 47q30 -22 66 -22q40 0 40 29q0 27 -45 27q-16 0 -33 -5l-18 23l37 78h60z" />
    <glyph glyph-name="uni0328" unicode="&#x328;" 
d="M-72 21l38 -21q-57 -32 -57 -72q0 -33 46 -33h8v-69q-14 -3 -33 -3q-49 0 -76 21.5t-27 60.5q0 76 101 116z" />
    <glyph glyph-name="uni0335" unicode="&#x335;" 
d="M-334 273h300v-77h-300v77z" />
    <glyph glyph-name="uni0336" unicode="&#x336;" 
d="M-489 274h455v-80h-455v80z" />
    <glyph glyph-name="uni0337" unicode="&#x337;" 
d="M-45 453l-234 -142v92l234 143v-93z" />
    <glyph glyph-name="uni0338" unicode="&#x338;" 
d="M-14 680l-366 -712l-67 32l366 712z" />
    <glyph glyph-name="Wgrave" unicode="&#x1e80;" horiz-adv-x="948" 
d="M524 740h-92q-52 75 -94 122h119q39 -53 67 -122zM800 680h119q-97 -445 -171 -659q-7 -21 -36 -21h-73q-17 0 -24.5 4.5t-10.5 16.5l-130 475l-128 -475q-7 -21 -36 -21h-73q-17 0 -24 4.5t-11 16.5q-40 121 -89.5 311.5t-82.5 347.5h122q49 -251 127 -526l140 526h114
l143 -525q76 272 124 525z" />
    <glyph glyph-name="wgrave" unicode="&#x1e81;" horiz-adv-x="752" 
d="M425 560h-92q-52 75 -94 122h119q39 -53 67 -122zM616 490h109q-56 -257 -136 -471q-7 -19 -26 -19h-77q-20 0 -26 19l-83 303l-83 -303q-6 -19 -26 -19h-79q-19 0 -26 19q-80 214 -136 471h113q35 -170 92 -358l95 358h102l95 -357q57 191 92 357z" />
    <glyph glyph-name="Wacute" unicode="&#x1e82;" horiz-adv-x="948" 
d="M609 862q-36 -44 -91 -122h-95q28 69 67 122h119zM800 680h119q-97 -445 -171 -659q-7 -21 -36 -21h-73q-17 0 -24.5 4.5t-10.5 16.5l-130 475l-128 -475q-7 -21 -36 -21h-73q-17 0 -24 4.5t-11 16.5q-40 121 -89.5 311.5t-82.5 347.5h122q49 -251 127 -526l140 526h114
l143 -525q76 272 124 525z" />
    <glyph glyph-name="wacute" unicode="&#x1e83;" horiz-adv-x="752" 
d="M509 682q-36 -44 -91 -122h-95q28 69 67 122h119zM616 490h109q-56 -257 -136 -471q-7 -19 -26 -19h-77q-20 0 -26 19l-83 303l-83 -303q-6 -19 -26 -19h-79q-19 0 -26 19q-80 214 -136 471h113q35 -170 92 -358l95 358h102l95 -357q57 191 92 357z" />
    <glyph glyph-name="Wdieresis" unicode="&#x1e84;" horiz-adv-x="948" 
d="M383 744q-27 0 -45.5 18t-18.5 45t18.5 44.5t45.5 17.5t45.5 -17.5t18.5 -44.5t-18.5 -45t-45.5 -18zM568 744q-27 0 -45.5 18t-18.5 45t18.5 44.5t45.5 17.5q28 0 46.5 -17.5t18.5 -44.5t-18.5 -45t-46.5 -18zM800 680h119q-97 -445 -171 -659q-7 -21 -36 -21h-73
q-17 0 -24.5 4.5t-10.5 16.5l-130 475l-128 -475q-7 -21 -36 -21h-73q-17 0 -24 4.5t-11 16.5q-40 121 -89.5 311.5t-82.5 347.5h122q49 -251 127 -526l140 526h114l143 -525q76 272 124 525z" />
    <glyph glyph-name="wdieresis" unicode="&#x1e85;" horiz-adv-x="752" 
d="M284 564q-27 0 -45.5 18t-18.5 45t18.5 44.5t45.5 17.5t45.5 -17.5t18.5 -44.5t-18.5 -45t-45.5 -18zM469 564q-27 0 -45.5 18t-18.5 45t18.5 44.5t45.5 17.5q28 0 46.5 -17.5t18.5 -44.5t-18.5 -45t-46.5 -18zM616 490h109q-56 -257 -136 -471q-7 -19 -26 -19h-77
q-20 0 -26 19l-83 303l-83 -303q-6 -19 -26 -19h-79q-19 0 -26 19q-80 214 -136 471h113q35 -170 92 -358l95 358h102l95 -357q57 191 92 357z" />
    <glyph glyph-name="Ygrave" unicode="&#x1ef2;" horiz-adv-x="588" 
d="M341 740h-92q-52 75 -94 122h119q39 -53 67 -122zM570 680q-79 -193 -217 -424v-256h-117v256q-140 234 -218 424h121q65 -155 157 -314q89 156 155 314h119z" />
    <glyph glyph-name="ygrave" unicode="&#x1ef3;" horiz-adv-x="494" 
d="M296 560h-92q-52 75 -94 122h119q39 -53 67 -122zM363 490h108q-31 -146 -112 -352.5t-133 -297.5h-113q35 61 79 163q-51 107 -97.5 242.5t-71.5 244.5h113q35 -160 112 -359q71 184 115 359z" />
    <glyph glyph-name="endash" unicode="&#x2013;" horiz-adv-x="586" 
d="M41 342h504v-96h-504v96z" />
    <glyph glyph-name="emdash" unicode="&#x2014;" horiz-adv-x="804" 
d="M41 342h722v-96h-722v96z" />
    <glyph glyph-name="quoteleft" unicode="&#x2018;" horiz-adv-x="196" 
d="M34 458v37q0 93 71 185h58q-19 -80 -19 -179v-43h-110z" />
    <glyph glyph-name="quoteright" unicode="&#x2019;" horiz-adv-x="196" 
d="M163 680v-37q0 -92 -72 -185h-57q18 84 18 179v43h111z" />
    <glyph glyph-name="quotesinglbase" unicode="&#x201a;" horiz-adv-x="196" 
d="M163 118v-37q0 -89 -72 -185h-57q18 84 18 180v42h111z" />
    <glyph glyph-name="quotedblleft" unicode="&#x201c;" horiz-adv-x="369" 
d="M34 458v37q0 93 71 185h58q-19 -80 -19 -179v-43h-110zM207 458v37q0 93 71 185h58q-18 -76 -18 -179v-43h-111z" />
    <glyph glyph-name="quotedblright" unicode="&#x201d;" horiz-adv-x="369" 
d="M163 680v-37q0 -92 -72 -185h-57q18 84 18 179v43h111zM336 680v-37q0 -93 -71 -185h-58q18 76 18 179v43h111z" />
    <glyph glyph-name="quotedblbase" unicode="&#x201e;" horiz-adv-x="369" 
d="M163 118v-37q0 -89 -72 -185h-57q18 84 18 180v42h111zM336 118v-37q0 -90 -71 -185h-58q18 76 18 180v42h111z" />
    <glyph glyph-name="dagger" unicode="&#x2020;" horiz-adv-x="466" 
d="M420 490v-93h-135v-492h-106v492h-133v93h133v190h106v-190h135z" />
    <glyph glyph-name="daggerdbl" unicode="&#x2021;" horiz-adv-x="466" 
d="M420 397h-139v-161h139v-93h-139v-238h-98v238h-137v93h137v161h-137v93h137v190h98v-190h139v-93z" />
    <glyph glyph-name="bullet" unicode="&#x2022;" horiz-adv-x="380" 
d="M190 197q-55 0 -92.5 37.5t-37.5 92.5t37.5 92.5t92.5 37.5t92.5 -37.5t37.5 -92.5t-37.5 -92.5t-92.5 -37.5z" />
    <glyph glyph-name="ellipsis" unicode="&#x2026;" horiz-adv-x="633" 
d="M106 -8q-30 0 -51 21t-21 52q0 30 21 50.5t51 20.5t51.5 -20.5t21.5 -50.5q0 -31 -21.5 -52t-51.5 -21zM316 -8q-30 0 -51 21t-21 52q0 30 21 50.5t51 20.5t51.5 -20.5t21.5 -50.5q0 -31 -21.5 -52t-51.5 -21zM526 -8q-30 0 -51 21t-21 52q0 30 21 50.5t51 20.5
t51.5 -20.5t21.5 -50.5q0 -31 -21.5 -52t-51.5 -21z" />
    <glyph glyph-name="perthousand" unicode="&#x2030;" horiz-adv-x="1200" 
d="M196 344q-68 0 -115.5 44.5t-47.5 127.5q0 84 47.5 128.5t115.5 44.5q67 0 115.5 -44.5t48.5 -128.5q0 -83 -48.5 -127.5t-115.5 -44.5zM657 680l-395 -680h-89l394 680h90zM196 419q35 0 56.5 25.5t21.5 71.5t-21.5 72t-56.5 26t-56.5 -26t-21.5 -72t21.5 -71.5
t56.5 -25.5zM634 -8q-68 0 -115.5 44.5t-47.5 128.5q0 83 47.5 128t115.5 45q67 0 115.5 -45t48.5 -128q0 -84 -48.5 -128.5t-115.5 -44.5zM1004 -8q-68 0 -115.5 44.5t-47.5 128.5q0 83 47.5 128t115.5 45q67 0 115.5 -45t48.5 -128q0 -84 -48.5 -128.5t-115.5 -44.5z
M634 67q35 0 56.5 26t21.5 72t-21.5 72t-56.5 26t-56.5 -26t-21.5 -72t21.5 -72t56.5 -26zM1004 67q35 0 56.5 26t21.5 72t-21.5 72t-56.5 26t-56.5 -26t-21.5 -72t21.5 -72t56.5 -26z" />
    <glyph glyph-name="guilsinglleft" unicode="&#x2039;" horiz-adv-x="393" 
d="M340 435l-174 -193l174 -194h-115l-172 194l172 193h115z" />
    <glyph glyph-name="guilsinglright" unicode="&#x203a;" horiz-adv-x="393" 
d="M53 435h115l172 -193l-172 -194h-115l174 194z" />
    <glyph glyph-name="fraction" unicode="&#x2044;" horiz-adv-x="237" 
d="M361 680l-395 -680h-90l395 680h90z" />
    <glyph glyph-name="Euro" unicode="&#x20ac;" horiz-adv-x="560" 
d="M317 89q83 0 106 93h115l-1 -8q-11 -89 -72 -136.5t-147 -47.5q-94 0 -157 61t-77 192h-65v68h61v66h-61v67h66q15 127 78 186.5t155 59.5q86 0 147.5 -47.5t71.5 -135.5l1 -9h-115q-22 92 -106 92q-98 0 -119 -146h172v-67h-177v-66h177v-68h-173q19 -154 120 -154z" />
    <glyph glyph-name="trademark" unicode="&#x2122;" horiz-adv-x="737" 
d="M34 614v66h254v-66h-90v-230h-74v230h-90zM595 680h95v-296h-68v211q-25 -57 -84 -154q-7 -11 -17 -11h-17q-8 0 -15 11q-58 93 -85 153v-210h-68v296h92q44 -91 86 -159q47 83 81 159z" />
    <glyph glyph-name="minus" unicode="&#x2212;" horiz-adv-x="570" 
d="M69 370h432v-92h-432v92z" />
    <glyph glyph-name="approxequal" unicode="&#x2248;" horiz-adv-x="570" 
d="M384 348q-35 0 -100 21.5t-95 21.5q-48 0 -81 -36l-39 60q43 62 117 62q35 0 101 -21.5t96 -21.5q45 0 79 36l39 -60q-45 -62 -117 -62zM384 170q-35 0 -100 21.5t-95 21.5q-48 0 -81 -36l-39 60q44 63 117 63q35 0 101 -22t96 -22q45 0 79 36l39 -60q-45 -62 -117 -62z
" />
    <glyph glyph-name="notequal" unicode="&#x2260;" horiz-adv-x="570" 
d="M501 368h-155l-36 -88h191v-92h-230l-35 -85h-87l35 85h-115v92h153l36 88h-189v92h227l37 89h88l-37 -89h117v-92z" />
    <glyph glyph-name="lessequal" unicode="&#x2264;" horiz-adv-x="570" 
d="M501 525v-99l-310 -89l310 -89v-99l-432 141v98zM69 120h432v-92h-432v92z" />
    <glyph glyph-name="greaterequal" unicode="&#x2265;" horiz-adv-x="570" 
d="M69 525l432 -137v-98l-432 -141v99l310 89l-310 89v99zM501 120v-92h-432v92h432z" />
    <glyph glyph-name="i.loclTRK" horiz-adv-x="251" 
d="M126 564q-28 0 -47 18t-19 45q0 28 19 46t47 18t47 -18t19 -46q0 -27 -19.5 -45t-46.5 -18zM181 490v-490h-110v490h110z" />
    <glyph glyph-name="one.pnum" horiz-adv-x="445" 
d="M223 680h93v-680h-113v526q-57 -47 -154 -86v106q122 69 174 134z" />
    <glyph glyph-name="two.dnom" horiz-adv-x="412" 
d="M187 72h170v-72h-297v61q14 10 47 33t48.5 35t40 33.5t36.5 38.5t21.5 40t9.5 47q0 27 -16 44.5t-43 17.5q-28 0 -45.5 -21t-19.5 -55h-85q2 68 42 107.5t108 39.5q67 0 106 -36.5t39 -96.5q0 -119 -162 -216z" />
    <glyph glyph-name="four.dnom" horiz-adv-x="413" 
d="M380 157v-73h-47v-84h-85v84h-210v34q0 30 9 53q22 54 65.5 122t85.5 121h97q-110 -139 -165 -257h118v100h85v-100h47z" />
    <glyph glyph-name="one.numr" horiz-adv-x="330" 
d="M158 680h68v-414h-86v292q-42 -35 -98 -51v74q71 41 116 99z" />
    <glyph glyph-name="two.numr" horiz-adv-x="412" 
d="M188 340h169v-72h-297v61q14 10 47 33t48.5 35t40 33.5t36.5 38.5t21.5 40t9.5 47q0 27 -16 44.5t-43 17.5q-28 0 -45.5 -21t-19.5 -55h-85q2 68 42 107.5t108 39.5q67 0 106 -36.5t39 -96.5q0 -118 -161 -216z" />
    <glyph glyph-name="three.numr" horiz-adv-x="382" 
d="M276 483q29 -10 48 -35t19 -60q0 -58 -40 -93.5t-111 -35.5q-68 0 -108.5 33t-40.5 92h84q3 -24 19.5 -40t45.5 -16q30 0 47 16.5t17 45.5q0 58 -86 58v63q82 0 82 59q0 25 -15.5 39.5t-43.5 14.5q-27 0 -44 -17.5t-20 -40.5h-80q0 56 39.5 89.5t103.5 33.5
q68 0 105.5 -32t37.5 -83q0 -68 -59 -91z" />
    <glyph glyph-name="caroncomb.alt" 
d="M-34 700q-3 -102 -55 -178h-50q19 95 19 178h86z" />
    <glyph glyph-name="commaccentcomb.alt" horiz-adv-x="181" 
d="M147 730q-15 -81 -15 -148h-98q1 77 48 148h65z" />
    </font>
</defs>
</svg>
