<?xml version="1.0" standalone="no"?>
<!DOCTYPE svg PUBLIC "-//W3C//DTD SVG 1.1//EN" "http://www.w3.org/Graphics/SVG/1.1/DTD/svg11.dtd" >
<svg xmlns="http://www.w3.org/2000/svg" xmlns:xlink="http://www.w3.org/1999/xlink" version="1.1">
<metadata>
Created by FontForge 20161013 at Thu Jan 28 16:32:48 2016
 By ,,,
Copyright (c) 2016 by AIA Group Limited. All rights reserved.
</metadata>
<defs>
<font id="AIAEverest-Regular" horiz-adv-x="570" >
  <font-face 
    font-family="AIA Everest"
    font-weight="400"
    font-stretch="normal"
    units-per-em="1000"
    panose-1="0 0 5 0 0 0 0 0 0 0"
    ascent="750"
    descent="-250"
    x-height="485"
    cap-height="680"
    bbox="-503 -200 1159 909"
    underline-thickness="56"
    underline-position="-242"
    unicode-range="U+0020-2265"
  />
<missing-glyph horiz-adv-x="579" 
d="M100 -100v880h379v-880h-379z" />
    <glyph glyph-name=".notdef" horiz-adv-x="579" 
d="M100 -100v880h379v-880h-379z" />
    <glyph glyph-name=".null" horiz-adv-x="0" 
 />
    <glyph glyph-name="nonmarkingreturn" horiz-adv-x="333" 
 />
    <glyph glyph-name="space" unicode=" " horiz-adv-x="230" 
 />
    <glyph glyph-name="exclam" unicode="!" horiz-adv-x="294" 
d="M191 680q-3 -270 -21 -493h-46q-18 253 -21 493h88zM147 -6q-21 0 -36 15t-15 37q0 21 15 35.5t36 14.5t36.5 -14.5t15.5 -35.5q0 -22 -15.5 -37t-36.5 -15z" />
    <glyph glyph-name="quotedbl" unicode="&#x22;" horiz-adv-x="325" 
d="M47 680h72q0 -140 -18 -232h-35q-19 97 -19 232zM206 680h71q0 -140 -18 -232h-34q-19 97 -19 232z" />
    <glyph glyph-name="numbersign" unicode="#" horiz-adv-x="560" 
d="M533 427h-97l-25 -172h89v-64h-98l-27 -191h-69l27 191h-146l-27 -191h-70l27 191h-90v64h99l24 172h-91v65h100l27 188h69l-26 -188h146l27 188h69l-26 -188h88v-65zM342 255l24 172h-146l-24 -172h146z" />
    <glyph glyph-name="dollar" unicode="$" horiz-adv-x="560" 
d="M496 182q0 -76 -49 -128t-135 -61v-73h-66v73q-91 8 -142.5 58.5t-55.5 123.5l-1 21h77q4 -63 45.5 -100.5t112.5 -37.5q66 0 101.5 32.5t35.5 91.5q0 49 -27.5 75.5t-86.5 48.5l-55 20q-96 35 -138 75.5t-42 107.5q0 71 48 121.5t128 57.5v78h66v-80q75 -11 118 -54
t47 -99l1 -14h-73q-22 103 -139 103q-57 0 -89 -31.5t-32 -76.5q0 -44 29 -69.5t95 -48.5l59 -22q81 -30 124.5 -72.5t43.5 -119.5z" />
    <glyph glyph-name="percent" unicode="%" horiz-adv-x="830" 
d="M196 353q-64 0 -109 43t-45 125q0 81 45 124.5t109 43.5q63 0 109 -43.5t46 -124.5q0 -82 -46 -125t-109 -43zM644 680l-395 -680h-64l395 680h64zM196 410q40 0 64.5 29t24.5 82q0 52 -24.5 81.5t-64.5 29.5t-64.5 -29.5t-24.5 -81.5q0 -53 24.5 -82t64.5 -29zM634 -8
q-64 0 -109 43.5t-45 124.5q0 82 45 125.5t109 43.5q63 0 109 -43.5t46 -125.5q0 -81 -46 -124.5t-109 -43.5zM634 49q40 0 64.5 29.5t24.5 81.5q0 53 -24.5 82.5t-64.5 29.5t-64.5 -29.5t-24.5 -82.5q0 -52 24.5 -81.5t64.5 -29.5z" />
    <glyph glyph-name="ampersand" unicode="&#x26;" horiz-adv-x="582" 
d="M485 97q66 -71 95 -97h-99q-8 5 -43 43q-61 -50 -151 -50q-113 0 -174 61t-61 151q0 128 112 209q-34 71 -34 117q0 69 40 113.5t111 44.5t109 -41t42 -102l1 -15h-74q-4 42 -24 65.5t-55 23.5q-34 0 -53 -22t-19 -64q0 -64 66.5 -168t161.5 -213q26 58 26 142v14h71v-20
q0 -115 -48 -192zM285 58q64 0 106 36q-121 137 -194 259q-69 -54 -69 -146q0 -66 43 -107.5t114 -41.5z" />
    <glyph glyph-name="quotesingle" unicode="'" horiz-adv-x="166" 
d="M47 680h72q0 -140 -18 -232h-35q-19 97 -19 232z" />
    <glyph glyph-name="parenleft" unicode="(" horiz-adv-x="361" 
d="M72 267q0 76 17 144.5t46.5 119.5t57 85.5t58.5 63.5h78q-178 -182 -178 -413t178 -413h-78q-31 29 -58.5 63.5t-57 85.5t-46.5 119.5t-17 144.5z" />
    <glyph glyph-name="parenright" unicode=")" horiz-adv-x="361" 
d="M289 267q0 -76 -17 -144.5t-46.5 -119.5t-57 -85.5t-58.5 -63.5h-78q177 181 177 413t-177 413h78q31 -29 58.5 -63.5t57 -85.5t46.5 -119.5t17 -144.5z" />
    <glyph glyph-name="asterisk" unicode="*" horiz-adv-x="370" 
d="M322 604q-76 -29 -111 -45q45 -20 111 -43q-10 -31 -31 -53q-58 49 -93 74q6 -61 18 -118q-31 -8 -62 0q13 58 17 117q-43 -31 -93 -73q-21 22 -31 53q56 17 111 43q-35 16 -111 45q10 31 31 53q38 -36 94 -75q-7 65 -18 118q31 8 62 0q-12 -57 -18 -117q51 37 93 74
q21 -22 31 -53z" />
    <glyph glyph-name="plus" unicode="+" 
d="M488 357v-66h-169v-170h-68v170h-169v66h169v170h68v-170h169z" />
    <glyph glyph-name="comma" unicode="," horiz-adv-x="197" 
d="M138 87v-29q0 -13 -1.5 -26.5t-4.5 -25.5t-6 -22.5t-8.5 -22t-9 -18.5t-10 -17.5t-9 -15t-9 -14t-7.5 -10.5h-35q19 74 19 163v38h81z" />
    <glyph glyph-name="hyphen" unicode="-" horiz-adv-x="362" 
d="M46 327h270v-66h-270v66z" />
    <glyph glyph-name="period" unicode="." horiz-adv-x="197" 
d="M99 -6q-21 0 -36.5 15t-15.5 37q0 21 15.5 35.5t36.5 14.5t36 -14.5t15 -35.5q0 -22 -15 -37t-36 -15z" />
    <glyph glyph-name="slash" unicode="/" horiz-adv-x="410" 
d="M384 700l-285 -720h-73l284 720h74z" />
    <glyph glyph-name="zero" unicode="0" horiz-adv-x="560" 
d="M280 -9q-97 0 -159 78t-62 244v54q0 166 62 244t159 78t159 -78t62 -244v-54q0 -166 -62 -244t-159 -78zM280 58q144 0 144 260v44q0 260 -144 260t-144 -260v-44q0 -260 144 -260z" />
    <glyph glyph-name="one" unicode="1" horiz-adv-x="560" 
d="M290 680h60v-680h-77v571q-63 -56 -157 -95v69q46 23 95.5 61.5t78.5 73.5z" />
    <glyph glyph-name="two" unicode="2" horiz-adv-x="560" 
d="M183 66h310v-66h-417v61q326 254 326 434q0 60 -31.5 93.5t-93.5 33.5q-60 0 -93.5 -38t-39.5 -101h-74q1 91 56.5 148.5t151.5 57.5q97 0 149 -53.5t52 -141.5q0 -62 -30.5 -128.5t-80 -124t-95 -100t-90.5 -75.5z" />
    <glyph glyph-name="three" unicode="3" horiz-adv-x="560" 
d="M373 360q51 -15 83.5 -59t32.5 -108q0 -92 -56.5 -147t-152.5 -55q-94 0 -150 50.5t-61 129.5l-1 18h74q3 -61 41 -96t98 -35q59 0 95 34.5t36 96.5q0 134 -162 134v64q68 0 107.5 31t39.5 96q0 50 -31 79t-86 29q-109 0 -126 -118h-73q3 89 58.5 137t141.5 48
q87 0 140 -47.5t53 -127.5q0 -56 -29.5 -97t-71.5 -57z" />
    <glyph glyph-name="four" unicode="4" horiz-adv-x="560" 
d="M529 229v-67h-81v-162h-77v162h-321v32q0 35 10 58q36 83 117 216.5t143 211.5h90q-71 -90 -154 -222.5t-129 -228.5h244v183h77v-183h81z" />
    <glyph glyph-name="five" unicode="5" horiz-adv-x="560" 
d="M295 449q93 0 152.5 -59.5t59.5 -160.5q0 -109 -60.5 -173.5t-161.5 -64.5q-94 0 -150.5 48.5t-63.5 123.5l-2 22h74q4 -57 41 -91.5t102 -34.5q67 0 105.5 44t38.5 125q0 73 -36.5 113.5t-104.5 40.5q-45 0 -80.5 -20t-52.5 -49l-70 9q2 49 15 167.5t26 190.5h333v-66
h-272q-16 -90 -26 -215q43 50 133 50z" />
    <glyph glyph-name="six" unicode="6" horiz-adv-x="560" 
d="M294 449q95 0 152.5 -59.5t57.5 -162.5q0 -106 -62 -171t-161 -65q-98 0 -158.5 62t-60.5 169v30q0 110 67 230.5t155 197.5h103q-76 -68 -129 -133.5t-90 -151.5q35 54 126 54zM282 59q68 0 106.5 44.5t38.5 120.5t-36 117t-108 41q-74 0 -109.5 -42.5t-35.5 -119.5
t37.5 -119t106.5 -42z" />
    <glyph glyph-name="seven" unicode="7" horiz-adv-x="560" 
d="M59 680h424v-62q-33 -121 -115.5 -319.5t-132.5 -298.5h-84q67 131 140.5 307.5t112.5 306.5h-345v66z" />
    <glyph glyph-name="eight" unicode="8" horiz-adv-x="560" 
d="M362 363q63 -32 100.5 -75.5t37.5 -109.5q0 -84 -62 -136.5t-158 -52.5q-99 0 -161 51.5t-62 135.5q0 127 143 191q-112 65 -112 157q0 75 54.5 121.5t140.5 46.5q87 0 141.5 -45.5t54.5 -121.5q0 -103 -117 -162zM165 528q0 -39 27 -69t99 -63q111 40 111 126
q0 45 -31 74.5t-88 29.5q-55 0 -86.5 -28t-31.5 -70zM279 54q65 0 104.5 34.5t39.5 86.5q0 53 -37 88.5t-115 69.5q-62 -19 -99.5 -60t-37.5 -96q0 -53 40.5 -88t104.5 -35z" />
    <glyph glyph-name="nine" unicode="9" horiz-adv-x="560" 
d="M173 0q158 145 229 323l-5 -11q-36 -64 -134 -64q-93 0 -149.5 59.5t-56.5 158.5q0 102 62 162.5t157 60.5t156 -59t61 -163v-20q0 -110 -68 -238t-154 -209h-98zM276 315q140 0 140 154q0 67 -38.5 109.5t-101.5 42.5q-65 0 -104 -42.5t-39 -110.5q0 -72 37.5 -112.5
t105.5 -40.5z" />
    <glyph glyph-name="colon" unicode=":" horiz-adv-x="227" 
d="M114 388q-21 0 -36.5 15t-15.5 36t15.5 36t36.5 15t36 -14.5t15 -36.5t-15 -36.5t-36 -14.5zM114 -6q-21 0 -36.5 15t-15.5 37q0 21 15.5 35.5t36.5 14.5t36 -14.5t15 -35.5q0 -22 -15 -37t-36 -15z" />
    <glyph glyph-name="semicolon" unicode=";" horiz-adv-x="227" 
d="M114 388q-21 0 -36.5 15t-15.5 36t15.5 36t36.5 15t36 -14.5t15 -36.5t-15 -36.5t-36 -14.5zM153 87v-29q0 -13 -1.5 -26.5t-4.5 -25.5t-6 -22.5t-8.5 -22t-9 -18.5t-10 -17.5t-9 -15t-9 -14t-7.5 -10.5h-35q19 74 19 163v38h81z" />
    <glyph glyph-name="less" unicode="&#x3c;" 
d="M488 499v-69l-320 -109l320 -108v-69l-406 144v66z" />
    <glyph glyph-name="equal" unicode="=" 
d="M82 435h406v-65h-406v65zM82 278h406v-65h-406v65z" />
    <glyph glyph-name="greater" unicode="&#x3e;" 
d="M82 499l406 -145v-66l-406 -144v69l320 108l-320 109v69z" />
    <glyph glyph-name="question" unicode="?" horiz-adv-x="407" 
d="M172 182q0 1 13.5 25.5t17.5 32t17 33.5t19 40t17 38.5t16.5 42t12 39.5t9 41.5t2.5 36.5q0 53 -24.5 82t-68.5 29q-92 0 -100 -118h-71v13q0 73 45.5 122.5t126.5 49.5q80 0 125 -48t45 -123q0 -21 -3.5 -44t-10.5 -46.5t-14 -44t-18.5 -44t-19.5 -40t-20.5 -38
t-18.5 -31.5t-17.5 -28t-12.5 -20h-67zM202 -6q-22 0 -37 15t-15 37t15 36t37 14q21 0 36 -14.5t15 -35.5q0 -22 -15 -37t-36 -15z" />
    <glyph glyph-name="at" unicode="@" horiz-adv-x="863" 
d="M520 445h70v-252q0 -92 63 -92q80 0 80 182q0 136 -83 218t-216 82q-135 0 -219.5 -90.5t-84.5 -241.5t89 -239.5t220 -88.5q105 0 184 52l38 -53q-93 -61 -224 -61q-163 0 -270 108.5t-107 281.5q0 176 106 285t268 109t265.5 -101.5t103.5 -260.5q0 -116 -39 -177.5
t-112 -61.5q-42 0 -73.5 20.5t-42.5 59.5q-13 -39 -46.5 -59.5t-76.5 -20.5q-70 0 -117 55t-47 150q0 94 45.5 149.5t113.5 55.5q82 0 112 -60v51zM422 109q45 0 70 37t25 103q0 68 -24.5 104t-69.5 36t-72 -36.5t-27 -103.5q0 -68 27 -104t71 -36z" />
    <glyph glyph-name="A" unicode="A" horiz-adv-x="617" 
d="M508 0q-20 79 -52 187h-296q-28 -95 -53 -187h-79q44 161 107 352t113 307q5 12 12 16.5t24 4.5h51q16 0 23.5 -4.5t13.5 -16.5q94 -210 217 -659h-81zM180 254h256q-67 219 -126 368q-59 -142 -130 -368z" />
    <glyph glyph-name="B" unicode="B" horiz-adv-x="632" 
d="M454 357q56 -17 90.5 -60t34.5 -107q0 -93 -61.5 -141.5t-165.5 -48.5h-256v680h258q91 0 144.5 -47.5t53.5 -128.5q0 -55 -27.5 -93.5t-70.5 -53.5zM175 615v-231h164q66 0 100.5 31.5t34.5 86.5t-35.5 84t-101.5 29h-162zM339 65q83 0 121.5 31.5t38.5 95.5
q0 61 -40.5 93.5t-117.5 32.5h-166v-253h164z" />
    <glyph glyph-name="C" unicode="C" horiz-adv-x="591" 
d="M315 -12q-112 0 -183.5 80t-71.5 252v40q0 172 71.5 252t183.5 80q95 0 156 -50t72 -122l2 -13h-79q-38 116 -151 116q-175 0 -175 -266v-34q0 -266 175 -266q122 0 152 126h80l-2 -13q-12 -80 -73.5 -131t-156.5 -51z" />
    <glyph glyph-name="D" unicode="D" horiz-adv-x="640" 
d="M96 0v680h192q59 0 109.5 -17t92.5 -53t66 -101.5t24 -153.5v-30q0 -88 -24 -153t-66 -101.5t-92.5 -53.5t-109.5 -17h-192zM175 66h108q104 0 161 65t57 197v24q0 133 -57 197.5t-161 64.5h-108v-548z" />
    <glyph glyph-name="E" unicode="E" 
d="M175 66h342v-66h-421v680h412v-66h-333v-235h310v-66h-310v-247z" />
    <glyph glyph-name="F" unicode="F" horiz-adv-x="559" 
d="M508 614h-333v-235h310v-66h-310v-313h-79v680h412v-66z" />
    <glyph glyph-name="G" unicode="G" horiz-adv-x="622" 
d="M321 -12q-115 0 -188 80t-73 252v40q0 172 73 252t188 80q96 0 156.5 -49t71.5 -115l2 -13h-79q-18 52 -53.5 80t-98.5 28q-51 0 -87.5 -22t-56 -61t-28 -84t-8.5 -99v-34q0 -54 8.5 -99t28 -84t56 -61t87.5 -22q163 0 163 201v31h-162v66h241v-100q0 -138 -66.5 -202.5
t-174.5 -64.5z" />
    <glyph glyph-name="H" unicode="H" horiz-adv-x="690" 
d="M514 680h80v-680h-80v313h-339v-313h-79v680h79v-301h339v301z" />
    <glyph glyph-name="I" unicode="I" horiz-adv-x="279" 
d="M179 680v-680h-79v680h79z" />
    <glyph glyph-name="J" unicode="J" horiz-adv-x="413" 
d="M22 78q46 -17 98 -17q61 0 90.5 32t29.5 106v481h80v-484q0 -204 -194 -204q-62 0 -104 17v69z" />
    <glyph glyph-name="K" unicode="K" horiz-adv-x="618" 
d="M600 0h-83q-31 64 -92.5 167.5t-112.5 171.5q-69 -72 -137 -135v-204h-79v680h79v-385q208 210 320 385h84q-77 -132 -213 -282q65 -92 135.5 -212t98.5 -186z" />
    <glyph glyph-name="L" unicode="L" horiz-adv-x="539" 
d="M175 66h329v-66h-408v680h79v-614z" />
    <glyph glyph-name="M" unicode="M" horiz-adv-x="789" 
d="M591 680h102v-680h-76v571q-101 -239 -189 -397q-11 -19 -29 -19h-9q-18 0 -27 19q-97 179 -191 396v-570h-76v680h100q113 -254 201 -424q103 194 194 424z" />
    <glyph glyph-name="N" unicode="N" horiz-adv-x="692" 
d="M520 680h76v-680h-70l-354 566v-566h-76v680h85l339 -541v541z" />
    <glyph glyph-name="O" unicode="O" horiz-adv-x="643" 
d="M322 -12q-116 0 -189 80t-73 252v40q0 172 73 252t189 80q115 0 188.5 -80t73.5 -252v-40q0 -172 -73.5 -252t-188.5 -80zM322 57q182 0 182 266v34q0 266 -182 266t-182 -266v-34q0 -266 182 -266z" />
    <glyph glyph-name="P" unicode="P" horiz-adv-x="597" 
d="M334 680q96 0 159.5 -54t63.5 -153t-63.5 -152.5t-159.5 -53.5h-159v-267h-79v680h238zM321 333q74 0 115.5 35t41.5 105t-41.5 105.5t-115.5 35.5h-146v-281h146z" />
    <glyph glyph-name="Q" unicode="Q" horiz-adv-x="643" 
d="M584 320q0 -252 -164 -315q37 -34 122 -34q19 0 35 2v-62q-23 -6 -50 -6q-53 0 -103.5 20t-77.5 64q-8 -1 -24 -1q-116 0 -189 80t-73 252v40q0 172 73 252t189 80q115 0 188.5 -80t73.5 -252v-40zM322 57q182 0 182 266v34q0 266 -182 266t-182 -266v-34
q0 -266 182 -266z" />
    <glyph glyph-name="R" unicode="R" horiz-adv-x="622" 
d="M584 0h-87q-104 192 -185 293h-137v-293h-79v680h247q98 0 155 -52.5t57 -139.5q0 -74 -43.5 -124.5t-112.5 -61.5q47 -61 101 -152t84 -150zM175 614v-255h159q70 0 106 34t36 94t-36 93.5t-106 33.5h-159z" />
    <glyph glyph-name="S" unicode="S" horiz-adv-x="569" 
d="M499 518h-77q-8 47 -44.5 75.5t-100.5 28.5q-62 0 -97.5 -31t-35.5 -77q0 -47 29.5 -72t99.5 -47l67 -20q85 -26 132 -69t47 -123q0 -88 -61 -140t-167 -52q-113 0 -177.5 52.5t-68.5 132.5l-1 20h77q6 -64 50 -101t120 -37q70 0 109 33t39 92q0 49 -30.5 76.5
t-89.5 44.5l-63 19q-102 31 -146 72t-44 114q0 79 58 129.5t155 50.5q98 0 156 -45.5t63 -111.5z" />
    <glyph glyph-name="T" unicode="T" horiz-adv-x="541" 
d="M514 680v-66h-204v-614h-79v614h-204v66h487z" />
    <glyph glyph-name="U" unicode="U" horiz-adv-x="670" 
d="M496 680h80v-466q0 -114 -64 -168.5t-177 -54.5t-177 54.5t-64 168.5v466h79v-459q0 -164 162 -164q79 0 120 39t41 125v459z" />
    <glyph glyph-name="V" unicode="V" horiz-adv-x="600" 
d="M489 680h82q-133 -476 -214 -659q-10 -21 -37 -21h-38q-18 0 -24.5 4.5t-11.5 16.5q-49 116 -111.5 308t-105.5 351h86q87 -335 189 -597q100 270 185 597z" />
    <glyph glyph-name="W" unicode="W" horiz-adv-x="934" 
d="M818 680h81q-92 -425 -175 -659q-7 -21 -36 -21h-39q-17 0 -24.5 4.5t-10.5 16.5l-147 533l-145 -533q-7 -21 -36 -21h-39q-17 0 -24 4.5t-11 16.5q-92 269 -177 659h85q59 -294 150 -591l159 591h80l162 -591q91 301 147 591z" />
    <glyph glyph-name="X" unicode="X" horiz-adv-x="578" 
d="M542 0h-84q-89 179 -170 300q-63 -95 -171 -300h-81q86 171 205 358q-118 175 -195 322h83q71 -134 160 -265q89 131 160 265h80q-80 -155 -193 -322q111 -171 206 -358z" />
    <glyph glyph-name="Y" unicode="Y" horiz-adv-x="563" 
d="M540 680q-81 -196 -218 -425v-255h-80v255q-140 235 -219 425h82q75 -177 178 -351q105 180 176 351h81z" />
    <glyph glyph-name="Z" unicode="Z" horiz-adv-x="575" 
d="M142 66h390v-66h-486v53l386 561h-372v66h469v-52z" />
    <glyph glyph-name="bracketleft" unicode="[" horiz-adv-x="333" 
d="M292 680v-53h-125v-725h125v-53h-200v831h200z" />
    <glyph glyph-name="backslash" unicode="\" horiz-adv-x="410" 
d="M26 700h74l284 -720h-73z" />
    <glyph glyph-name="bracketright" unicode="]" horiz-adv-x="333" 
d="M41 680h200v-831h-200v53h125v725h-125v53z" />
    <glyph glyph-name="asciicircum" unicode="^" 
d="M511 264h-75l-151 330l-153 -330h-73l194 416h64z" />
    <glyph glyph-name="underscore" unicode="_" horiz-adv-x="502" 
d="M-5 -102h512v-56h-512v56z" />
    <glyph glyph-name="grave" unicode="`" horiz-adv-x="254" 
d="M47 680h93q39 -54 67 -120h-72q-48 72 -88 120z" />
    <glyph glyph-name="a" unicode="a" horiz-adv-x="506" 
d="M421 113q0 -33 9.5 -43.5t32.5 -10.5v-58q-10 -5 -28 -5q-70 0 -82 64q-42 -69 -142 -69q-73 0 -115.5 37t-42.5 98q0 80 70.5 125.5t223.5 64.5v12q0 104 -103 104q-91 0 -106 -80h-70q3 63 51.5 102.5t124.5 39.5q82 0 129.5 -40.5t47.5 -120.5v-220zM224 54
q53 0 88 28.5t35 77.5v100q-113 -18 -167 -46.5t-54 -82.5q0 -37 25.5 -57t72.5 -20z" />
    <glyph glyph-name="b" unicode="b" horiz-adv-x="550" 
d="M306 494q87 0 140 -63t53 -180v-17q0 -117 -53 -180t-140 -63q-104 0 -150 81v-72h-71v700h74v-281q47 75 147 75zM425 234v17q0 77 -31 128t-102 51q-68 0 -100.5 -50t-32.5 -123v-29q0 -72 32.5 -122t100.5 -50q71 0 102 50.5t31 127.5z" />
    <glyph glyph-name="c" unicode="c" horiz-adv-x="491" 
d="M449 163l-1 -11q-7 -73 -61.5 -117t-128.5 -44q-95 0 -151 63t-56 180v17q0 117 56.5 180t151.5 63q77 0 129 -41.5t58 -106.5l1 -11h-74q-23 95 -116 95q-70 0 -101 -51t-31 -128v-17q0 -76 30.5 -127t100.5 -51q101 0 121 107h72z" />
    <glyph glyph-name="d" unicode="d" horiz-adv-x="550" 
d="M390 700h74v-700h-70v72q-46 -81 -150 -81q-87 0 -140 63t-53 180v17q0 117 53 180t140 63q101 0 146 -75v281zM258 56q68 0 100 50t32 122v29q0 73 -32 123t-100 50q-71 0 -102 -51t-31 -128v-17q0 -77 31 -127.5t102 -50.5z" />
    <glyph glyph-name="e" unicode="e" horiz-adv-x="508" 
d="M458 232h-333q1 -75 32.5 -125.5t100.5 -50.5q91 0 117 81h76q-34 -146 -196 -146q-92 0 -148 63t-56 180v17q0 116 57.5 179.5t148.5 63.5q92 0 146.5 -58.5t54.5 -161.5v-42zM255 429q-110 0 -127 -137h257q-11 137 -130 137z" />
    <glyph glyph-name="f" unicode="f" horiz-adv-x="324" 
d="M296 639q-64 7 -88.5 -13t-24.5 -79v-62h107v-57h-107v-428h-74v428h-80v57h80v78q0 68 36 105t104 37q27 0 47 -5v-61z" />
    <glyph glyph-name="g" unicode="g" horiz-adv-x="538" 
d="M386 485h71v-477q0 -88 -53 -132.5t-141 -44.5q-85 0 -135.5 32.5t-57.5 89.5l-1 9h78q18 -69 115 -69q60 0 90.5 28.5t30.5 91.5v77q-47 -70 -142 -70q-83 0 -135.5 60.5t-52.5 170.5v12q0 110 52.5 170.5t135.5 60.5q100 0 145 -75v66zM256 85q68 0 97.5 48t29.5 121v6
q0 74 -29.5 122t-97.5 48q-69 0 -99 -48t-30 -121v-8q0 -72 30 -120t99 -48z" />
    <glyph glyph-name="h" unicode="h" horiz-adv-x="552" 
d="M300 494q76 0 123.5 -47t47.5 -126v-321h-74v308q0 54 -28 88t-85 34q-56 0 -90.5 -35.5t-34.5 -86.5v-308h-74v700h74v-278q48 72 141 72z" />
    <glyph glyph-name="i" unicode="i" horiz-adv-x="245" 
d="M123 576q-22 0 -37 14.5t-15 36.5t15 36.5t37 14.5t36.5 -14.5t14.5 -36.5t-14.5 -36.5t-36.5 -14.5zM159 485v-485h-74v485h74z" />
    <glyph glyph-name="j" unicode="j" horiz-adv-x="245" 
d="M122 576q-21 0 -36 14.5t-15 36.5t15 36.5t36 14.5q22 0 37 -14.5t15 -36.5t-15 -36.5t-37 -14.5zM7 -162v63q36 3 57 24.5t21 78.5v481h74v-471q0 -97 -37.5 -136.5t-114.5 -39.5z" />
    <glyph glyph-name="k" unicode="k" horiz-adv-x="499" 
d="M471 0h-77q-55 121 -136 232q-51 -52 -98 -92v-140h-75v700h75v-480q137 129 216 265h78q-57 -102 -146 -199q111 -163 163 -286z" />
    <glyph glyph-name="l" unicode="l" horiz-adv-x="260" 
d="M154 700v-577q0 -41 16.5 -56t56.5 -12v-54q-13 -8 -42 -8q-105 0 -105 123v584h74z" />
    <glyph glyph-name="m" unicode="m" horiz-adv-x="822" 
d="M578 494q73 0 117.5 -46t44.5 -126v-322h-74v309q0 55 -24.5 88t-77.5 33q-51 0 -82.5 -35.5t-31.5 -86.5v-308h-74v308q0 54 -25 88t-77 34q-51 0 -83 -35t-32 -87v-308h-74v485h71v-68q40 77 134 77q99 0 140 -83q48 83 148 83z" />
    <glyph glyph-name="n" unicode="n" horiz-adv-x="552" 
d="M300 494q76 0 123.5 -47t47.5 -126v-321h-74v308q0 54 -28 88t-85 34q-56 0 -90.5 -35.5t-34.5 -86.5v-308h-74v485h71v-69q44 78 144 78z" />
    <glyph glyph-name="o" unicode="o" horiz-adv-x="515" 
d="M258 -9q-93 0 -150 63t-57 180v17q0 117 57 180t150 63q92 0 149 -63t57 -180v-17q0 -117 -57 -180t-149 -63zM258 56q70 0 101 51t31 127v17q0 77 -31 127.5t-101 50.5q-71 0 -102 -50.5t-31 -127.5v-17q0 -76 31 -127t102 -51z" />
    <glyph glyph-name="p" unicode="p" horiz-adv-x="550" 
d="M306 494q87 0 140 -63t53 -180v-17q0 -117 -53 -180t-140 -63q-100 0 -147 75v-226h-74v645h71v-72q45 81 150 81zM425 234v17q0 77 -31 128t-102 51q-68 0 -100.5 -50t-32.5 -123v-29q0 -72 32.5 -122t100.5 -50q71 0 102 50.5t31 127.5z" />
    <glyph glyph-name="q" unicode="q" horiz-adv-x="550" 
d="M394 485h70v-645h-74v226q-45 -75 -146 -75q-87 0 -140 63t-53 180v17q0 117 53 180t140 63q105 0 150 -81v72zM258 56q68 0 100 50t32 122v29q0 73 -32 123t-100 50q-71 0 -102 -51t-31 -128v-17q0 -77 31 -127.5t102 -50.5z" />
    <glyph glyph-name="r" unicode="r" horiz-adv-x="355" 
d="M299 489q26 0 42 -4v-73q-20 3 -40 3q-71 0 -106.5 -45.5t-35.5 -122.5v-247h-74v485h71v-106q12 43 48 76.5t95 33.5z" />
    <glyph glyph-name="s" unicode="s" horiz-adv-x="455" 
d="M226 494q75 0 118.5 -33.5t49.5 -85.5l1 -10h-72q-5 29 -32 48t-71 19q-40 0 -63.5 -18t-23.5 -50q0 -30 22.5 -46t73.5 -30l37 -11q73 -21 108 -53.5t35 -91.5q0 -65 -47 -103t-129 -38q-83 0 -131 38.5t-53 99.5l-1 13h75q2 -38 32.5 -63.5t78.5 -25.5q103 0 103 76
q0 35 -20 52.5t-70 31.5l-44 13q-32 9 -50.5 16t-43 22t-36.5 38.5t-12 55.5q0 59 43 97.5t122 38.5z" />
    <glyph glyph-name="t" unicode="t" horiz-adv-x="323" 
d="M233 -5q-125 0 -125 133v300h-79v57h80v127h74v-127h107v-57h-107v-288q0 -43 15 -62.5t55 -19.5q15 0 37 3v-58q-25 -8 -57 -8z" />
    <glyph glyph-name="u" unicode="u" horiz-adv-x="544" 
d="M385 485h74v-485h-71v60q-47 -69 -141 -69q-74 0 -120 47t-46 126v321h74v-308q0 -54 27 -87.5t82 -33.5q54 0 87.5 35t33.5 86v308z" />
    <glyph glyph-name="v" unicode="v" horiz-adv-x="474" 
d="M367 485h75q-79 -292 -151 -466q-7 -19 -26 -19h-56q-19 0 -26 19q-72 174 -151 466h79q47 -200 128 -420q78 216 128 420z" />
    <glyph glyph-name="w" unicode="w" horiz-adv-x="738" 
d="M629 485h74q-59 -272 -131 -466q-7 -19 -26 -19h-54q-20 0 -26 19l-96 349l-95 -349q-6 -19 -26 -19h-58q-19 0 -26 19q-74 203 -131 466h77q37 -187 112 -420l111 420h73l112 -418q73 232 110 418z" />
    <glyph glyph-name="x" unicode="x" horiz-adv-x="456" 
d="M428 0h-79q-56 111 -122 211q-66 -100 -122 -211h-77q69 132 147 251q-83 122 -142 234h80q61 -118 115 -194q56 84 114 194h78q-62 -116 -142 -231q88 -135 150 -254z" />
    <glyph glyph-name="y" unicode="y" horiz-adv-x="472" 
d="M369 485h72q-30 -146 -110 -349.5t-132 -295.5h-76q35 65 77 160q-103 219 -168 485h77q37 -166 130 -400q87 221 130 400z" />
    <glyph glyph-name="z" unicode="z" horiz-adv-x="449" 
d="M131 63h280v-63h-373v51l277 372h-266v62h358v-51z" />
    <glyph glyph-name="braceleft" unicode="{" horiz-adv-x="370" 
d="M329 680v-53h-40q-35 0 -53.5 -11t-18.5 -42v-189q0 -98 -94 -119v-2q94 -20 94 -119v-193q0 -30 18 -40t54 -10h40v-53h-49q-73 0 -105.5 28t-32.5 111v147q0 52 -22 76.5t-68 24.5v58q90 0 90 102v145q0 83 32.5 111t105.5 28h49z" />
    <glyph glyph-name="bar" unicode="|" horiz-adv-x="336" 
d="M204 736v-815h-72v815h72z" />
    <glyph glyph-name="braceright" unicode="}" horiz-adv-x="359" 
d="M41 680h49q73 0 105.5 -28t32.5 -111v-145q0 -102 90 -102v-58q-46 0 -68 -24.5t-22 -76.5v-147q0 -83 -32.5 -111t-105.5 -28h-49v53h40q36 0 54 10t18 40v193q0 99 94 119v2q-94 21 -94 119v189q0 31 -18.5 42t-53.5 11h-40v53z" />
    <glyph glyph-name="asciitilde" unicode="~" 
d="M199 401q38 0 95.5 -32.5t78.5 -32.5q52 0 52 64h63q0 -54 -29 -90t-81 -36q-34 0 -89.5 32.5t-88.5 32.5q-26 0 -40.5 -18.5t-14.5 -45.5h-63q0 48 31 87t86 39z" />
    <glyph glyph-name="uni00A0" unicode="&#xa0;" horiz-adv-x="600" 
 />
    <glyph glyph-name="exclamdown" unicode="&#xa1;" horiz-adv-x="294" 
d="M147 495q21 0 36.5 -15t15.5 -37q0 -21 -15.5 -35.5t-36.5 -14.5t-36 14.5t-15 35.5q0 22 15 37t36 15zM103 -191q3 240 21 493h46q18 -223 21 -493h-88z" />
    <glyph glyph-name="cent" unicode="&#xa2;" horiz-adv-x="560" 
d="M408 163h72l-1 -11q-6 -65 -51 -107.5t-109 -51.5v-73h-64v73q-81 12 -127 73.5t-46 167.5v17q0 106 46 167.5t127 73.5v73h64v-72q66 -8 109.5 -48.5t48.5 -98.5l1 -11h-74q-23 95 -116 95q-70 0 -101 -51t-31 -128v-17q0 -76 30.5 -127t100.5 -51q103 0 121 107z" />
    <glyph glyph-name="sterling" unicode="&#xa3;" horiz-adv-x="560" 
d="M220 231q0 -106 -78 -165h350v-66h-436v50q91 79 91 181q0 27 -7 66h-65v58h52q-24 96 -24 138q0 85 56.5 140.5t145.5 55.5q82 0 137 -47t60 -122l1 -14h-75q-5 53 -38.5 84.5t-85.5 31.5q-55 0 -89.5 -35t-34.5 -99q0 -43 21 -133h184v-58h-173q8 -37 8 -66z" />
    <glyph glyph-name="currency" unicode="&#xa4;" horiz-adv-x="560" 
d="M423 519l44 -44l-45 -44q30 -41 30 -99t-30 -99l45 -45l-44 -43l-45 46q-41 -25 -96 -25q-56 0 -100 27l-46 -48l-43 44l46 45q-28 40 -28 98t29 98l-48 46l44 43l46 -47q47 26 100 26q55 0 96 -25zM282 442q-47 0 -76 -29t-29 -81t29 -81t76 -29t75 29t28 81t-28 81
t-75 29z" />
    <glyph glyph-name="yen" unicode="&#xa5;" horiz-adv-x="560" 
d="M527 680q-57 -135 -138 -279h102v-53h-133q-12 -22 -38 -64v-20h171v-54h-171v-210h-77v210h-171v54h171v19q-33 56 -38 65h-133v53h101q-82 146 -139 279h84q72 -169 165 -326q83 141 163 326h81z" />
    <glyph glyph-name="brokenbar" unicode="&#xa6;" horiz-adv-x="336" 
d="M132 407v329h72v-329h-72zM204 250v-329h-72v329h72z" />
    <glyph glyph-name="section" unicode="&#xa7;" horiz-adv-x="522" 
d="M472 256q0 -105 -105 -146q51 -40 51 -103q0 -62 -43 -102t-114 -40q-78 0 -120.5 38t-45.5 95l-1 18h67q2 -42 27.5 -66t73.5 -24q41 0 66 21t25 54q0 15 -5.5 27.5t-12 20.5t-20.5 18t-23 15t-29 14.5t-29 14.5q-7 4 -39.5 20t-41 21t-33.5 20t-33 25t-21 26.5
t-17.5 34.5t-4.5 40q0 52 28.5 89.5t76.5 56.5q-51 41 -51 103t43 102t114 40q78 0 120.5 -38t45.5 -95l1 -18h-66q-7 90 -102 90q-40 0 -65 -21t-25 -54q0 -15 5 -27.5t11.5 -21t21 -18t23.5 -14.5t28.5 -14.5t28.5 -14.5l35 -17.5t36 -18.5t30.5 -17.5t30 -20t23 -21.5
t20 -26.5t10.5 -29.5t5 -36zM323 139q34 11 58 40.5t24 67.5q0 20 -8.5 38t-19.5 30t-32.5 25t-35 19.5t-39.5 18.5t-35 16q-23 10 -42 21q-35 -12 -58.5 -41.5t-23.5 -66.5q0 -24 9.5 -43.5t33 -36.5t37 -25t49 -23.5t41.5 -18.5q23 -10 42 -21z" />
    <glyph glyph-name="dieresis" unicode="&#xa8;" horiz-adv-x="380" 
d="M100 574q-23 0 -38 15t-15 37t15 37t38 15t38.5 -15t15.5 -37t-15.5 -37t-38.5 -15zM279 574q-23 0 -38 15t-15 37t15 37t38 15t38 -15t15 -37t-15 -37t-38 -15z" />
    <glyph glyph-name="copyright" unicode="&#xa9;" horiz-adv-x="823" 
d="M412 -11q-156 0 -254 98.5t-98 252.5t98 252.5t254 98.5q155 0 253 -98.5t98 -252.5t-98 -252.5t-253 -98.5zM412 45q127 0 206.5 82t79.5 213t-79.5 213t-206.5 82q-128 0 -207.5 -82t-79.5 -213t79.5 -213t207.5 -82zM411 139q-71 0 -119.5 50.5t-48.5 134.5v32
q0 87 48.5 136.5t120.5 49.5q65 0 109.5 -35t48.5 -84l1 -12h-67q-5 35 -28.5 54.5t-61.5 19.5q-51 0 -77 -38t-26 -96v-21q0 -58 26 -96t77 -38q81 0 90 79h67l-1 -12q-4 -52 -46.5 -88t-112.5 -36z" />
    <glyph glyph-name="guillemotleft" unicode="&#xab;" horiz-adv-x="586" 
d="M317 435l-179 -193l179 -194h-79l-176 194l176 193h79zM524 435l-179 -193l179 -194h-79l-176 194l176 193h79z" />
    <glyph glyph-name="logicalnot" unicode="&#xac;" 
d="M488 357v-207h-66v141h-340v66h406z" />
    <glyph glyph-name="registered" unicode="&#xae;" horiz-adv-x="470" 
d="M235 759q88 0 144.5 -57t56.5 -144t-56.5 -144t-144.5 -57t-144 57t-56 144t56 144t144 57zM235 395q72 0 115 46t43 117t-43 117t-115 46t-114.5 -46t-42.5 -117t42.5 -117t114.5 -46zM319 604q0 -46 -45 -61q35 -54 50 -89h-45q-24 50 -46 85h-28v-85h-41v217h82
q31 0 52 -17t21 -50zM206 637v-65h33q39 0 39 32q0 33 -39 33h-33z" />
    <glyph glyph-name="macron" unicode="&#xaf;" horiz-adv-x="320" 
d="M47 647h226v-63h-226v63z" />
    <glyph glyph-name="degree" unicode="&#xb0;" horiz-adv-x="350" 
d="M175 439q-54 0 -91 36t-37 90t37 90t91 36q55 0 91.5 -36t36.5 -90q0 -55 -36.5 -90.5t-91.5 -35.5zM175 491q32 0 52.5 20.5t20.5 53.5q0 32 -20.5 53t-52.5 21q-31 0 -51.5 -21t-20.5 -53q0 -33 20 -53.5t52 -20.5z" />
    <glyph glyph-name="plusminus" unicode="&#xb1;" 
d="M319 412h169v-66h-169v-170h-68v170h-169v66h169v170h68v-170zM82 31v66h406v-66h-406z" />
    <glyph glyph-name="uni00B2" unicode="&#xb2;" horiz-adv-x="407" 
d="M162 362h182v-54h-276v48l36 27t38 29t33 27t32.5 29.5t25 28.5t22 32t12 32.5t5.5 36.5q0 31 -19 52t-51 21q-33 0 -53.5 -22.5t-22.5 -61.5h-63q2 68 39.5 105t100.5 37q60 0 96.5 -36t36.5 -92q0 -125 -174 -239z" />
    <glyph glyph-name="uni00B3" unicode="&#xb3;" horiz-adv-x="374" 
d="M258 523q29 -10 48 -35.5t19 -60.5q0 -58 -36.5 -93t-101.5 -35q-61 0 -97.5 32t-36.5 88h61q3 -28 22 -46t52 -18q34 0 53.5 19t19.5 52q0 69 -91 69v49q37 0 62 16.5t25 51.5q0 31 -18 48t-50 17q-31 0 -50.5 -20t-22.5 -46h-57q0 52 36 85t93 33q61 0 95 -31.5
t34 -81.5q0 -70 -59 -93z" />
    <glyph glyph-name="acute" unicode="&#xb4;" horiz-adv-x="254" 
d="M207 680q-45 -54 -89 -120h-71q28 66 67 120h93z" />
    <glyph glyph-name="paragraph" unicode="&#xb6;" horiz-adv-x="632" 
d="M537 680v-850h-67v784h-102v-784h-66v444h-42q-85 0 -142.5 53.5t-57.5 137.5v25q0 84 57.5 137t142.5 53h277z" />
    <glyph glyph-name="periodcentered" unicode="&#xb7;" horiz-adv-x="292" 
d="M146 264q-21 0 -36 15t-15 37q0 21 15 35.5t36 14.5t36 -14.5t15 -35.5q0 -22 -15 -37t-36 -15z" />
    <glyph glyph-name="cedilla" unicode="&#xb8;" horiz-adv-x="282" 
d="M148 -39q40 0 63.5 -18.5t23.5 -52.5q0 -36 -26 -57.5t-69 -21.5q-56 0 -93 29l26 41q30 -22 67 -22q40 0 40 31q0 29 -48 29q-16 0 -31 -5l-17 22l34 73h52z" />
    <glyph glyph-name="uni00B9" unicode="&#xb9;" horiz-adv-x="335" 
d="M171 720h46v-414h-64v313q-48 -40 -98 -54v56q75 43 116 99z" />
    <glyph glyph-name="guillemotright" unicode="&#xbb;" horiz-adv-x="586" 
d="M62 435h78l177 -193l-177 -194h-78l178 194zM269 435h78l177 -193l-177 -194h-78l178 194z" />
    <glyph glyph-name="onequarter" unicode="&#xbc;" horiz-adv-x="904" 
d="M217 266h-64v313q-48 -40 -98 -54v56q75 43 116 99h46v-414zM609 680h64l-395 -680h-64zM861 148v-55h-52v-93h-62v93h-205v25q0 28 9 51q45 105 151 245h71q-123 -172 -166 -266h140v109h62v-109h52z" />
    <glyph glyph-name="onehalf" unicode="&#xbd;" horiz-adv-x="956" 
d="M217 266h-64v313q-48 -40 -98 -54v56q75 43 116 99h46v-414zM609 680h64l-395 -680h-64zM711 54h182v-54h-275v48q6 5 40.5 31t43.5 33.5t35.5 30t35.5 35t23.5 33t19.5 39.5t5 40q0 31 -19 52t-51 21q-33 0 -53.5 -22.5t-22.5 -61.5h-63q2 68 39.5 105t100.5 37
q60 0 96.5 -36t36.5 -92q0 -125 -174 -239z" />
    <glyph glyph-name="threequarters" unicode="&#xbe;" horiz-adv-x="949" 
d="M325 387q0 -58 -36.5 -93t-101.5 -35q-61 0 -97.5 32t-36.5 88h61q3 -28 22 -46t52 -18q34 0 53.5 19t19.5 52q0 69 -91 69v49q37 0 62 16.5t25 51.5q0 31 -18 48t-50 17q-31 0 -50.5 -20t-22.5 -46h-57q0 52 36 85t93 33q61 0 95 -31.5t34 -81.5q0 -70 -59 -93
q29 -11 48 -36t19 -60zM654 680h64l-395 -680h-64zM906 148v-55h-52v-93h-62v93h-205v25q0 28 9 51q45 105 151 245h71q-123 -172 -166 -266h140v109h62v-109h52z" />
    <glyph glyph-name="questiondown" unicode="&#xbf;" horiz-adv-x="377" 
d="M203 497q21 0 36 -15t15 -37q0 -21 -15 -35.5t-36 -14.5t-36 14.5t-15 35.5q0 22 15 37t36 15zM235 309q-1 -1 -15.5 -28.5t-20 -37.5t-20 -39t-21.5 -45.5t-18 -44.5t-16 -47.5t-9.5 -43t-4.5 -43.5q0 -52 24.5 -81.5t68.5 -29.5q92 0 100 118h72v-13q0 -74 -45.5 -123
t-127.5 -49q-80 0 -125 48t-45 123q0 21 3.5 44t10.5 46.5t14 44t18.5 44t19.5 40t20.5 38t18.5 31.5t17.5 28t12.5 20h68z" />
    <glyph glyph-name="Agrave" unicode="&#xc0;" horiz-adv-x="617" 
d="M348 745h-72q-48 72 -88 120h93q39 -54 67 -120zM508 0q-20 79 -52 187h-296q-28 -95 -53 -187h-79q44 161 107 352t113 307q5 12 12 16.5t24 4.5h51q16 0 23.5 -4.5t13.5 -16.5q94 -210 217 -659h-81zM180 254h256q-67 219 -126 368q-59 -142 -130 -368z" />
    <glyph glyph-name="Aacute" unicode="&#xc1;" horiz-adv-x="617" 
d="M430 865q-45 -54 -89 -120h-71q28 66 67 120h93zM508 0q-20 79 -52 187h-296q-28 -95 -53 -187h-79q44 161 107 352t113 307q5 12 12 16.5t24 4.5h51q16 0 23.5 -4.5t13.5 -16.5q94 -210 217 -659h-81zM180 254h256q-67 219 -126 368q-59 -142 -130 -368z" />
    <glyph glyph-name="Acircumflex" unicode="&#xc2;" horiz-adv-x="617" 
d="M310 828q-33 -36 -61 -83h-62q28 67 69 120h109q38 -50 68 -120h-62q-28 47 -61 83zM508 0q-20 79 -52 187h-296q-28 -95 -53 -187h-79q44 161 107 352t113 307q5 12 12 16.5t24 4.5h51q16 0 23.5 -4.5t13.5 -16.5q94 -210 217 -659h-81zM180 254h256q-67 219 -126 368
q-59 -142 -130 -368z" />
    <glyph glyph-name="Atilde" unicode="&#xc3;" horiz-adv-x="617" 
d="M250 800q-34 0 -38 -50h-46q3 107 84 107q28 0 67 -25.5t54 -25.5q35 0 37 50h46q-3 -106 -79 -106q-31 0 -70.5 25t-54.5 25zM508 0q-20 79 -52 187h-296q-28 -95 -53 -187h-79q44 161 107 352t113 307q5 12 12 16.5t24 4.5h51q16 0 23.5 -4.5t13.5 -16.5
q94 -210 217 -659h-81zM180 254h256q-67 219 -126 368q-59 -142 -130 -368z" />
    <glyph glyph-name="Adieresis" unicode="&#xc4;" horiz-adv-x="617" 
d="M221 759q-23 0 -38 15t-15 37t15 37t38 15t38.5 -15t15.5 -37t-15.5 -37t-38.5 -15zM400 759q-23 0 -38 15t-15 37t15 37t38 15t38 -15t15 -37t-15 -37t-38 -15zM508 0q-20 79 -52 187h-296q-28 -95 -53 -187h-79q44 161 107 352t113 307q5 12 12 16.5t24 4.5h51
q16 0 23.5 -4.5t13.5 -16.5q94 -210 217 -659h-81zM180 254h256q-67 219 -126 368q-59 -142 -130 -368z" />
    <glyph glyph-name="Aring" unicode="&#xc5;" horiz-adv-x="617" 
d="M310 730q-41 0 -68 25t-27 64t27 64.5t68 25.5q42 0 68.5 -25.5t26.5 -64.5t-26.5 -64t-68.5 -25zM310 869q-23 0 -36.5 -14t-13.5 -36t13.5 -36t36.5 -14t36.5 14t13.5 36t-13.5 36t-36.5 14zM508 0q-20 79 -52 187h-296q-28 -95 -53 -187h-79q44 161 107 352t113 307
q5 12 12 16.5t24 4.5h51q16 0 23.5 -4.5t13.5 -16.5q94 -210 217 -659h-81zM180 254h256q-67 219 -126 368q-59 -142 -130 -368z" />
    <glyph glyph-name="AE" unicode="&#xc6;" horiz-adv-x="860" 
d="M465 66h341v-66h-421v187h-204q-51 -125 -74 -187h-79q54 144 144.5 347.5t152.5 310.5q13 22 38 22h434v-66h-332v-235h309v-66h-309v-247zM209 254h176v370q-75 -135 -176 -370z" />
    <glyph glyph-name="Ccedilla" unicode="&#xc7;" horiz-adv-x="591" 
d="M467 183h80l-2 -13q-12 -74 -67.5 -124.5t-141.5 -56.5l-13 -28q40 0 63.5 -18.5t23.5 -52.5q0 -36 -25.5 -57.5t-68.5 -21.5q-56 0 -93 29l25 41q30 -22 67 -22q40 0 40 31q0 29 -47 29q-17 0 -32 -5l-17 22l26 54q-101 10 -163 90t-62 240v40q0 172 71.5 252t183.5 80
q93 0 155 -50.5t73 -121.5l2 -13h-79q-38 116 -151 116q-175 0 -175 -266v-34q0 -266 175 -266q120 0 152 126z" />
    <glyph glyph-name="Egrave" unicode="&#xc8;" 
d="M344 745h-72q-48 72 -88 120h93q39 -54 67 -120zM175 66h342v-66h-421v680h412v-66h-333v-235h310v-66h-310v-247z" />
    <glyph glyph-name="Eacute" unicode="&#xc9;" 
d="M427 865q-45 -54 -89 -120h-71q28 66 67 120h93zM175 66h342v-66h-421v680h412v-66h-333v-235h310v-66h-310v-247z" />
    <glyph glyph-name="Ecircumflex" unicode="&#xca;" 
d="M306 828q-33 -36 -61 -83h-62q28 67 69 120h109q38 -50 68 -120h-62q-28 47 -61 83zM175 66h342v-66h-421v680h412v-66h-333v-235h310v-66h-310v-247z" />
    <glyph glyph-name="Edieresis" unicode="&#xcb;" 
d="M217 759q-23 0 -38 15t-15 37t15 37t38 15t38.5 -15t15.5 -37t-15.5 -37t-38.5 -15zM396 759q-23 0 -38 15t-15 37t15 37t38 15t38 -15t15 -37t-15 -37t-38 -15zM175 66h342v-66h-421v680h412v-66h-333v-235h310v-66h-310v-247z" />
    <glyph glyph-name="Igrave" unicode="&#xcc;" horiz-adv-x="279" 
d="M17 865h93q39 -54 67 -120h-72q-48 72 -88 120zM179 680v-680h-79v680h79z" />
    <glyph glyph-name="Iacute" unicode="&#xcd;" horiz-adv-x="279" 
d="M259 865q-45 -54 -89 -120h-71q28 66 67 120h93zM179 680v-680h-79v680h79z" />
    <glyph glyph-name="Icircumflex" unicode="&#xce;" horiz-adv-x="279" 
d="M194 865q38 -50 68 -120h-62q-28 47 -61 83q-33 -36 -61 -83h-62q28 67 69 120h109zM100 0v680h79v-680h-79z" />
    <glyph glyph-name="Idieresis" unicode="&#xcf;" horiz-adv-x="279" 
d="M50 759q-23 0 -38 15t-15 37t15 37t38 15t38.5 -15t15.5 -37t-15.5 -37t-38.5 -15zM229 759q-23 0 -38 15t-15 37t15 37t38 15t38 -15t15 -37t-15 -37t-38 -15zM179 680v-680h-79v680h79z" />
    <glyph glyph-name="Eth" unicode="&#xd0;" horiz-adv-x="652" 
d="M303 680q59 0 108.5 -17t91 -53t65.5 -101.5t24 -153.5v-30q0 -88 -24 -153t-65.5 -101.5t-91.5 -53.5t-108 -17h-195v313h-68v59h68v308h195zM513 328v24q0 133 -57.5 197.5t-163.5 64.5h-105v-242h135v-59h-135v-247h105q105 0 163 65t58 197z" />
    <glyph glyph-name="Ntilde" unicode="&#xd1;" horiz-adv-x="692" 
d="M292 800q-34 0 -38 -50h-46q3 107 84 107q28 0 67 -25.5t54 -25.5q35 0 37 50h46q-3 -106 -79 -106q-31 0 -70.5 25t-54.5 25zM520 680h76v-680h-70l-354 566v-566h-76v680h85l339 -541v541z" />
    <glyph glyph-name="Ograve" unicode="&#xd2;" horiz-adv-x="643" 
d="M199 865h93q39 -54 67 -120h-72q-48 72 -88 120zM322 -12q-116 0 -189 80t-73 252v40q0 172 73 252t189 80q115 0 188.5 -80t73.5 -252v-40q0 -172 -73.5 -252t-188.5 -80zM322 57q182 0 182 266v34q0 266 -182 266t-182 -266v-34q0 -266 182 -266z" />
    <glyph glyph-name="Oacute" unicode="&#xd3;" horiz-adv-x="643" 
d="M442 865q-45 -54 -89 -120h-71q28 66 67 120h93zM322 -12q-116 0 -189 80t-73 252v40q0 172 73 252t189 80q115 0 188.5 -80t73.5 -252v-40q0 -172 -73.5 -252t-188.5 -80zM322 57q182 0 182 266v34q0 266 -182 266t-182 -266v-34q0 -266 182 -266z" />
    <glyph glyph-name="Ocircumflex" unicode="&#xd4;" horiz-adv-x="643" 
d="M321 828q-33 -36 -61 -83h-62q28 67 69 120h109q38 -50 68 -120h-62q-28 47 -61 83zM322 692q115 0 188.5 -80t73.5 -252v-40q0 -172 -73.5 -252t-188.5 -80q-116 0 -189 80t-73 252v40q0 172 73 252t189 80zM504 323v34q0 266 -182 266t-182 -266v-34q0 -266 182 -266
t182 266z" />
    <glyph glyph-name="Otilde" unicode="&#xd5;" horiz-adv-x="643" 
d="M465 856q-3 -106 -79 -106q-31 0 -70.5 25t-54.5 25q-34 0 -38 -50h-46q3 107 84 107q28 0 67 -25.5t54 -25.5q35 0 37 50h46zM322 -12q-116 0 -189 80t-73 252v40q0 172 73 252t189 80q115 0 188.5 -80t73.5 -252v-40q0 -172 -73.5 -252t-188.5 -80zM322 57
q182 0 182 266v34q0 266 -182 266t-182 -266v-34q0 -266 182 -266z" />
    <glyph glyph-name="Odieresis" unicode="&#xd6;" horiz-adv-x="643" 
d="M232 759q-23 0 -38 15t-15 37t15 37t38 15t38.5 -15t15.5 -37t-15.5 -37t-38.5 -15zM411 759q-23 0 -38 15t-15 37t15 37t38 15t38 -15t15 -37t-15 -37t-38 -15zM322 -12q-116 0 -189 80t-73 252v40q0 172 73 252t189 80q115 0 188.5 -80t73.5 -252v-40
q0 -172 -73.5 -252t-188.5 -80zM322 57q182 0 182 266v34q0 266 -182 266t-182 -266v-34q0 -266 182 -266z" />
    <glyph glyph-name="multiply" unicode="&#xd7;" 
d="M488 480l-156 -156l156 -156l-47 -47l-156 156l-156 -156l-47 47l156 156l-156 156l47 47l156 -156l156 156z" />
    <glyph glyph-name="Oslash" unicode="&#xd8;" horiz-adv-x="639" 
d="M497 622q82 -85 82 -262v-40q0 -172 -72.5 -252t-186.5 -80q-75 0 -131 33l-24 -47l-55 26l30 59q-80 85 -80 261v40q0 172 72.5 252t187.5 80q72 0 129 -32l23 46l55 -26zM140 323q0 -121 39 -188l236 460q-37 28 -95 28q-180 0 -180 -266v-34zM500 323v34
q0 122 -41 190l-237 -461q40 -29 98 -29q51 0 87.5 22t56 61t28 84t8.5 99z" />
    <glyph glyph-name="Ugrave" unicode="&#xd9;" horiz-adv-x="670" 
d="M212 865h93q39 -54 67 -120h-72q-48 72 -88 120zM496 680h80v-466q0 -114 -64 -168.5t-177 -54.5t-177 54.5t-64 168.5v466h79v-459q0 -164 162 -164q79 0 120 39t41 125v459z" />
    <glyph glyph-name="Uacute" unicode="&#xda;" horiz-adv-x="670" 
d="M455 865q-45 -54 -89 -120h-71q28 66 67 120h93zM496 680h80v-466q0 -114 -64 -168.5t-177 -54.5t-177 54.5t-64 168.5v466h79v-459q0 -164 162 -164q79 0 120 39t41 125v459z" />
    <glyph glyph-name="Ucircumflex" unicode="&#xdb;" horiz-adv-x="670" 
d="M334 828q-33 -36 -61 -83h-62q28 67 69 120h109q38 -50 68 -120h-62q-28 47 -61 83zM496 680h80v-466q0 -114 -64 -168.5t-177 -54.5t-177 54.5t-64 168.5v466h79v-459q0 -164 162 -164q79 0 120 39t41 125v459z" />
    <glyph glyph-name="Udieresis" unicode="&#xdc;" horiz-adv-x="670" 
d="M245 759q-23 0 -38 15t-15 37t15 37t38 15t38.5 -15t15.5 -37t-15.5 -37t-38.5 -15zM424 759q-23 0 -38 15t-15 37t15 37t38 15t38 -15t15 -37t-15 -37t-38 -15zM496 680h80v-466q0 -114 -64 -168.5t-177 -54.5t-177 54.5t-64 168.5v466h79v-459q0 -164 162 -164
q79 0 120 39t41 125v459z" />
    <glyph glyph-name="Yacute" unicode="&#xdd;" horiz-adv-x="563" 
d="M402 865q-45 -54 -89 -120h-71q28 66 67 120h93zM540 680q-81 -196 -218 -425v-255h-80v255q-140 235 -219 425h82q75 -177 178 -351q105 180 176 351h81z" />
    <glyph glyph-name="Thorn" unicode="&#xde;" horiz-adv-x="585" 
d="M324 559q97 0 159 -54t62 -153q0 -100 -62 -153.5t-159 -53.5h-149v-145h-79v680h79v-121h149zM312 211q74 0 114.5 35t40.5 106q0 70 -40.5 105t-114.5 35h-137v-281h137z" />
    <glyph glyph-name="germandbls" unicode="&#xdf;" horiz-adv-x="539" 
d="M364 374q56 -16 91 -61.5t35 -110.5q0 -95 -54 -151t-151 -56q-32 0 -62 5v67q25 -7 60 -7q61 0 97 36t36 102q0 74 -46.5 107t-121.5 33v63q138 0 138 127q0 51 -31 81t-85 30q-56 0 -83.5 -34.5t-27.5 -91.5v-513h-74v518q0 82 52 134t134 52q85 0 137 -48.5t52 -127.5
q0 -58 -27.5 -98.5t-68.5 -55.5z" />
    <glyph glyph-name="agrave" unicode="&#xe0;" horiz-adv-x="506" 
d="M287 560h-72q-48 72 -88 120h93q39 -54 67 -120zM421 113q0 -33 9.5 -43.5t32.5 -10.5v-58q-10 -5 -28 -5q-70 0 -82 64q-42 -69 -142 -69q-73 0 -115.5 37t-42.5 98q0 80 70.5 125.5t223.5 64.5v12q0 104 -103 104q-91 0 -106 -80h-70q3 63 51.5 102.5t124.5 39.5
q82 0 129.5 -40.5t47.5 -120.5v-220zM224 54q53 0 88 28.5t35 77.5v100q-113 -18 -167 -46.5t-54 -82.5q0 -37 25.5 -57t72.5 -20z" />
    <glyph glyph-name="aacute" unicode="&#xe1;" horiz-adv-x="506" 
d="M369 680q-45 -54 -89 -120h-71q28 66 67 120h93zM421 113q0 -33 9.5 -43.5t32.5 -10.5v-58q-10 -5 -28 -5q-70 0 -82 64q-42 -69 -142 -69q-73 0 -115.5 37t-42.5 98q0 80 70.5 125.5t223.5 64.5v12q0 104 -103 104q-91 0 -106 -80h-70q3 63 51.5 102.5t124.5 39.5
q82 0 129.5 -40.5t47.5 -120.5v-220zM224 54q53 0 88 28.5t35 77.5v100q-113 -18 -167 -46.5t-54 -82.5q0 -37 25.5 -57t72.5 -20z" />
    <glyph glyph-name="acircumflex" unicode="&#xe2;" horiz-adv-x="506" 
d="M249 643q-33 -36 -61 -83h-62q28 67 69 120h109q38 -50 68 -120h-62q-28 47 -61 83zM421 113q0 -33 9.5 -43.5t32.5 -10.5v-58q-10 -5 -28 -5q-70 0 -82 64q-42 -69 -142 -69q-73 0 -115.5 37t-42.5 98q0 80 70.5 125.5t223.5 64.5v12q0 104 -103 104q-91 0 -106 -80h-70
q3 63 51.5 102.5t124.5 39.5q82 0 129.5 -40.5t47.5 -120.5v-220zM224 54q53 0 88 28.5t35 77.5v100q-113 -18 -167 -46.5t-54 -82.5q0 -37 25.5 -57t72.5 -20z" />
    <glyph glyph-name="atilde" unicode="&#xe3;" horiz-adv-x="506" 
d="M189 615q-34 0 -38 -50h-46q3 107 84 107q28 0 67 -25.5t54 -25.5q35 0 37 50h46q-3 -106 -79 -106q-31 0 -70.5 25t-54.5 25zM421 113q0 -33 9.5 -43.5t32.5 -10.5v-58q-10 -5 -28 -5q-70 0 -82 64q-42 -69 -142 -69q-73 0 -115.5 37t-42.5 98q0 80 70.5 125.5
t223.5 64.5v12q0 104 -103 104q-91 0 -106 -80h-70q3 63 51.5 102.5t124.5 39.5q82 0 129.5 -40.5t47.5 -120.5v-220zM224 54q53 0 88 28.5t35 77.5v100q-113 -18 -167 -46.5t-54 -82.5q0 -37 25.5 -57t72.5 -20z" />
    <glyph glyph-name="adieresis" unicode="&#xe4;" horiz-adv-x="506" 
d="M160 574q-23 0 -38 15t-15 37t15 37t38 15t38.5 -15t15.5 -37t-15.5 -37t-38.5 -15zM339 574q-23 0 -38 15t-15 37t15 37t38 15t38 -15t15 -37t-15 -37t-38 -15zM421 113q0 -33 9.5 -43.5t32.5 -10.5v-58q-10 -5 -28 -5q-70 0 -82 64q-42 -69 -142 -69q-73 0 -115.5 37
t-42.5 98q0 80 70.5 125.5t223.5 64.5v12q0 104 -103 104q-91 0 -106 -80h-70q3 63 51.5 102.5t124.5 39.5q82 0 129.5 -40.5t47.5 -120.5v-220zM224 54q53 0 88 28.5t35 77.5v100q-113 -18 -167 -46.5t-54 -82.5q0 -37 25.5 -57t72.5 -20z" />
    <glyph glyph-name="aring" unicode="&#xe5;" horiz-adv-x="506" 
d="M249 545q-41 0 -68 25t-27 64t27 64.5t68 25.5q42 0 68.5 -25.5t26.5 -64.5t-26.5 -64t-68.5 -25zM249 684q-23 0 -36.5 -14t-13.5 -36t13.5 -36t36.5 -14t36.5 14t13.5 36t-13.5 36t-36.5 14zM421 113q0 -33 9.5 -43.5t32.5 -10.5v-58q-10 -5 -28 -5q-70 0 -82 64
q-42 -69 -142 -69q-73 0 -115.5 37t-42.5 98q0 80 70.5 125.5t223.5 64.5v12q0 104 -103 104q-91 0 -106 -80h-70q3 63 51.5 102.5t124.5 39.5q82 0 129.5 -40.5t47.5 -120.5v-220zM224 54q53 0 88 28.5t35 77.5v100q-113 -18 -167 -46.5t-54 -82.5q0 -37 25.5 -57t72.5 -20
z" />
    <glyph glyph-name="ae" unicode="&#xe6;" horiz-adv-x="805" 
d="M755 232h-337q0 -75 31.5 -125.5t100.5 -50.5q91 0 122 81h76q-35 -146 -198 -146q-118 0 -171 99q-18 -46 -60 -72.5t-101 -26.5q-78 0 -121.5 36t-43.5 98q0 79 67.5 120t221.5 52v32q0 103 -101 103q-93 0 -104 -80h-69q2 65 49 103.5t126 38.5q109 0 150 -76
q56 76 158 76q92 0 148 -58.5t56 -161.5v-42zM550 429q-113 0 -130 -137h262q-11 137 -132 137zM223 54q52 0 85.5 28t33.5 78v79q-112 -8 -164 -34t-52 -76q0 -35 25.5 -55t71.5 -20z" />
    <glyph glyph-name="ccedilla" unicode="&#xe7;" horiz-adv-x="491" 
d="M377 163h72l-1 -11q-7 -68 -55.5 -111.5t-116.5 -48.5l-14 -31q40 0 63.5 -18.5t23.5 -52.5q0 -36 -25.5 -57.5t-68.5 -21.5q-58 0 -93 29l25 41q30 -22 67 -22q40 0 40 31q0 29 -47 29q-17 0 -32 -5l-17 22l27 57q-81 11 -127.5 73t-46.5 168v17q0 117 56.5 180
t151.5 63q77 0 129 -41.5t58 -106.5l1 -11h-74q-23 95 -116 95q-70 0 -101 -51t-31 -128v-17q0 -76 30.5 -127t100.5 -51q101 0 121 107z" />
    <glyph glyph-name="egrave" unicode="&#xe8;" horiz-adv-x="508" 
d="M294 560h-72q-48 72 -88 120h93q39 -54 67 -120zM458 232h-333q1 -75 32.5 -125.5t100.5 -50.5q91 0 117 81h76q-34 -146 -196 -146q-92 0 -148 63t-56 180v17q0 116 57.5 179.5t148.5 63.5q92 0 146.5 -58.5t54.5 -161.5v-42zM255 429q-110 0 -127 -137h257
q-11 137 -130 137z" />
    <glyph glyph-name="eacute" unicode="&#xe9;" horiz-adv-x="508" 
d="M377 680q-45 -54 -89 -120h-71q28 66 67 120h93zM458 232h-333q1 -75 32.5 -125.5t100.5 -50.5q91 0 117 81h76q-34 -146 -196 -146q-92 0 -148 63t-56 180v17q0 116 57.5 179.5t148.5 63.5q92 0 146.5 -58.5t54.5 -161.5v-42zM255 429q-110 0 -127 -137h257
q-11 137 -130 137z" />
    <glyph glyph-name="ecircumflex" unicode="&#xea;" horiz-adv-x="508" 
d="M256 643q-33 -36 -61 -83h-62q28 67 69 120h109q38 -50 68 -120h-62q-28 47 -61 83zM458 232h-333q1 -75 32.5 -125.5t100.5 -50.5q91 0 117 81h76q-34 -146 -196 -146q-92 0 -148 63t-56 180v17q0 116 57.5 179.5t148.5 63.5q92 0 146.5 -58.5t54.5 -161.5v-42zM255 429
q-110 0 -127 -137h257q-11 137 -130 137z" />
    <glyph glyph-name="edieresis" unicode="&#xeb;" horiz-adv-x="508" 
d="M167 574q-23 0 -38 15t-15 37t15 37t38 15t38.5 -15t15.5 -37t-15.5 -37t-38.5 -15zM346 574q-23 0 -38 15t-15 37t15 37t38 15t38 -15t15 -37t-15 -37t-38 -15zM458 232h-333q1 -75 32.5 -125.5t100.5 -50.5q91 0 117 81h76q-34 -146 -196 -146q-92 0 -148 63t-56 180
v17q0 116 57.5 179.5t148.5 63.5q92 0 146.5 -58.5t54.5 -161.5v-42zM255 429q-110 0 -127 -137h257q-11 137 -130 137z" />
    <glyph glyph-name="igrave" unicode="&#xec;" horiz-adv-x="245" 
d="M0 680h93q39 -54 67 -120h-72q-48 72 -88 120zM159 485v-485h-74v485h74z" />
    <glyph glyph-name="iacute" unicode="&#xed;" horiz-adv-x="245" 
d="M242 680q-45 -54 -89 -120h-71q28 66 67 120h93zM159 485v-485h-74v485h74z" />
    <glyph glyph-name="icircumflex" unicode="&#xee;" horiz-adv-x="245" 
d="M177 680q38 -50 68 -120h-62q-28 47 -61 83q-33 -36 -61 -83h-62q28 67 69 120h109zM85 0v485h74v-485h-74z" />
    <glyph glyph-name="idieresis" unicode="&#xef;" horiz-adv-x="245" 
d="M33 574q-23 0 -38 15t-15 37t15 37t38 15t38.5 -15t15.5 -37t-15.5 -37t-38.5 -15zM212 574q-23 0 -38 15t-15 37t15 37t38 15t38 -15t15 -37t-15 -37t-38 -15zM159 485v-485h-74v485h74z" />
    <glyph glyph-name="eth" unicode="&#xf0;" horiz-adv-x="515" 
d="M363 590q101 -141 101 -316v-41q0 -116 -57 -179t-149 -63q-93 0 -150 63t-57 180v18q0 116 56 179.5t144 63.5q67 0 101 -33q-22 56 -61 109l-122 -33l-13 46l102 28q-43 50 -94 88h93q39 -27 74 -69l99 27l12 -47zM390 234v18q0 77 -31 127.5t-101 50.5
q-71 0 -102 -50.5t-31 -127.5v-18q0 -76 31 -127t102 -51q70 0 101 51t31 127z" />
    <glyph glyph-name="ntilde" unicode="&#xf1;" horiz-adv-x="552" 
d="M224 615q-34 0 -38 -50h-46q3 107 84 107q28 0 67 -25.5t54 -25.5q35 0 37 50h46q-3 -106 -79 -106q-31 0 -70.5 25t-54.5 25zM300 494q76 0 123.5 -47t47.5 -126v-321h-74v308q0 54 -28 88t-85 34q-56 0 -90.5 -35.5t-34.5 -86.5v-308h-74v485h71v-69q44 78 144 78z" />
    <glyph glyph-name="ograve" unicode="&#xf2;" horiz-adv-x="515" 
d="M135 680h93q39 -54 67 -120h-72q-48 72 -88 120zM258 -9q-93 0 -150 63t-57 180v17q0 117 57 180t150 63q92 0 149 -63t57 -180v-17q0 -117 -57 -180t-149 -63zM258 56q70 0 101 51t31 127v17q0 77 -31 127.5t-101 50.5q-71 0 -102 -50.5t-31 -127.5v-17q0 -76 31 -127
t102 -51z" />
    <glyph glyph-name="oacute" unicode="&#xf3;" horiz-adv-x="515" 
d="M378 680q-45 -54 -89 -120h-71q28 66 67 120h93zM258 -9q-93 0 -150 63t-57 180v17q0 117 57 180t150 63q92 0 149 -63t57 -180v-17q0 -117 -57 -180t-149 -63zM258 56q70 0 101 51t31 127v17q0 77 -31 127.5t-101 50.5q-71 0 -102 -50.5t-31 -127.5v-17q0 -76 31 -127
t102 -51z" />
    <glyph glyph-name="ocircumflex" unicode="&#xf4;" horiz-adv-x="515" 
d="M257 643q-33 -36 -61 -83h-62q28 67 69 120h109q38 -50 68 -120h-62q-28 47 -61 83zM258 494q92 0 149 -63t57 -180v-17q0 -117 -57 -180t-149 -63q-93 0 -150 63t-57 180v17q0 117 57 180t150 63zM390 234v17q0 77 -31 127.5t-101 50.5q-71 0 -102 -50.5t-31 -127.5v-17
q0 -76 31 -127t102 -51q70 0 101 51t31 127z" />
    <glyph glyph-name="otilde" unicode="&#xf5;" horiz-adv-x="515" 
d="M401 671q-3 -106 -79 -106q-31 0 -70.5 25t-54.5 25q-34 0 -38 -50h-46q3 107 84 107q28 0 67 -25.5t54 -25.5q35 0 37 50h46zM258 -9q-93 0 -150 63t-57 180v17q0 117 57 180t150 63q92 0 149 -63t57 -180v-17q0 -117 -57 -180t-149 -63zM258 56q70 0 101 51t31 127v17
q0 77 -31 127.5t-101 50.5q-71 0 -102 -50.5t-31 -127.5v-17q0 -76 31 -127t102 -51z" />
    <glyph glyph-name="odieresis" unicode="&#xf6;" horiz-adv-x="515" 
d="M168 574q-23 0 -38 15t-15 37t15 37t38 15t38.5 -15t15.5 -37t-15.5 -37t-38.5 -15zM347 574q-23 0 -38 15t-15 37t15 37t38 15t38 -15t15 -37t-15 -37t-38 -15zM258 -9q-93 0 -150 63t-57 180v17q0 117 57 180t150 63q92 0 149 -63t57 -180v-17q0 -117 -57 -180
t-149 -63zM258 56q70 0 101 51t31 127v17q0 77 -31 127.5t-101 50.5q-71 0 -102 -50.5t-31 -127.5v-17q0 -76 31 -127t102 -51z" />
    <glyph glyph-name="divide" unicode="&#xf7;" 
d="M285 435q-21 0 -36 14.5t-15 36.5t15 36.5t36 14.5t36 -14.5t15 -36.5t-15 -36.5t-36 -14.5zM82 357h406v-66h-406v66zM285 108q-21 0 -36 14.5t-15 36.5t15 36.5t36 14.5t36 -14.5t15 -36.5t-15 -36.5t-36 -14.5z" />
    <glyph glyph-name="oslash" unicode="&#xf8;" horiz-adv-x="514" 
d="M389 449q75 -65 75 -198v-17q0 -117 -57 -180t-150 -63q-48 0 -91 19l-20 -38l-48 21l24 47q-71 65 -71 194v17q0 117 57 180t149 63q47 0 87 -17l18 37l49 -22zM125 234q0 -82 31 -126l158 309q-24 12 -57 12q-70 0 -101 -51t-31 -127v-17zM389 234v17q0 86 -34 132
l-159 -313q30 -14 61 -14q70 0 101 51t31 127z" />
    <glyph glyph-name="ugrave" unicode="&#xf9;" horiz-adv-x="544" 
d="M306 560h-72q-48 72 -88 120h93q39 -54 67 -120zM385 485h74v-485h-71v60q-47 -69 -141 -69q-74 0 -120 47t-46 126v321h74v-308q0 -54 27 -87.5t82 -33.5q54 0 87.5 35t33.5 86v308z" />
    <glyph glyph-name="uacute" unicode="&#xfa;" horiz-adv-x="544" 
d="M389 680q-45 -54 -89 -120h-71q28 66 67 120h93zM385 485h74v-485h-71v60q-47 -69 -141 -69q-74 0 -120 47t-46 126v321h74v-308q0 -54 27 -87.5t82 -33.5q54 0 87.5 35t33.5 86v308z" />
    <glyph glyph-name="ucircumflex" unicode="&#xfb;" horiz-adv-x="544" 
d="M268 643q-33 -36 -61 -83h-62q28 67 69 120h109q38 -50 68 -120h-62q-28 47 -61 83zM385 485h74v-485h-71v60q-47 -69 -141 -69q-74 0 -120 47t-46 126v321h74v-308q0 -54 27 -87.5t82 -33.5q54 0 87.5 35t33.5 86v308z" />
    <glyph glyph-name="udieresis" unicode="&#xfc;" horiz-adv-x="544" 
d="M179 574q-23 0 -38 15t-15 37t15 37t38 15t38.5 -15t15.5 -37t-15.5 -37t-38.5 -15zM358 574q-23 0 -38 15t-15 37t15 37t38 15t38 -15t15 -37t-15 -37t-38 -15zM385 485h74v-485h-71v60q-47 -69 -141 -69q-74 0 -120 47t-46 126v321h74v-308q0 -54 27 -87.5t82 -33.5
q54 0 87.5 35t33.5 86v308z" />
    <glyph glyph-name="yacute" unicode="&#xfd;" horiz-adv-x="472" 
d="M356 680q-45 -54 -89 -120h-71q28 66 67 120h93zM369 485h72q-30 -146 -110 -349.5t-132 -295.5h-76q35 65 77 160q-103 219 -168 485h77q37 -166 130 -400q87 221 130 400z" />
    <glyph glyph-name="thorn" unicode="&#xfe;" horiz-adv-x="550" 
d="M306 494q87 0 140 -63t53 -180v-17q0 -117 -53 -180t-140 -63q-100 0 -147 75v-226h-74v859h74v-280q47 75 147 75zM425 234v17q0 77 -31 128t-102 51q-68 0 -100.5 -50t-32.5 -123v-29q0 -72 32.5 -122t100.5 -50q71 0 102 50.5t31 127.5z" />
    <glyph glyph-name="ydieresis" unicode="&#xff;" horiz-adv-x="472" 
d="M146 574q-23 0 -38 15t-15 37t15 37t38 15t38.5 -15t15.5 -37t-15.5 -37t-38.5 -15zM325 574q-23 0 -38 15t-15 37t15 37t38 15t38 -15t15 -37t-15 -37t-38 -15zM369 485h72q-30 -146 -110 -349.5t-132 -295.5h-76q35 65 77 160q-103 219 -168 485h77q37 -166 130 -400
q87 221 130 400z" />
    <glyph glyph-name="Amacron" unicode="&#x100;" horiz-adv-x="617" 
d="M423 832v-63h-226v63h226zM508 0q-20 79 -52 187h-296q-28 -95 -53 -187h-79q44 161 107 352t113 307q5 12 12 16.5t24 4.5h51q16 0 23.5 -4.5t13.5 -16.5q94 -210 217 -659h-81zM180 254h256q-67 219 -126 368q-59 -142 -130 -368z" />
    <glyph glyph-name="amacron" unicode="&#x101;" horiz-adv-x="506" 
d="M362 647v-63h-226v63h226zM421 113q0 -33 9.5 -43.5t32.5 -10.5v-58q-10 -5 -28 -5q-70 0 -82 64q-42 -69 -142 -69q-73 0 -115.5 37t-42.5 98q0 80 70.5 125.5t223.5 64.5v12q0 104 -103 104q-91 0 -106 -80h-70q3 63 51.5 102.5t124.5 39.5q82 0 129.5 -40.5
t47.5 -120.5v-220zM224 54q53 0 88 28.5t35 77.5v100q-113 -18 -167 -46.5t-54 -82.5q0 -37 25.5 -57t72.5 -20z" />
    <glyph glyph-name="Abreve" unicode="&#x102;" horiz-adv-x="617" 
d="M310 748q-57 0 -90 32t-33 85h63q0 -67 60 -67q33 0 47.5 20t14.5 47h61q0 -53 -33.5 -85t-89.5 -32zM508 0q-20 79 -52 187h-296q-28 -95 -53 -187h-79q44 161 107 352t113 307q5 12 12 16.5t24 4.5h51q16 0 23.5 -4.5t13.5 -16.5q94 -210 217 -659h-81zM180 254h256
q-67 219 -126 368q-59 -142 -130 -368z" />
    <glyph glyph-name="abreve" unicode="&#x103;" horiz-adv-x="506" 
d="M249 563q-57 0 -90 32t-33 85h63q0 -67 60 -67q33 0 47.5 20t14.5 47h61q0 -53 -33.5 -85t-89.5 -32zM421 113q0 -33 9.5 -43.5t32.5 -10.5v-58q-10 -5 -28 -5q-70 0 -82 64q-42 -69 -142 -69q-73 0 -115.5 37t-42.5 98q0 80 70.5 125.5t223.5 64.5v12q0 104 -103 104
q-91 0 -106 -80h-70q3 63 51.5 102.5t124.5 39.5q82 0 129.5 -40.5t47.5 -120.5v-220zM224 54q53 0 88 28.5t35 77.5v100q-113 -18 -167 -46.5t-54 -82.5q0 -37 25.5 -57t72.5 -20z" />
    <glyph glyph-name="Aogonek" unicode="&#x104;" horiz-adv-x="617" 
d="M527 -82q0 -35 49 -35h10v-48q-13 -3 -31 -3q-41 0 -64 19.5t-23 53.5q0 56 64 95h-24q-20 79 -52 187h-296q-28 -95 -53 -187h-79q44 161 107 352t113 307q5 12 12 16.5t24 4.5h51q16 0 23.5 -4.5t13.5 -16.5q94 -210 217 -659q-62 -37 -62 -82zM180 254h256
q-67 219 -126 368q-59 -142 -130 -368z" />
    <glyph glyph-name="aogonek" unicode="&#x105;" horiz-adv-x="504" 
d="M425 -168q-42 0 -65 19.5t-23 53.5q0 57 65 96q-42 13 -49 60q-43 -70 -143 -70q-73 0 -115 37t-42 98q0 81 69 125.5t225 66.5v11q0 52 -24 77.5t-76 25.5q-89 0 -105 -80h-70q3 64 50 103t125 39q81 0 127.5 -40t46.5 -121v-216q0 -36 8.5 -47t31.5 -11v-58
q-22 -12 -43 -34.5t-21 -48.5q0 -35 48 -35h10v-48q-13 -3 -30 -3zM224 54q53 0 88 28.5t35 77.5v100q-114 -20 -167.5 -47.5t-53.5 -80.5q0 -37 25.5 -57.5t72.5 -20.5z" />
    <glyph glyph-name="Cacute" unicode="&#x106;" horiz-adv-x="591" 
d="M441 865q-45 -54 -89 -120h-71q28 66 67 120h93zM315 -12q-112 0 -183.5 80t-71.5 252v40q0 172 71.5 252t183.5 80q95 0 156 -50t72 -122l2 -13h-79q-38 116 -151 116q-175 0 -175 -266v-34q0 -266 175 -266q122 0 152 126h80l-2 -13q-12 -80 -73.5 -131t-156.5 -51z
" />
    <glyph glyph-name="cacute" unicode="&#x107;" horiz-adv-x="491" 
d="M380 680q-45 -54 -89 -120h-71q28 66 67 120h93zM449 163l-1 -11q-7 -73 -61.5 -117t-128.5 -44q-95 0 -151 63t-56 180v17q0 117 56.5 180t151.5 63q77 0 129 -41.5t58 -106.5l1 -11h-74q-23 95 -116 95q-70 0 -101 -51t-31 -128v-17q0 -76 30.5 -127t100.5 -51
q101 0 121 107h72z" />
    <glyph glyph-name="Cdotaccent" unicode="&#x10a;" horiz-adv-x="591" 
d="M321 761q-22 0 -37 14.5t-15 36.5t15 36.5t37 14.5t36.5 -14.5t14.5 -36.5t-14.5 -36.5t-36.5 -14.5zM315 -12q-112 0 -183.5 80t-71.5 252v40q0 172 71.5 252t183.5 80q95 0 156 -50t72 -122l2 -13h-79q-38 116 -151 116q-175 0 -175 -266v-34q0 -266 175 -266
q122 0 152 126h80l-2 -13q-12 -80 -73.5 -131t-156.5 -51z" />
    <glyph glyph-name="cdotaccent" unicode="&#x10b;" horiz-adv-x="491" 
d="M261 576q-22 0 -37 14.5t-15 36.5t15 36.5t37 14.5t36.5 -14.5t14.5 -36.5t-14.5 -36.5t-36.5 -14.5zM449 163l-1 -11q-7 -73 -61.5 -117t-128.5 -44q-95 0 -151 63t-56 180v17q0 117 56.5 180t151.5 63q77 0 129 -41.5t58 -106.5l1 -11h-74q-23 95 -116 95
q-70 0 -101 -51t-31 -128v-17q0 -76 30.5 -127t100.5 -51q101 0 121 107h72z" />
    <glyph glyph-name="Ccaron" unicode="&#x10c;" horiz-adv-x="591" 
d="M375 745h-109q-41 53 -69 120h62q28 -47 61 -83q33 36 61 83h62q-30 -70 -68 -120zM467 183h80l-2 -13q-12 -80 -73.5 -131t-156.5 -51q-112 0 -183.5 80t-71.5 252v40q0 172 71.5 252t183.5 80q95 0 156 -50t72 -122l2 -13h-79q-38 116 -151 116q-175 0 -175 -266v-34
q0 -266 175 -266q122 0 152 126z" />
    <glyph glyph-name="ccaron" unicode="&#x10d;" horiz-adv-x="491" 
d="M315 560h-109q-41 53 -69 120h62q28 -47 61 -83q33 36 61 83h62q-30 -70 -68 -120zM377 163h72l-1 -11q-7 -73 -61.5 -117t-128.5 -44q-95 0 -151 63t-56 180v17q0 117 56.5 180t151.5 63q77 0 129 -41.5t58 -106.5l1 -11h-74q-23 95 -116 95q-70 0 -101 -51t-31 -128
v-17q0 -76 30.5 -127t100.5 -51q101 0 121 107z" />
    <glyph glyph-name="Dcaron" unicode="&#x10e;" horiz-adv-x="640" 
d="M356 745h-109q-41 53 -69 120h62q28 -47 61 -83q33 36 61 83h62q-30 -70 -68 -120zM288 680q59 0 109.5 -17t92.5 -53t66 -101.5t24 -153.5v-30q0 -88 -24 -153t-66 -101.5t-92.5 -53.5t-109.5 -17h-192v680h192zM501 328v24q0 133 -57 197.5t-161 64.5h-108v-548h108
q104 0 161 65t57 197z" />
    <glyph glyph-name="dcaron" unicode="&#x10f;" horiz-adv-x="584" 
d="M390 419v281h74v-700h-70v72q-46 -81 -150 -81q-87 0 -140 63t-53 180v17q0 117 53 180t140 63q101 0 146 -75zM538 700h69q-3 -103 -53 -176h-35q19 95 19 176zM258 56q68 0 100 50t32 122v29q0 73 -32 123t-100 50q-71 0 -102 -51t-31 -128v-17q0 -77 31 -127.5
t102 -50.5z" />
    <glyph glyph-name="Dcroat" unicode="&#x110;" horiz-adv-x="652" 
d="M303 680q59 0 108.5 -17t91 -53t65.5 -101.5t24 -153.5v-30q0 -88 -24 -153t-65.5 -101.5t-91.5 -53.5t-108 -17h-195v313h-68v59h68v308h195zM513 328v24q0 133 -57.5 197.5t-163.5 64.5h-105v-242h135v-59h-135v-247h105q105 0 163 65t58 197z" />
    <glyph glyph-name="dcroat" unicode="&#x111;" horiz-adv-x="549" 
d="M535 614v-59h-71v-555h-70v72q-46 -81 -150 -81q-87 0 -140 63t-53 180v17q0 117 53 180t140 63q101 0 146 -75v136h-137v59h137v86h74v-86h71zM258 56q68 0 100 50t32 122v29q0 73 -32 123t-100 50q-71 0 -102 -51t-31 -128v-17q0 -77 31 -127.5t102 -50.5z" />
    <glyph glyph-name="Emacron" unicode="&#x112;" 
d="M420 832v-63h-226v63h226zM175 66h342v-66h-421v680h412v-66h-333v-235h310v-66h-310v-247z" />
    <glyph glyph-name="emacron" unicode="&#x113;" horiz-adv-x="508" 
d="M370 647v-63h-226v63h226zM458 232h-333q1 -75 32.5 -125.5t100.5 -50.5q91 0 117 81h76q-34 -146 -196 -146q-92 0 -148 63t-56 180v17q0 116 57.5 179.5t148.5 63.5q92 0 146.5 -58.5t54.5 -161.5v-42zM255 429q-110 0 -127 -137h257q-11 137 -130 137z" />
    <glyph glyph-name="Edotaccent" unicode="&#x116;" 
d="M307 761q-22 0 -37 14.5t-15 36.5t15 36.5t37 14.5t36.5 -14.5t14.5 -36.5t-14.5 -36.5t-36.5 -14.5zM175 66h342v-66h-421v680h412v-66h-333v-235h310v-66h-310v-247z" />
    <glyph glyph-name="edotaccent" unicode="&#x117;" horiz-adv-x="508" 
d="M257 576q-22 0 -37 14.5t-15 36.5t15 36.5t37 14.5t36.5 -14.5t14.5 -36.5t-14.5 -36.5t-36.5 -14.5zM458 232h-333q1 -75 32.5 -125.5t100.5 -50.5q91 0 117 81h76q-34 -146 -196 -146q-92 0 -148 63t-56 180v17q0 116 57.5 179.5t148.5 63.5q92 0 146.5 -58.5
t54.5 -161.5v-42zM255 429q-110 0 -127 -137h257q-11 137 -130 137z" />
    <glyph glyph-name="Eogonek" unicode="&#x118;" 
d="M517 0q-62 -38 -62 -81q0 -36 48 -36h11v-48q-13 -3 -31 -3q-41 0 -64 20t-23 54q0 56 62 94h-362v680h412v-66h-333v-235h310v-66h-310v-247h342v-66z" />
    <glyph glyph-name="eogonek" unicode="&#x119;" horiz-adv-x="508" 
d="M350 -168q-41 0 -65 20.5t-24 56.5q0 47 38 85q-21 -3 -44 -3q-92 0 -148 63t-56 180v17q0 116 57.5 179.5t148.5 63.5q92 0 146.5 -58.5t54.5 -161.5v-42h-333q1 -75 32.5 -125.5t100.5 -50.5q91 0 117 81h76q-16 -71 -66 -110q-37 -29 -51 -51.5t-14 -50.5
q0 -42 49 -42h10v-48q-13 -3 -29 -3zM127 292h258q-4 61 -35 99t-95 38q-59 0 -89.5 -38t-38.5 -99z" />
    <glyph glyph-name="Ecaron" unicode="&#x11a;" 
d="M361 745h-109q-41 53 -69 120h62q28 -47 61 -83q33 36 61 83h62q-30 -70 -68 -120zM175 66h342v-66h-421v680h412v-66h-333v-235h310v-66h-310v-247z" />
    <glyph glyph-name="ecaron" unicode="&#x11b;" horiz-adv-x="508" 
d="M311 560h-109q-41 53 -69 120h62q28 -47 61 -83q33 36 61 83h62q-30 -70 -68 -120zM458 232h-333q1 -75 32.5 -125.5t100.5 -50.5q91 0 117 81h76q-34 -146 -196 -146q-92 0 -148 63t-56 180v17q0 116 57.5 179.5t148.5 63.5q92 0 146.5 -58.5t54.5 -161.5v-42zM255 429
q-110 0 -127 -137h257q-11 137 -130 137z" />
    <glyph glyph-name="Gbreve" unicode="&#x11e;" horiz-adv-x="622" 
d="M326 748q56 0 89.5 32t33.5 85h-61q0 -27 -14.5 -47t-47.5 -20q-60 0 -60 67h-63q0 -53 33 -85t90 -32zM321 -12q-115 0 -188 80t-73 252v40q0 172 73 252t188 80q96 0 156.5 -49t71.5 -115l2 -13h-79q-18 52 -53.5 80t-98.5 28q-51 0 -87.5 -22t-56 -61t-28 -84
t-8.5 -99v-34q0 -54 8.5 -99t28 -84t56 -61t87.5 -22q163 0 163 201v31h-162v66h241v-100q0 -138 -66.5 -202.5t-174.5 -64.5z" />
    <glyph glyph-name="gbreve" unicode="&#x11f;" horiz-adv-x="538" 
d="M270 563q-57 0 -90 32t-33 85h63q0 -67 60 -67q33 0 47.5 20t14.5 47h61q0 -53 -33.5 -85t-89.5 -32zM386 485h71v-477q0 -88 -53 -132.5t-141 -44.5q-85 0 -135.5 32.5t-57.5 89.5l-1 9h78q18 -69 115 -69q60 0 90.5 28.5t30.5 91.5v77q-47 -70 -142 -70
q-83 0 -135.5 60.5t-52.5 170.5v12q0 110 52.5 170.5t135.5 60.5q100 0 145 -75v66zM256 85q68 0 97.5 48t29.5 121v6q0 74 -29.5 122t-97.5 48q-69 0 -99 -48t-30 -121v-8q0 -72 30 -120t99 -48z" />
    <glyph glyph-name="Gdotaccent" unicode="&#x120;" horiz-adv-x="622" 
d="M326 761q-22 0 -37 14.5t-15 36.5t15 36.5t37 14.5t36.5 -14.5t14.5 -36.5t-14.5 -36.5t-36.5 -14.5zM321 -12q-115 0 -188 80t-73 252v40q0 172 73 252t188 80q96 0 156.5 -49t71.5 -115l2 -13h-79q-18 52 -53.5 80t-98.5 28q-51 0 -87.5 -22t-56 -61t-28 -84t-8.5 -99
v-34q0 -54 8.5 -99t28 -84t56 -61t87.5 -22q163 0 163 201v31h-162v66h241v-100q0 -138 -66.5 -202.5t-174.5 -64.5z" />
    <glyph glyph-name="gdotaccent" unicode="&#x121;" horiz-adv-x="538" 
d="M270 576q-22 0 -37 14.5t-15 36.5t15 36.5t37 14.5t36.5 -14.5t14.5 -36.5t-14.5 -36.5t-36.5 -14.5zM386 485h71v-477q0 -88 -53 -132.5t-141 -44.5q-85 0 -135.5 32.5t-57.5 89.5l-1 9h78q18 -69 115 -69q60 0 90.5 28.5t30.5 91.5v77q-47 -70 -142 -70
q-83 0 -135.5 60.5t-52.5 170.5v12q0 110 52.5 170.5t135.5 60.5q100 0 145 -75v66zM256 85q68 0 97.5 48t29.5 121v6q0 74 -29.5 122t-97.5 48q-69 0 -99 -48t-30 -121v-8q0 -72 30 -120t99 -48z" />
    <glyph glyph-name="Gcommaaccent" unicode="&#x122;" horiz-adv-x="622" 
d="M321 -12q-115 0 -188 80t-73 252v40q0 172 73 252t188 80q96 0 156.5 -49t71.5 -115l2 -13h-79q-18 52 -53.5 80t-98.5 28q-51 0 -87.5 -22t-56 -61t-28 -84t-8.5 -99v-34q0 -54 8.5 -99t28 -84t56 -61t87.5 -22q163 0 163 201v31h-162v66h241v-100q0 -138 -66.5 -202.5
t-174.5 -64.5zM266 -200q16 76 16 147h74q-1 -76 -48 -147h-42z" />
    <glyph glyph-name="gcommaaccent" unicode="&#x123;" horiz-adv-x="538" 
d="M311 715q-16 -76 -16 -147h-74q1 76 48 147h42zM386 485h71v-477q0 -88 -53 -132.5t-141 -44.5q-85 0 -135.5 32.5t-57.5 89.5l-1 9h78q18 -69 115 -69q60 0 90.5 28.5t30.5 91.5v77q-47 -70 -142 -70q-83 0 -135.5 60.5t-52.5 170.5v12q0 110 52.5 170.5t135.5 60.5
q100 0 145 -75v66zM256 85q68 0 97.5 48t29.5 121v6q0 74 -29.5 122t-97.5 48q-69 0 -99 -48t-30 -121v-8q0 -72 30 -120t99 -48z" />
    <glyph glyph-name="Hbar" unicode="&#x126;" horiz-adv-x="690" 
d="M640 569v-64h-46v-505h-80v313h-339v-313h-79v505h-46v64h46v111h79v-111h339v111h80v-111h46zM514 379v126h-339v-126h339z" />
    <glyph glyph-name="hbar" unicode="&#x127;" horiz-adv-x="551" 
d="M299 494q76 0 123.5 -47t47.5 -126v-321h-74v308q0 54 -28 88t-85 34q-56 0 -90.5 -35.5t-34.5 -86.5v-308h-74v555h-70v59h70v86h74v-86h138v-59h-138v-133q46 72 141 72z" />
    <glyph glyph-name="Imacron" unicode="&#x12a;" horiz-adv-x="279" 
d="M26 832h226v-63h-226v63zM179 680v-680h-79v680h79z" />
    <glyph glyph-name="imacron" unicode="&#x12b;" horiz-adv-x="245" 
d="M9 647h226v-63h-226v63zM159 485v-485h-74v485h74z" />
    <glyph glyph-name="Iogonek" unicode="&#x12e;" horiz-adv-x="279" 
d="M179 0q-61 -36 -61 -82q0 -35 48 -35h10v-48q-13 -3 -30 -3q-42 0 -65 19.5t-23 53.5q0 55 64 95h-22v680h79v-680z" />
    <glyph glyph-name="iogonek" unicode="&#x12f;" horiz-adv-x="243" 
d="M121 576q-21 0 -36 14.5t-15 36.5t15 36.5t36 14.5q22 0 37 -14.5t15 -36.5t-15 -36.5t-37 -14.5zM84 0v485h74v-485q-61 -36 -61 -82q0 -35 48 -35h10v-48q-13 -3 -30 -3q-42 0 -65 19.5t-23 53.5q0 55 64 95h-17z" />
    <glyph glyph-name="Idotaccent" unicode="&#x130;" horiz-adv-x="279" 
d="M140 761q-22 0 -37 14.5t-15 36.5t15 36.5t37 14.5t36.5 -14.5t14.5 -36.5t-14.5 -36.5t-36.5 -14.5zM179 680v-680h-79v680h79z" />
    <glyph glyph-name="dotlessi" unicode="&#x131;" horiz-adv-x="245" 
d="M159 485v-485h-74v485h74z" />
    <glyph glyph-name="Kcommaaccent" unicode="&#x136;" horiz-adv-x="618" 
d="M366 398q65 -92 135.5 -212t98.5 -186h-83q-31 64 -92.5 167.5t-112.5 171.5q-69 -72 -137 -135v-204h-79v680h79v-385q208 210 320 385h84q-77 -132 -213 -282zM259 -200q16 76 16 147h74q-1 -76 -48 -147h-42z" />
    <glyph glyph-name="kcommaaccent" unicode="&#x137;" horiz-adv-x="499" 
d="M308 286q111 -163 163 -286h-77q-55 121 -136 232q-51 -52 -98 -92v-140h-75v700h75v-480q137 129 216 265h78q-57 -102 -146 -199zM213 -200q16 76 16 147h74q-1 -76 -48 -147h-42z" />
    <glyph glyph-name="Lacute" unicode="&#x139;" horiz-adv-x="539" 
d="M260 865q-45 -54 -89 -120h-71q28 66 67 120h93zM175 66h329v-66h-408v680h79v-614z" />
    <glyph glyph-name="lacute" unicode="&#x13a;" horiz-adv-x="260" 
d="M241 886q-45 -54 -89 -120h-71q28 66 67 120h93zM154 700v-577q0 -41 16.5 -56t56.5 -12v-54q-13 -8 -42 -8q-105 0 -105 123v584h74z" />
    <glyph glyph-name="Lcommaaccent" unicode="&#x13b;" horiz-adv-x="539" 
d="M175 66h329v-66h-408v680h79v-614zM250 -200q16 76 16 147h74q-1 -76 -48 -147h-42z" />
    <glyph glyph-name="lcommaaccent" unicode="&#x13c;" horiz-adv-x="260" 
d="M154 700v-577q0 -41 16.5 -56t56.5 -12v-54q-13 -8 -42 -8q-105 0 -105 123v584h74zM96 -200q16 76 16 147h74q-1 -76 -48 -147h-42z" />
    <glyph glyph-name="Lcaron" unicode="&#x13d;" horiz-adv-x="539" 
d="M339 681q-3 -103 -53 -176h-35q19 95 19 176h69zM175 66h329v-66h-408v680h79v-614z" />
    <glyph glyph-name="lcaron" unicode="&#x13e;" horiz-adv-x="284" 
d="M154 700v-577q0 -41 16.5 -56t56.5 -12v-54q-13 -8 -42 -8q-105 0 -105 123v584h74zM306 700q-3 -103 -53 -176h-35q19 95 19 176h69z" />
    <glyph glyph-name="Lslash" unicode="&#x141;" horiz-adv-x="557" 
d="M193 66h329v-66h-409v248l-77 -47v65l77 47v367h80v-318l141 86v-67l-141 -85v-230z" />
    <glyph glyph-name="lslash" unicode="&#x142;" horiz-adv-x="292" 
d="M253 418l-83 -52v-236q0 -43 16 -58.5t57 -12.5v-55q-16 -7 -40 -7q-107 0 -107 123v200l-72 -45v66l72 45v314h74v-267l83 52v-67z" />
    <glyph glyph-name="Nacute" unicode="&#x143;" horiz-adv-x="692" 
d="M472 865q-45 -54 -89 -120h-71q28 66 67 120h93zM520 680h76v-680h-70l-354 566v-566h-76v680h85l339 -541v541z" />
    <glyph glyph-name="nacute" unicode="&#x144;" horiz-adv-x="552" 
d="M405 680q-45 -54 -89 -120h-71q28 66 67 120h93zM300 494q76 0 123.5 -47t47.5 -126v-321h-74v308q0 54 -28 88t-85 34q-56 0 -90.5 -35.5t-34.5 -86.5v-308h-74v485h71v-69q44 78 144 78z" />
    <glyph glyph-name="Ncommaaccent" unicode="&#x145;" horiz-adv-x="692" 
d="M520 680h76v-680h-70l-354 566v-566h-76v680h85l339 -541v541zM293 -200q16 76 16 147h74q-1 -76 -48 -147h-42z" />
    <glyph glyph-name="ncommaaccent" unicode="&#x146;" horiz-adv-x="552" 
d="M300 494q76 0 123.5 -47t47.5 -126v-321h-74v308q0 54 -28 88t-85 34q-56 0 -90.5 -35.5t-34.5 -86.5v-308h-74v485h71v-69q44 78 144 78zM222 -200q16 76 16 147h74q-1 -76 -48 -147h-42z" />
    <glyph glyph-name="Ncaron" unicode="&#x147;" horiz-adv-x="692" 
d="M407 745h-109q-41 53 -69 120h62q28 -47 61 -83q33 36 61 83h62q-30 -70 -68 -120zM520 680h76v-680h-70l-354 566v-566h-76v680h85l339 -541v541z" />
    <glyph glyph-name="ncaron" unicode="&#x148;" horiz-adv-x="552" 
d="M339 560h-109q-41 53 -69 120h62q28 -47 61 -83q33 36 61 83h62q-30 -70 -68 -120zM300 494q76 0 123.5 -47t47.5 -126v-321h-74v308q0 54 -28 88t-85 34q-56 0 -90.5 -35.5t-34.5 -86.5v-308h-74v485h71v-69q44 78 144 78z" />
    <glyph glyph-name="Eng" unicode="&#x14a;" horiz-adv-x="692" 
d="M520 680h76v-682q0 -83 -46.5 -125t-125.5 -42q-55 0 -82 14v68q33 -12 77 -12q100 0 100 96v13l-347 554v-564h-76v680h85l339 -539v539z" />
    <glyph glyph-name="eng" unicode="&#x14b;" horiz-adv-x="552" 
d="M300 494q76 0 123.5 -47t47.5 -126v-321h-74v308q0 54 -28 88t-85 34q-56 0 -90.5 -35.5t-34.5 -86.5v-308h-74v485h71v-69q44 78 144 78z" />
    <glyph glyph-name="Omacron" unicode="&#x14c;" horiz-adv-x="643" 
d="M209 832h226v-63h-226v63zM322 -12q-116 0 -189 80t-73 252v40q0 172 73 252t189 80q115 0 188.5 -80t73.5 -252v-40q0 -172 -73.5 -252t-188.5 -80zM322 57q182 0 182 266v34q0 266 -182 266t-182 -266v-34q0 -266 182 -266z" />
    <glyph glyph-name="omacron" unicode="&#x14d;" horiz-adv-x="515" 
d="M145 647h226v-63h-226v63zM258 -9q-93 0 -150 63t-57 180v17q0 117 57 180t150 63q92 0 149 -63t57 -180v-17q0 -117 -57 -180t-149 -63zM258 56q70 0 101 51t31 127v17q0 77 -31 127.5t-101 50.5q-71 0 -102 -50.5t-31 -127.5v-17q0 -76 31 -127t102 -51z" />
    <glyph glyph-name="Ohungarumlaut" unicode="&#x150;" horiz-adv-x="643" 
d="M367 865q-37 -44 -78 -120h-64q18 48 56 120h86zM511 865q-24 -30 -89 -120h-63q32 68 67 120h85zM322 -12q-116 0 -189 80t-73 252v40q0 172 73 252t189 80q115 0 188.5 -80t73.5 -252v-40q0 -172 -73.5 -252t-188.5 -80zM322 57q182 0 182 266v34q0 266 -182 266
t-182 -266v-34q0 -266 182 -266z" />
    <glyph glyph-name="ohungarumlaut" unicode="&#x151;" horiz-adv-x="515" 
d="M302 680q-37 -44 -78 -120h-64q18 48 56 120h86zM446 680q-24 -30 -89 -120h-63q32 68 67 120h85zM258 -9q-93 0 -150 63t-57 180v17q0 117 57 180t150 63q92 0 149 -63t57 -180v-17q0 -117 -57 -180t-149 -63zM258 56q70 0 101 51t31 127v17q0 77 -31 127.5t-101 50.5
q-71 0 -102 -50.5t-31 -127.5v-17q0 -76 31 -127t102 -51z" />
    <glyph glyph-name="OE" unicode="&#x152;" horiz-adv-x="958" 
d="M563 66h341v-66h-421v59q-61 -71 -168 -71q-112 0 -183.5 81t-71.5 253v36q0 172 71.5 253t183.5 81q106 0 168 -71v59h412v-66h-332v-235h309v-66h-309v-247zM322 57q119 0 161 110v346q-42 110 -161 110q-51 0 -88 -22.5t-56.5 -61.5t-28.5 -84.5t-9 -99.5v-30
q0 -54 9 -99.5t28.5 -84.5t56.5 -61.5t88 -22.5z" />
    <glyph glyph-name="oe" unicode="&#x153;" horiz-adv-x="850" 
d="M800 232h-333q0 -75 31.5 -125.5t100.5 -50.5q94 0 117 81h76q-34 -146 -195 -146q-119 0 -170 99q-53 -99 -169 -99q-93 0 -150 63t-57 180v17q0 117 57 180t150 63q117 0 169 -100q53 100 172 100q91 0 146 -58.5t55 -161.5v-42zM390 234v17q0 77 -31 127.5t-101 50.5
q-71 0 -102 -50.5t-31 -127.5v-17q0 -76 31 -127t102 -51q70 0 101 51t31 127zM597 429q-59 0 -89.5 -38t-38.5 -99h257q-4 61 -35 99t-94 38z" />
    <glyph glyph-name="Racute" unicode="&#x154;" horiz-adv-x="622" 
d="M422 865q-45 -54 -89 -120h-71q28 66 67 120h93zM584 0h-87q-104 192 -185 293h-137v-293h-79v680h247q98 0 155 -52.5t57 -139.5q0 -74 -43.5 -124.5t-112.5 -61.5q47 -61 101 -152t84 -150zM175 614v-255h159q70 0 106 34t36 94t-36 93.5t-106 33.5h-159z" />
    <glyph glyph-name="racute" unicode="&#x155;" horiz-adv-x="355" 
d="M335 680q-45 -54 -89 -120h-71q28 66 67 120h93zM299 489q26 0 42 -4v-73q-20 3 -40 3q-71 0 -106.5 -45.5t-35.5 -122.5v-247h-74v485h71v-106q12 43 48 76.5t95 33.5z" />
    <glyph glyph-name="Rcommaaccent" unicode="&#x156;" horiz-adv-x="622" 
d="M399 302q47 -61 101 -152t84 -150h-87q-104 192 -185 293h-137v-293h-79v680h247q98 0 155 -52.5t57 -139.5q0 -74 -43.5 -124.5t-112.5 -61.5zM175 614v-255h159q70 0 106 34t36 94t-36 93.5t-106 33.5h-159zM279 -200q16 76 16 147h74q-1 -76 -48 -147h-42z" />
    <glyph glyph-name="rcommaaccent" unicode="&#x157;" horiz-adv-x="355" 
d="M299 489q26 0 42 -4v-73q-20 3 -40 3q-71 0 -106.5 -45.5t-35.5 -122.5v-247h-74v485h71v-106q12 43 48 76.5t95 33.5zM71 -200q16 76 16 147h74q-1 -76 -48 -147h-42z" />
    <glyph glyph-name="Rcaron" unicode="&#x158;" horiz-adv-x="622" 
d="M356 745h-109q-41 53 -69 120h62q28 -47 61 -83q33 36 61 83h62q-30 -70 -68 -120zM584 0h-87q-104 192 -185 293h-137v-293h-79v680h247q98 0 155 -52.5t57 -139.5q0 -74 -43.5 -124.5t-112.5 -61.5q47 -61 101 -152t84 -150zM175 614v-255h159q70 0 106 34t36 94
t-36 93.5t-106 33.5h-159z" />
    <glyph glyph-name="rcaron" unicode="&#x159;" horiz-adv-x="355" 
d="M270 560h-109q-41 53 -69 120h62q28 -47 61 -83q33 36 61 83h62q-30 -70 -68 -120zM299 489q26 0 42 -4v-73q-20 3 -40 3q-71 0 -106.5 -45.5t-35.5 -122.5v-247h-74v485h71v-106q12 43 48 76.5t95 33.5z" />
    <glyph glyph-name="Sacute" unicode="&#x15a;" horiz-adv-x="569" 
d="M404 865q-45 -54 -89 -120h-71q28 66 67 120h93zM499 518h-77q-8 47 -44.5 75.5t-100.5 28.5q-62 0 -97.5 -31t-35.5 -77q0 -47 29.5 -72t99.5 -47l67 -20q85 -26 132 -69t47 -123q0 -88 -61 -140t-167 -52q-113 0 -177.5 52.5t-68.5 132.5l-1 20h77q6 -64 50 -101
t120 -37q70 0 109 33t39 92q0 49 -30.5 76.5t-89.5 44.5l-63 19q-102 31 -146 72t-44 114q0 79 58 129.5t155 50.5q98 0 156 -45.5t63 -111.5z" />
    <glyph glyph-name="sacute" unicode="&#x15b;" horiz-adv-x="455" 
d="M356 680q-45 -54 -89 -120h-71q28 66 67 120h93zM226 494q75 0 118.5 -33.5t49.5 -85.5l1 -10h-72q-5 29 -32 48t-71 19q-40 0 -63.5 -18t-23.5 -50q0 -30 22.5 -46t73.5 -30l37 -11q73 -21 108 -53.5t35 -91.5q0 -65 -47 -103t-129 -38q-83 0 -131 38.5t-53 99.5l-1 13
h75q2 -38 32.5 -63.5t78.5 -25.5q103 0 103 76q0 35 -20 52.5t-70 31.5l-44 13q-32 9 -50.5 16t-43 22t-36.5 38.5t-12 55.5q0 59 43 97.5t122 38.5z" />
    <glyph glyph-name="Scedilla" unicode="&#x15e;" horiz-adv-x="569" 
d="M519 183q0 -84 -57 -136t-156 -56l-15 -30q40 0 64 -18.5t24 -52.5q0 -36 -26 -57.5t-69 -21.5q-56 0 -93 29l25 41q30 -22 68 -22q40 0 40 31q0 29 -48 29q-18 0 -31 -5l-17 22l27 57q-97 8 -151.5 58.5t-58.5 124.5l-1 20h77q6 -64 50 -101t120 -37q70 0 109 33t39 92
q0 49 -30.5 76.5t-89.5 44.5l-63 19q-102 31 -146 72t-44 114q0 79 58 129.5t155 50.5q98 0 156 -45.5t63 -111.5l1 -14h-77q-8 47 -44.5 75.5t-100.5 28.5q-62 0 -97.5 -31t-35.5 -77q0 -47 29.5 -72t99.5 -47l67 -20q85 -26 132 -69t47 -123z" />
    <glyph glyph-name="scedilla" unicode="&#x15f;" horiz-adv-x="455" 
d="M409 132q0 -62 -43 -99.5t-119 -41.5l-14 -30q40 0 63.5 -18.5t23.5 -52.5q0 -36 -26 -57.5t-69 -21.5q-56 0 -93 29l26 41q30 -22 67 -22q40 0 40 31q0 29 -47 29q-17 0 -32 -5l-17 22l27 57q-66 9 -104.5 45.5t-42.5 90.5l-1 13h75q2 -38 32.5 -63.5t78.5 -25.5
q103 0 103 76q0 35 -20 52.5t-70 31.5l-44 13q-32 9 -50.5 16t-43 22t-36.5 38.5t-12 55.5q0 59 43 97.5t122 38.5q75 0 118.5 -33.5t49.5 -85.5l1 -10h-72q-5 29 -32 48t-71 19q-40 0 -63.5 -18t-23.5 -50q0 -30 22.5 -46t73.5 -30l37 -11q73 -21 108 -53.5t35 -91.5z" />
    <glyph glyph-name="Scaron" unicode="&#x160;" horiz-adv-x="569" 
d="M339 745h-109q-41 53 -69 120h62q28 -47 61 -83q33 36 61 83h62q-30 -70 -68 -120zM340 375q85 -26 132 -69t47 -123q0 -88 -61 -140t-167 -52q-113 0 -177.5 52.5t-68.5 132.5l-1 20h77q6 -64 50 -101t120 -37q70 0 109 33t39 92q0 49 -30.5 76.5t-89.5 44.5l-63 19
q-102 31 -146 72t-44 114q0 79 58 129.5t155 50.5q98 0 156 -45.5t63 -111.5l1 -14h-77q-8 47 -44.5 75.5t-100.5 28.5q-62 0 -97.5 -31t-35.5 -77q0 -47 29.5 -72t99.5 -47z" />
    <glyph glyph-name="scaron" unicode="&#x161;" horiz-adv-x="455" 
d="M291 560h-109q-41 53 -69 120h62q28 -47 61 -83q33 36 61 83h62q-30 -70 -68 -120zM266 277q73 -21 108 -53.5t35 -91.5q0 -65 -47 -103t-129 -38q-83 0 -131 38.5t-53 99.5l-1 13h75q2 -38 32.5 -63.5t78.5 -25.5q103 0 103 76q0 35 -20 52.5t-70 31.5l-44 13
q-32 9 -50.5 16t-43 22t-36.5 38.5t-12 55.5q0 59 43 97.5t122 38.5q75 0 118.5 -33.5t49.5 -85.5l1 -10h-72q-5 29 -32 48t-71 19q-40 0 -63.5 -18t-23.5 -50q0 -30 22.5 -46t73.5 -30z" />
    <glyph glyph-name="uni0162" unicode="&#x162;" horiz-adv-x="541" 
d="M310 0h-12l-18 -39q40 0 64 -18.5t24 -52.5q0 -36 -26 -57.5t-69 -21.5q-56 0 -93 29l25 41q30 -22 67 -22q40 0 40 31q0 29 -47 29q-17 0 -32 -5l-16 22l30 64h-16v614h-204v66h487v-66h-204v-614z" />
    <glyph glyph-name="uni0163" unicode="&#x163;" horiz-adv-x="323" 
d="M290 428h-107v-287q0 -43 15 -62.5t55 -19.5q15 0 37 3v-58q-25 -8 -56 -8q-11 0 -16 1l-16 -36q40 0 63.5 -18.5t23.5 -52.5q0 -36 -25.5 -57.5t-68.5 -21.5q-57 0 -94 29l26 41q30 -22 67 -22q40 0 40 31q0 29 -47 29q-17 0 -32 -5l-17 22l34 71q-64 26 -64 122v299
h-79v57h80v127h74v-127h107v-57z" />
    <glyph glyph-name="Tcaron" unicode="&#x164;" horiz-adv-x="541" 
d="M325 745h-109q-41 53 -69 120h62q28 -47 61 -83q33 36 61 83h62q-30 -70 -68 -120zM27 680h487v-66h-204v-614h-79v614h-204v66z" />
    <glyph glyph-name="tcaron" unicode="&#x165;" horiz-adv-x="323" 
d="M337 734q-3 -103 -53 -176h-35q19 95 19 176h69zM233 -5q-125 0 -125 133v300h-79v57h80v127h74v-127h107v-57h-107v-288q0 -43 15 -62.5t55 -19.5q15 0 37 3v-58q-25 -8 -57 -8z" />
    <glyph glyph-name="Tbar" unicode="&#x166;" horiz-adv-x="541" 
d="M514 614h-204v-244h101v-59h-101v-311h-79v311h-102v59h102v244h-204v66h487v-66z" />
    <glyph glyph-name="tbar" unicode="&#x167;" horiz-adv-x="323" 
d="M290 428h-107v-143h107v-61h-107v-83q0 -43 15 -62.5t55 -19.5q15 0 37 3v-58q-25 -8 -56 -8q-126 0 -126 133v95h-79v61h79v143h-79v57h80v127h74v-127h107v-57z" />
    <glyph glyph-name="Umacron" unicode="&#x16a;" horiz-adv-x="670" 
d="M222 832h226v-63h-226v63zM496 680h80v-466q0 -114 -64 -168.5t-177 -54.5t-177 54.5t-64 168.5v466h79v-459q0 -164 162 -164q79 0 120 39t41 125v459z" />
    <glyph glyph-name="umacron" unicode="&#x16b;" horiz-adv-x="544" 
d="M382 647v-63h-226v63h226zM385 485h74v-485h-71v60q-47 -69 -141 -69q-74 0 -120 47t-46 126v321h74v-308q0 -54 27 -87.5t82 -33.5q54 0 87.5 35t33.5 86v308z" />
    <glyph glyph-name="Uring" unicode="&#x16e;" horiz-adv-x="670" 
d="M335 730q-41 0 -68 25t-27 64t27 64.5t68 25.5q42 0 68.5 -25.5t26.5 -64.5t-26.5 -64t-68.5 -25zM335 769q23 0 36.5 14t13.5 36t-13.5 36t-36.5 14t-36.5 -14t-13.5 -36t13.5 -36t36.5 -14zM496 680h80v-466q0 -114 -64 -168.5t-177 -54.5t-177 54.5t-64 168.5v466h79
v-459q0 -164 162 -164q79 0 120 39t41 125v459z" />
    <glyph glyph-name="uring" unicode="&#x16f;" horiz-adv-x="544" 
d="M269 545q-41 0 -68 25t-27 64t27 64.5t68 25.5q42 0 68.5 -25.5t26.5 -64.5t-26.5 -64t-68.5 -25zM269 684q-23 0 -36.5 -14t-13.5 -36t13.5 -36t36.5 -14t36.5 14t13.5 36t-13.5 36t-36.5 14zM385 485h74v-485h-71v60q-47 -69 -141 -69q-74 0 -120 47t-46 126v321h74
v-308q0 -54 27 -87.5t82 -33.5q54 0 87.5 35t33.5 86v308z" />
    <glyph glyph-name="Uhungarumlaut" unicode="&#x170;" horiz-adv-x="670" 
d="M380 865q-37 -44 -78 -120h-64q18 48 56 120h86zM524 865q-24 -30 -89 -120h-63q32 68 67 120h85zM496 680h80v-466q0 -114 -64 -168.5t-177 -54.5t-177 54.5t-64 168.5v466h79v-459q0 -164 162 -164q79 0 120 39t41 125v459z" />
    <glyph glyph-name="uhungarumlaut" unicode="&#x171;" horiz-adv-x="544" 
d="M314 680q-37 -44 -78 -120h-64q18 48 56 120h86zM369 560h-63q32 68 67 120h85q-24 -30 -89 -120zM385 485h74v-485h-71v60q-47 -69 -141 -69q-74 0 -120 47t-46 126v321h74v-308q0 -54 27 -87.5t82 -33.5q54 0 87.5 35t33.5 86v308z" />
    <glyph glyph-name="Uogonek" unicode="&#x172;" horiz-adv-x="670" 
d="M431 -168q-42 0 -65.5 20.5t-23.5 57.5q0 46 39 83q-28 -2 -49 -2q-110 0 -174 54.5t-64 168.5v466h79v-459q0 -164 162 -164q79 0 120 39t41 125v459h80v-466q0 -35 -6.5 -64t-14.5 -46.5t-26 -36.5t-28.5 -27.5t-34.5 -25.5q-23 -18 -34.5 -28.5t-20.5 -26t-9 -33.5
q0 -43 49 -43h10v-48q-13 -3 -30 -3z" />
    <glyph glyph-name="uogonek" unicode="&#x173;" horiz-adv-x="544" 
d="M459 0q-62 -37 -62 -82q0 -35 48 -35h11v-48q-14 -3 -31 -3q-41 0 -64 19.5t-23 53.5q0 56 64 95h-14v60q-47 -69 -141 -69q-74 0 -120 47t-46 126v321h74v-308q0 -54 27 -87.5t82 -33.5q54 0 87.5 35t33.5 86v308h74v-485z" />
    <glyph glyph-name="Wcircumflex" unicode="&#x174;" horiz-adv-x="934" 
d="M466 828q-33 -36 -61 -83h-62q28 67 69 120h109q38 -50 68 -120h-62q-28 47 -61 83zM818 680h81q-92 -425 -175 -659q-7 -21 -36 -21h-39q-17 0 -24.5 4.5t-10.5 16.5l-147 533l-145 -533q-7 -21 -36 -21h-39q-17 0 -24 4.5t-11 16.5q-92 269 -177 659h85
q59 -294 150 -591l159 591h80l162 -591q91 301 147 591z" />
    <glyph glyph-name="wcircumflex" unicode="&#x175;" horiz-adv-x="738" 
d="M368 643q-33 -36 -61 -83h-62q28 67 69 120h109q38 -50 68 -120h-62q-28 47 -61 83zM629 485h74q-59 -272 -131 -466q-7 -19 -26 -19h-54q-20 0 -26 19l-96 349l-95 -349q-6 -19 -26 -19h-58q-19 0 -26 19q-74 203 -131 466h77q37 -187 112 -420l111 420h73l112 -418
q73 232 110 418z" />
    <glyph glyph-name="Ycircumflex" unicode="&#x176;" horiz-adv-x="563" 
d="M282 828q-33 -36 -61 -83h-62q28 67 69 120h109q38 -50 68 -120h-62q-28 47 -61 83zM540 680q-81 -196 -218 -425v-255h-80v255q-140 235 -219 425h82q75 -177 178 -351q105 180 176 351h81z" />
    <glyph glyph-name="ycircumflex" unicode="&#x177;" horiz-adv-x="472" 
d="M235 643q-33 -36 -61 -83h-62q28 67 69 120h109q38 -50 68 -120h-62q-28 47 -61 83zM369 485h72q-30 -146 -110 -349.5t-132 -295.5h-76q35 65 77 160q-103 219 -168 485h77q37 -166 130 -400q87 221 130 400z" />
    <glyph glyph-name="Ydieresis" unicode="&#x178;" horiz-adv-x="563" 
d="M192 759q-23 0 -38 15t-15 37t15 37t38 15t38.5 -15t15.5 -37t-15.5 -37t-38.5 -15zM371 759q-23 0 -38 15t-15 37t15 37t38 15t38 -15t15 -37t-15 -37t-38 -15zM540 680q-81 -196 -218 -425v-255h-80v255q-140 235 -219 425h82q75 -177 178 -351q105 180 176 351h81z
" />
    <glyph glyph-name="Zacute" unicode="&#x179;" horiz-adv-x="575" 
d="M415 865q-45 -54 -89 -120h-71q28 66 67 120h93zM142 66h390v-66h-486v53l386 561h-372v66h469v-52z" />
    <glyph glyph-name="zacute" unicode="&#x17a;" horiz-adv-x="449" 
d="M346 680q-45 -54 -89 -120h-71q28 66 67 120h93zM131 63h280v-63h-373v51l277 372h-266v62h358v-51z" />
    <glyph glyph-name="Zdotaccent" unicode="&#x17b;" horiz-adv-x="575" 
d="M295 761q-22 0 -37 14.5t-15 36.5t15 36.5t37 14.5t36.5 -14.5t14.5 -36.5t-14.5 -36.5t-36.5 -14.5zM142 66h390v-66h-486v53l386 561h-372v66h469v-52z" />
    <glyph glyph-name="zdotaccent" unicode="&#x17c;" horiz-adv-x="449" 
d="M226 576q-22 0 -37 14.5t-15 36.5t15 36.5t37 14.5t36.5 -14.5t14.5 -36.5t-14.5 -36.5t-36.5 -14.5zM131 63h280v-63h-373v51l277 372h-266v62h358v-51z" />
    <glyph glyph-name="Zcaron" unicode="&#x17d;" horiz-adv-x="575" 
d="M349 745h-109q-41 53 -69 120h62q28 -47 61 -83q33 36 61 83h62q-30 -70 -68 -120zM142 66h390v-66h-486v53l386 561h-372v66h469v-52z" />
    <glyph glyph-name="zcaron" unicode="&#x17e;" horiz-adv-x="449" 
d="M280 560h-109q-41 53 -69 120h62q28 -47 61 -83q33 36 61 83h62q-30 -70 -68 -120zM131 63h280v-63h-373v51l277 372h-266v62h358v-51z" />
    <glyph glyph-name="Scommaaccent" unicode="&#x218;" horiz-adv-x="569" 
d="M499 518h-77q-8 47 -44.5 75.5t-100.5 28.5q-62 0 -97.5 -31t-35.5 -77q0 -47 29.5 -72t99.5 -47l67 -20q85 -26 132 -69t47 -123q0 -88 -61 -140t-167 -52q-113 0 -177.5 52.5t-68.5 132.5l-1 20h77q6 -64 50 -101t120 -37q70 0 109 33t39 92q0 49 -30.5 76.5
t-89.5 44.5l-63 19q-102 31 -146 72t-44 114q0 79 58 129.5t155 50.5q98 0 156 -45.5t63 -111.5zM231 -200q16 76 16 147h74q-1 -76 -48 -147h-42z" />
    <glyph glyph-name="scommaaccent" unicode="&#x219;" horiz-adv-x="455" 
d="M226 494q75 0 118.5 -33.5t49.5 -85.5l1 -10h-72q-5 29 -32 48t-71 19q-40 0 -63.5 -18t-23.5 -50q0 -30 22.5 -46t73.5 -30l37 -11q73 -21 108 -53.5t35 -91.5q0 -65 -47 -103t-129 -38q-83 0 -131 38.5t-53 99.5l-1 13h75q2 -38 32.5 -63.5t78.5 -25.5q103 0 103 76
q0 35 -20 52.5t-70 31.5l-44 13q-32 9 -50.5 16t-43 22t-36.5 38.5t-12 55.5q0 59 43 97.5t122 38.5zM173 -200q16 76 16 147h74q-1 -76 -48 -147h-42z" />
    <glyph glyph-name="uni021A" unicode="&#x21a;" horiz-adv-x="541" 
d="M514 680v-66h-204v-614h-79v614h-204v66h487zM220 -200q16 76 16 147h74q-1 -76 -48 -147h-42z" />
    <glyph glyph-name="uni021B" unicode="&#x21b;" horiz-adv-x="323" 
d="M233 -5q-125 0 -125 133v300h-79v57h80v127h74v-127h107v-57h-107v-288q0 -43 15 -62.5t55 -19.5q15 0 37 3v-58q-25 -8 -57 -8zM142 -200q16 76 16 147h74q-1 -76 -48 -147h-42z" />
    <glyph glyph-name="circumflex" unicode="&#x2c6;" horiz-adv-x="340" 
d="M293 560h-62q-24 42 -61 84q-35 -41 -61 -84h-62q28 67 69 120h109q38 -50 68 -120z" />
    <glyph glyph-name="caron" unicode="&#x2c7;" horiz-adv-x="340" 
d="M231 680h62q-30 -70 -68 -120h-109q-41 53 -69 120h62q26 -43 61 -84q37 42 61 84z" />
    <glyph glyph-name="breve" unicode="&#x2d8;" horiz-adv-x="340" 
d="M170 563q56 0 89.5 32t33.5 85h-61q0 -27 -14.5 -47t-47.5 -20q-60 0 -60 67h-63q0 -53 33 -85t90 -32z" />
    <glyph glyph-name="dotaccent" unicode="&#x2d9;" horiz-adv-x="198" 
d="M99 576q-22 0 -37 14.5t-15 36.5t15 36.5t37 14.5t36.5 -14.5t14.5 -36.5t-14.5 -36.5t-36.5 -14.5z" />
    <glyph glyph-name="ring" unicode="&#x2da;" horiz-adv-x="284" 
d="M142 545q-41 0 -68 25t-27 64t27 64.5t68 25.5q42 0 68.5 -25.5t26.5 -64.5t-26.5 -64t-68.5 -25zM142 584q23 0 36.5 14t13.5 36t-13.5 36t-36.5 14t-36.5 -14t-13.5 -36t13.5 -36t36.5 -14z" />
    <glyph glyph-name="ogonek" unicode="&#x2db;" horiz-adv-x="215" 
d="M140 15l28 -15q-62 -37 -62 -82q0 -35 49 -35h10v-48q-14 -3 -30 -3q-42 0 -65 19.5t-23 53.5q0 67 93 110z" />
    <glyph glyph-name="tilde" unicode="&#x2dc;" horiz-adv-x="382" 
d="M335 671q-3 -106 -79 -106q-31 0 -70.5 25t-54.5 25q-34 0 -38 -50h-46q3 107 84 107q28 0 67 -25.5t54 -25.5q35 0 37 50h46z" />
    <glyph glyph-name="hungarumlaut" unicode="&#x2dd;" horiz-adv-x="381" 
d="M189 680q-37 -44 -78 -120h-64q18 48 56 120h86zM333 680q-24 -30 -89 -120h-63q32 68 67 120h85z" />
    <glyph glyph-name="gravecomb" unicode="&#x300;" horiz-adv-x="0" 
d="M-207 680h93q39 -54 67 -120h-72q-48 72 -88 120z" />
    <glyph glyph-name="acutecomb" unicode="&#x301;" horiz-adv-x="0" 
d="M-47 680q-45 -54 -89 -120h-71q28 66 67 120h93z" />
    <glyph glyph-name="uni0302" unicode="&#x302;" horiz-adv-x="0" 
d="M-47 560h-62q-24 42 -61 84q-35 -41 -61 -84h-62q28 67 69 120h109q38 -50 68 -120z" />
    <glyph glyph-name="tildecomb" unicode="&#x303;" horiz-adv-x="0" 
d="M-47 671q-3 -106 -79 -106q-31 0 -70.5 25t-54.5 25q-34 0 -38 -50h-46q3 107 84 107q28 0 67 -25.5t54 -25.5q35 0 37 50h46z" />
    <glyph glyph-name="uni0304" unicode="&#x304;" horiz-adv-x="0" 
d="M-273 647h226v-63h-226v63z" />
    <glyph glyph-name="uni0306" unicode="&#x306;" horiz-adv-x="0" 
d="M-170 563q56 0 89.5 32t33.5 85h-61q0 -27 -14.5 -47t-47.5 -20q-60 0 -60 67h-63q0 -53 33 -85t90 -32z" />
    <glyph glyph-name="uni0307" unicode="&#x307;" horiz-adv-x="0" 
d="M-99 576q-22 0 -37 14.5t-15 36.5t15 36.5t37 14.5t36.5 -14.5t14.5 -36.5t-14.5 -36.5t-36.5 -14.5z" />
    <glyph glyph-name="uni0308" unicode="&#x308;" horiz-adv-x="0" 
d="M-280 574q-23 0 -38 15t-15 37t15 37t38 15t38.5 -15t15.5 -37t-15.5 -37t-38.5 -15zM-101 574q-23 0 -38 15t-15 37t15 37t38 15t38 -15t15 -37t-15 -37t-38 -15z" />
    <glyph glyph-name="uni030A" unicode="&#x30a;" horiz-adv-x="0" 
d="M-142 545q-41 0 -68 25t-27 64t27 64.5t68 25.5q42 0 68.5 -25.5t26.5 -64.5t-26.5 -64t-68.5 -25zM-142 584q23 0 36.5 14t13.5 36t-13.5 36t-36.5 14t-36.5 -14t-13.5 -36t13.5 -36t36.5 -14z" />
    <glyph glyph-name="uni030B" unicode="&#x30b;" horiz-adv-x="0" 
d="M-192 680q-37 -44 -78 -120h-64q18 48 56 120h86zM-48 680q-24 -30 -89 -120h-63q32 68 67 120h85z" />
    <glyph glyph-name="uni030C" unicode="&#x30c;" horiz-adv-x="0" 
d="M-109 680h62q-30 -70 -68 -120h-109q-41 53 -69 120h62q26 -43 61 -84q37 42 61 84z" />
    <glyph glyph-name="uni0312" unicode="&#x312;" horiz-adv-x="0" 
d="M-48 715q-16 -76 -16 -147h-74q1 76 48 147h42z" />
    <glyph glyph-name="uni0326" unicode="&#x326;" horiz-adv-x="0" 
d="M-138 -200q16 76 16 147h74q-1 -76 -48 -147h-42z" />
    <glyph glyph-name="uni0327" unicode="&#x327;" horiz-adv-x="0" 
d="M-134 -39q40 0 63.5 -18.5t23.5 -52.5q0 -36 -26 -57.5t-69 -21.5q-56 0 -93 29l26 41q30 -22 67 -22q40 0 40 31q0 29 -48 29q-16 0 -31 -5l-17 22l34 73h52z" />
    <glyph glyph-name="uni0328" unicode="&#x328;" horiz-adv-x="0" 
d="M-75 15l28 -15q-62 -37 -62 -82q0 -35 49 -35h10v-48q-14 -3 -30 -3q-42 0 -65 19.5t-23 53.5q0 67 93 110z" />
    <glyph glyph-name="uni0335" unicode="&#x335;" horiz-adv-x="0" 
d="M-330 264h282v-59h-282v59z" />
    <glyph glyph-name="uni0336" unicode="&#x336;" horiz-adv-x="0" 
d="M-503 274h455v-80h-455v80z" />
    <glyph glyph-name="uni0337" unicode="&#x337;" horiz-adv-x="0" 
d="M-45 466l-234 -142v66l234 143v-67z" />
    <glyph glyph-name="uni0338" unicode="&#x338;" horiz-adv-x="0" 
d="M-22 680l-363 -706l-55 26l363 706z" />
    <glyph glyph-name="Wgrave" unicode="&#x1e80;" horiz-adv-x="934" 
d="M504 745h-72q-48 72 -88 120h93q39 -54 67 -120zM818 680h81q-92 -425 -175 -659q-7 -21 -36 -21h-39q-17 0 -24.5 4.5t-10.5 16.5l-147 533l-145 -533q-7 -21 -36 -21h-39q-17 0 -24 4.5t-11 16.5q-92 269 -177 659h85q59 -294 150 -591l159 591h80l162 -591
q91 301 147 591z" />
    <glyph glyph-name="wgrave" unicode="&#x1e81;" horiz-adv-x="738" 
d="M406 560h-72q-48 72 -88 120h93q39 -54 67 -120zM629 485h74q-59 -272 -131 -466q-7 -19 -26 -19h-54q-20 0 -26 19l-96 349l-95 -349q-6 -19 -26 -19h-58q-19 0 -26 19q-74 203 -131 466h77q37 -187 112 -420l111 420h73l112 -418q73 232 110 418z" />
    <glyph glyph-name="Wacute" unicode="&#x1e82;" horiz-adv-x="934" 
d="M586 865q-45 -54 -89 -120h-71q28 66 67 120h93zM818 680h81q-92 -425 -175 -659q-7 -21 -36 -21h-39q-17 0 -24.5 4.5t-10.5 16.5l-147 533l-145 -533q-7 -21 -36 -21h-39q-17 0 -24 4.5t-11 16.5q-92 269 -177 659h85q59 -294 150 -591l159 591h80l162 -591
q91 301 147 591z" />
    <glyph glyph-name="wacute" unicode="&#x1e83;" horiz-adv-x="738" 
d="M489 680q-45 -54 -89 -120h-71q28 66 67 120h93zM629 485h74q-59 -272 -131 -466q-7 -19 -26 -19h-54q-20 0 -26 19l-96 349l-95 -349q-6 -19 -26 -19h-58q-19 0 -26 19q-74 203 -131 466h77q37 -187 112 -420l111 420h73l112 -418q73 232 110 418z" />
    <glyph glyph-name="Wdieresis" unicode="&#x1e84;" horiz-adv-x="934" 
d="M377 759q-23 0 -38 15t-15 37t15 37t38 15t38.5 -15t15.5 -37t-15.5 -37t-38.5 -15zM556 759q-23 0 -38 15t-15 37t15 37t38 15t38 -15t15 -37t-15 -37t-38 -15zM818 680h81q-92 -425 -175 -659q-7 -21 -36 -21h-39q-17 0 -24.5 4.5t-10.5 16.5l-147 533l-145 -533
q-7 -21 -36 -21h-39q-17 0 -24 4.5t-11 16.5q-92 269 -177 659h85q59 -294 150 -591l159 591h80l162 -591q91 301 147 591z" />
    <glyph glyph-name="wdieresis" unicode="&#x1e85;" horiz-adv-x="738" 
d="M279 574q-23 0 -38 15t-15 37t15 37t38 15t38.5 -15t15.5 -37t-15.5 -37t-38.5 -15zM458 574q-23 0 -38 15t-15 37t15 37t38 15t38 -15t15 -37t-15 -37t-38 -15zM629 485h74q-59 -272 -131 -466q-7 -19 -26 -19h-54q-20 0 -26 19l-96 349l-95 -349q-6 -19 -26 -19h-58
q-19 0 -26 19q-74 203 -131 466h77q37 -187 112 -420l111 420h73l112 -418q73 232 110 418z" />
    <glyph glyph-name="Ygrave" unicode="&#x1ef2;" horiz-adv-x="563" 
d="M320 745h-72q-48 72 -88 120h93q39 -54 67 -120zM540 680q-81 -196 -218 -425v-255h-80v255q-140 235 -219 425h82q75 -177 178 -351q105 180 176 351h81z" />
    <glyph glyph-name="ygrave" unicode="&#x1ef3;" horiz-adv-x="472" 
d="M273 560h-72q-48 72 -88 120h93q39 -54 67 -120zM369 485h72q-30 -146 -110 -349.5t-132 -295.5h-76q35 65 77 160q-103 219 -168 485h77q37 -166 130 -400q87 221 130 400z" />
    <glyph glyph-name="endash" unicode="&#x2013;" horiz-adv-x="586" 
d="M46 325h494v-62h-494v62z" />
    <glyph glyph-name="emdash" unicode="&#x2014;" horiz-adv-x="809" 
d="M46 325h717v-62h-717v62z" />
    <glyph glyph-name="quoteleft" unicode="&#x2018;" horiz-adv-x="197" 
d="M47 477v29q0 14 1.5 27t4.5 25.5t6.5 23t9 22t9 19t10 18t9 15t9 13.5t7.5 11h37q-20 -80 -20 -165v-38h-83z" />
    <glyph glyph-name="quoteright" unicode="&#x2019;" horiz-adv-x="197" 
d="M150 680v-29q0 -13 -1.5 -26.5t-5 -26t-6 -22.5t-8.5 -22t-9 -19t-10 -18.5t-9.5 -15t-9.5 -13.5t-7 -11h-37q21 84 21 165v38h82z" />
    <glyph glyph-name="quotesinglbase" unicode="&#x201a;" horiz-adv-x="197" 
d="M150 87v-29q0 -14 -1.5 -27t-4.5 -25.5t-6.5 -23t-9 -22t-9 -19t-10 -18t-9 -15t-9 -13.5t-7.5 -11h-37q21 84 21 165v38h82z" />
    <glyph glyph-name="quotedblleft" unicode="&#x201c;" horiz-adv-x="355" 
d="M47 477v29q0 14 1.5 27t4.5 25.5t6.5 23t9 22t9 19t10 18t9 15t9 13.5t7.5 11h37q-20 -80 -20 -165v-38h-83zM205 477v29q0 80 66 174h36q-20 -80 -20 -165v-38h-82z" />
    <glyph glyph-name="quotedblright" unicode="&#x201d;" horiz-adv-x="355" 
d="M150 680v-29q0 -13 -1.5 -26.5t-5 -26t-6 -22.5t-8.5 -22t-9 -19t-10 -18.5t-9.5 -15t-9.5 -13.5t-7 -11h-37q21 84 21 165v38h82zM307 680v-29q0 -80 -66 -174h-36q20 80 20 165v38h82z" />
    <glyph glyph-name="quotedblbase" unicode="&#x201e;" horiz-adv-x="355" 
d="M150 87v-29q0 -14 -1.5 -27t-4.5 -25.5t-6.5 -23t-9 -22t-9 -19t-10 -18t-9 -15t-9 -13.5t-7.5 -11h-37q21 84 21 165v38h82zM307 87v-29q0 -80 -66 -174h-36q20 80 20 165v38h82z" />
    <glyph glyph-name="dagger" unicode="&#x2020;" horiz-adv-x="466" 
d="M415 485v-65h-148v-515h-70v515h-146v65h146v195h70v-195h148z" />
    <glyph glyph-name="daggerdbl" unicode="&#x2021;" horiz-adv-x="466" 
d="M415 420h-147v-189h147v-65h-147v-261h-72v261h-145v65h145v189h-145v65h145v195h72v-195h147v-65z" />
    <glyph glyph-name="bullet" unicode="&#x2022;" horiz-adv-x="380" 
d="M190 197q-55 0 -92.5 37.5t-37.5 92.5t37.5 92.5t92.5 37.5t92.5 -37.5t37.5 -92.5t-37.5 -92.5t-92.5 -37.5z" />
    <glyph glyph-name="ellipsis" unicode="&#x2026;" horiz-adv-x="584" 
d="M99 -6q-21 0 -36.5 15t-15.5 37q0 21 15.5 35.5t36.5 14.5t36 -14.5t15 -35.5q0 -22 -15 -37t-36 -15zM292 -6q-21 0 -36.5 15t-15.5 37q0 21 15.5 35.5t36.5 14.5t36 -14.5t15 -35.5q0 -22 -15 -37t-36 -15zM485 -6q-21 0 -36 15t-15 37q0 21 15 35.5t36 14.5
t36.5 -14.5t15.5 -35.5q0 -22 -15.5 -37t-36.5 -15z" />
    <glyph glyph-name="perthousand" unicode="&#x2030;" horiz-adv-x="1200" 
d="M196 353q-64 0 -109 43t-45 125q0 81 45 124.5t109 43.5q63 0 109 -43.5t46 -124.5q0 -82 -46 -125t-109 -43zM644 680l-395 -680h-64l395 680h64zM196 410q40 0 64.5 29t24.5 82q0 52 -24.5 81.5t-64.5 29.5t-64.5 -29.5t-24.5 -81.5q0 -53 24.5 -82t64.5 -29zM634 -8
q-64 0 -109 43.5t-45 124.5q0 82 45 125.5t109 43.5q63 0 109 -43.5t46 -125.5q0 -81 -46 -124.5t-109 -43.5zM1004 -8q-64 0 -109 43.5t-45 124.5q0 82 45 125.5t109 43.5q63 0 109 -43.5t46 -125.5q0 -81 -46 -124.5t-109 -43.5zM634 49q40 0 64.5 29.5t24.5 81.5
q0 53 -24.5 82.5t-64.5 29.5t-64.5 -29.5t-24.5 -82.5q0 -52 24.5 -81.5t64.5 -29.5zM1004 49q40 0 64.5 29.5t24.5 81.5q0 53 -24.5 82.5t-64.5 29.5t-64.5 -29.5t-24.5 -82.5q0 -52 24.5 -81.5t64.5 -29.5z" />
    <glyph glyph-name="guilsinglleft" unicode="&#x2039;" horiz-adv-x="379" 
d="M317 435l-179 -193l179 -194h-79l-176 194l176 193h79z" />
    <glyph glyph-name="guilsinglright" unicode="&#x203a;" horiz-adv-x="379" 
d="M62 435h78l177 -193l-177 -194h-78l178 194z" />
    <glyph glyph-name="fraction" unicode="&#x2044;" horiz-adv-x="237" 
d="M348 680l-395 -680h-64l395 680h64z" />
    <glyph glyph-name="Euro" unicode="&#x20ac;" horiz-adv-x="560" 
d="M317 58q105 0 132 111h81l-1 -8q-7 -58 -41 -98t-77.5 -56t-93.5 -16q-90 0 -152.5 62.5t-75.5 194.5h-68v54h65v84h-65v53h69q14 129 76 189.5t151 60.5q78 0 139.5 -42t72.5 -128l1 -8h-81q-27 111 -132 111q-67 0 -103 -50.5t-46 -132.5h200v-53h-205v-84h205v-54
h-201q22 -190 150 -190z" />
    <glyph glyph-name="trademark" unicode="&#x2122;" horiz-adv-x="731" 
d="M47 627v53h241v-53h-90v-243h-61v243h-90zM593 680h72v-296h-55v220q-23 -57 -88 -163q-7 -11 -15 -11h-10q-8 0 -15 11q-66 109 -89 162v-219h-55v296h70q62 -120 95 -172q40 68 90 172z" />
    <glyph glyph-name="minus" unicode="&#x2212;" 
d="M82 357h406v-66h-406v66z" />
    <glyph glyph-name="approxequal" unicode="&#x2248;" 
d="M379 355q-35 0 -96.5 24t-88.5 24q-47 0 -81 -37l-31 42q45 55 109 55q35 0 97.5 -24t89.5 -24q44 0 79 37l31 -42q-46 -55 -109 -55zM379 186q-35 0 -96.5 23.5t-88.5 23.5q-47 0 -81 -37l-31 42q45 55 109 55q35 0 97.5 -24t89.5 -24q44 0 79 37l31 -42
q-46 -54 -109 -54z" />
    <glyph glyph-name="notequal" unicode="&#x2260;" 
d="M488 381h-150l-47 -114h197v-66h-224l-41 -98h-61l41 98h-121v66h148l47 114h-195v66h222l42 102h62l-43 -102h123v-66z" />
    <glyph glyph-name="lessequal" unicode="&#x2264;" 
d="M488 499v-69l-320 -109l320 -108v-69l-406 144v66zM82 107h406v-66h-406v66z" />
    <glyph glyph-name="greaterequal" unicode="&#x2265;" 
d="M82 499l406 -145v-66l-406 -144v69l320 108l-320 109v69zM488 107v-66h-406v66h406z" />
    <glyph glyph-name="i.loclTRK" horiz-adv-x="245" 
d="M123 576q-22 0 -37 14.5t-15 36.5t15 36.5t37 14.5t36.5 -14.5t14.5 -36.5t-14.5 -36.5t-36.5 -14.5zM159 485v-485h-74v485h74z" />
    <glyph glyph-name="one.pnum" horiz-adv-x="445" 
d="M230 680h60v-680h-77v570q-51 -43 -157 -94v69q133 86 174 135z" />
    <glyph glyph-name="two.dnom" horiz-adv-x="407" 
d="M162 54h182v-54h-276v48l36 27t38 29t33 27t32.5 29.5t25 28.5t22 32t12 32.5t5.5 36.5q0 31 -19 52t-51 21q-33 0 -53.5 -22.5t-22.5 -61.5h-63q2 68 39.5 105t100.5 37q60 0 96.5 -36t36.5 -92q0 -125 -174 -239z" />
    <glyph glyph-name="four.dnom" horiz-adv-x="409" 
d="M366 148v-55h-52v-93h-62v93h-205v25q0 28 9 51q45 105 151 245h71q-122 -170 -166 -266h140v109h62v-109h52z" />
    <glyph glyph-name="one.numr" horiz-adv-x="335" 
d="M171 680h46v-414h-64v313q-48 -40 -98 -54v56q75 43 116 99z" />
    <glyph glyph-name="two.numr" horiz-adv-x="407" 
d="M161 322h183v-54h-275v48q6 5 40.5 31t43.5 33.5t35.5 30t35.5 35t23.5 33t19.5 39.5t5 40q0 31 -19 52t-51 21q-33 0 -53.5 -22.5t-22.5 -61.5h-63q2 68 39.5 105t100.5 37q60 0 96.5 -36t36.5 -92q0 -126 -175 -239z" />
    <glyph glyph-name="three.numr" horiz-adv-x="374" 
d="M258 483q29 -11 48 -36t19 -60q0 -58 -36.5 -93t-101.5 -35q-61 0 -97.5 32t-36.5 88h61q3 -28 22 -46t52 -18q34 0 53.5 19t19.5 52q0 69 -91 69v49q37 0 62 16.5t25 51.5q0 31 -18 48t-50 17q-31 0 -50.5 -20t-22.5 -46h-57q0 52 36 85t93 33q61 0 95 -31.5t34 -81.5
q0 -70 -59 -93z" />
    <glyph glyph-name="caroncomb.alt" horiz-adv-x="0" 
d="M-48 700q-3 -103 -53 -176h-35q19 95 19 176h69z" />
    <glyph glyph-name="commaccentcomb.alt" horiz-adv-x="185" 
d="M137 730q-16 -76 -16 -147h-74q1 76 48 147h42z" />
    </font>
</defs>
</svg>
